<?xml version="1.0" standalone="no"?>
<!DOCTYPE svg PUBLIC "-//W3C//DTD SVG 1.1//EN" "http://www.w3.org/Graphics/SVG/1.1/DTD/svg11.dtd" >
<svg xmlns="http://www.w3.org/2000/svg" xmlns:xlink="http://www.w3.org/1999/xlink" version="1.1">
<metadata></metadata>
<defs>
<font id="sfr_regularregular" horiz-adv-x="681" >
<font-face units-per-em="2048" ascent="1536" descent="-512" />
<missing-glyph horiz-adv-x="522" />
<glyph horiz-adv-x="0" />
<glyph horiz-adv-x="682" />
<glyph unicode=" "  horiz-adv-x="522" />
<glyph unicode="&#x09;" horiz-adv-x="522" />
<glyph unicode="&#xa0;" horiz-adv-x="522" />
<glyph unicode="!" horiz-adv-x="569" d="M164 109q0 49 37 84.5t84 35.5q50 0 85.5 -35.5t35.5 -84.5q0 -48 -35.5 -84.5t-85.5 -36.5q-49 0 -85 36.5t-36 84.5zM186 981v481h195v-481l-62 -606h-71z" />
<glyph unicode="&#x22;" horiz-adv-x="737" d="M143 1470h166l-24 -518h-113zM428 1470h166l-27 -518h-110z" />
<glyph unicode="#" horiz-adv-x="1187" d="M29 428v141h233l55 308h-260v137h285l72 424h145l-76 -424h324l76 424h141l-74 -424h207v-137h-229l-56 -308h256v-141h-280l-72 -428h-145l76 428h-324l-76 -428h-141l72 428h-209zM406 569h325l51 308h-323z" />
<glyph unicode="$" horiz-adv-x="1187" d="M61 449h177q13 -132 79 -208.5t201 -90.5v497q-80 23 -139 45.5t-119 58.5t-97.5 79t-61 106.5t-23.5 142.5q0 150 120.5 252t319.5 117v184h115v-182q198 -15 305 -130.5t115 -297.5h-174q-10 118 -74.5 182.5t-171.5 75.5v-465q267 -69 379 -167.5t112 -274.5 q0 -162 -138 -274.5t-353 -121.5v-200h-115v203q-210 20 -331.5 144t-125.5 325zM262 1079q0 -86 56.5 -138.5t199.5 -94.5v432q-128 -10 -192 -66.5t-64 -132.5zM633 145q147 7 227 71t80 157t-71 147t-236 98v-473z" />
<glyph unicode="%" horiz-adv-x="1835" d="M82 1044q0 410 330 410q159 0 244 -97.5t85 -312.5q0 -413 -329 -413q-330 0 -330 413zM236 1044q0 -282 176 -282t176 282q0 279 -176 279t-176 -279zM279 -45l1101 1524h174l-1099 -1524h-176zM1094 389q0 410 329 410q330 0 330 -410q0 -414 -330 -414 q-329 0 -329 414zM1247 389q0 -283 176 -283t176 283q0 279 -176 279t-176 -279z" />
<glyph unicode="&#x26;" horiz-adv-x="1241" d="M90 393q0 275 318 443q-71 87 -112 169.5t-30 170.5q9 125 104 205.5t222 80.5q132 0 220.5 -88t88.5 -211q0 -115 -64.5 -197t-193.5 -161l272 -363q47 91 64 232l154 -23q-32 -223 -109 -346q68 -87 172 -201l-121 -104q-71 77 -145 162q-86 -107 -182 -152t-228 -45 q-184 0 -307 121.5t-123 306.5zM258 395q0 -116 74.5 -199t191.5 -83q87 0 165.5 46.5t139.5 127.5l-335 436q-115 -67 -175.5 -152t-60.5 -176zM424 1163q0 -40 29.5 -93.5t101.5 -154.5q91 62 136.5 116.5t45.5 123.5q0 70 -42.5 117t-110.5 47q-70 0 -115 -43t-45 -113z " />
<glyph unicode="'" horiz-adv-x="454" d="M143 1470h166l-24 -518h-113z" />
<glyph unicode="(" d="M137 549q0 294 90.5 540t255.5 416l101 -86q-126 -154 -200.5 -387t-74.5 -483q0 -249 74.5 -479.5t200.5 -386.5l-101 -89q-165 172 -255.5 416t-90.5 539z" />
<glyph unicode=")" d="M98 -317q126 156 200.5 386.5t74.5 479.5q0 250 -74.5 483t-200.5 387l101 86q165 -170 255.5 -416t90.5 -540q0 -295 -90.5 -539t-255.5 -416z" />
<glyph unicode="*" horiz-adv-x="768" d="M90 1092l191 77l-183 80l74 123l160 -121l-29 211h152l-23 -207l170 123l74 -127l-201 -82l195 -77l-76 -125l-166 125l33 -215h-150l23 217l-176 -127z" />
<glyph unicode="+" horiz-adv-x="1196" d="M90 449v139h447v426h139v-426h428v-139h-428v-449h-139v449h-447z" />
<glyph unicode="," horiz-adv-x="471" d="M115 -268l45 495h194l-133 -495h-106z" />
<glyph unicode="-" d="M90 475v184h502v-184h-502z" />
<glyph unicode="." horiz-adv-x="471" d="M113 109q0 48 38 84t85 36q48 0 84 -35.5t36 -84.5q0 -48 -35 -84.5t-85 -36.5t-86.5 36.5t-36.5 84.5z" />
<glyph unicode="/" horiz-adv-x="745" d="M0 -35l606 1532h139l-604 -1532h-141z" />
<glyph unicode="0" horiz-adv-x="1187" d="M63 711q0 741 531 741q528 0 528 -741q0 -375 -137.5 -555.5t-390.5 -180.5q-254 0 -392.5 180.5t-138.5 555.5zM248 711q0 -282 88 -424t258 -142q344 0 344 566q0 293 -86.5 432t-257.5 139q-172 0 -259 -139t-87 -432z" />
<glyph unicode="1" horiz-adv-x="1187" d="M283 1159l399 293h98v-1452h-174v1202l-244 -170z" />
<glyph unicode="2" horiz-adv-x="1187" d="M113 0q-4 95 23 180t90.5 167.5t134 150.5t182.5 161q163 137 217 194q108 115 108 218q0 90 -59.5 150.5t-196.5 60.5q-126 0 -202.5 -64t-92.5 -165h-174q6 84 36.5 153t76.5 113.5t105.5 75.5t121.5 44t127 13q205 0 324 -94t119 -275q0 -45 -12 -90t-27.5 -80 t-48.5 -77.5t-55.5 -68.5t-68.5 -68t-68 -60.5t-73 -60.5q-14 -12 -53 -44t-56.5 -46.5t-52.5 -44.5t-52.5 -47.5l-45 -45t-42 -47.5t-31 -44.5t-25.5 -46.5t-12 -44h745v-168h-962z" />
<glyph unicode="3" horiz-adv-x="1187" d="M111 381h174q8 -98 85 -167t216 -69q79 0 140 23.5t95 62t51 80.5t17 84q0 72 -29.5 126t-81.5 85.5t-114 46.5t-134 15h-161v153h153q88 0 155.5 21.5t106 58.5t57.5 79.5t19 90.5q0 99 -81 160t-187 61q-134 0 -210.5 -60t-82.5 -179h-178q-2 87 26.5 158t75.5 116.5 t109.5 77t125.5 44.5t126 13q134 0 236.5 -41t163 -125t60.5 -200q0 -18 -1 -35.5t-7 -48t-15.5 -57t-28.5 -58.5t-45.5 -57.5t-67 -48t-91.5 -35.5q142 -40 214.5 -138.5t72.5 -234.5q0 -117 -68.5 -211.5t-181 -145.5t-245.5 -51q-60 0 -121 12.5t-125 42.5t-112.5 75 t-79.5 116.5t-31 159.5z" />
<glyph unicode="4" horiz-adv-x="1187" d="M68 340v154l632 960h220v-960h198v-154h-198v-340h-164v340h-688zM260 494h496v759z" />
<glyph unicode="5" horiz-adv-x="1187" d="M100 383h172q4 -24 16 -52t37 -62t58.5 -61t86 -45t114.5 -18q70 0 126 20t90.5 51t58 72.5t33 81.5t9.5 81q0 143 -87.5 218.5t-223.5 75.5q-48 0 -93.5 -9.5t-76 -22t-55 -27.5t-36 -25t-14.5 -14h-168l101 780h733v-153h-594l-68 -451q53 42 137 67t175 25 q204 0 329 -121.5t125 -332.5q0 -73 -16.5 -141t-54.5 -131.5t-94.5 -110.5t-143 -75t-192.5 -28q-107 0 -198 36t-150.5 95t-95 130.5t-40.5 146.5z" />
<glyph unicode="6" horiz-adv-x="1187" d="M80 696q0 82 5 153t20.5 150.5t40.5 142.5t67.5 122.5t99 99.5t138.5 64t182 24q62 0 123 -15.5t117 -48.5t100.5 -79.5t72.5 -112.5t33 -143h-174q-24 106 -96.5 167.5t-183.5 61.5q-62 0 -113.5 -17t-87 -45.5t-63 -71t-44 -87.5t-27.5 -101t-15.5 -105t-6.5 -107 q22 23 52 46.5t79 53.5t115.5 48.5t136.5 18.5q114 0 202.5 -35.5t143.5 -99t83 -146.5t28 -181q0 -71 -16.5 -137.5t-54.5 -129.5t-94.5 -109t-143 -74t-193.5 -28q-99 0 -179 26t-134 67t-94 102.5t-62.5 122.5t-35.5 137t-17 136t-4 130zM276 580q10 -435 336 -435 q68 1 123 20.5t89.5 50t57.5 70.5t32.5 79.5t9.5 80.5q0 132 -81 215.5t-225 83.5q-190 0 -342 -165z" />
<glyph unicode="7" horiz-adv-x="1187" d="M129 1264v163h930v-141l-688 -1286h-201l680 1264h-721z" />
<glyph unicode="8" horiz-adv-x="1187" d="M82 365q0 74 23.5 133.5t69 104t98 77t124.5 63.5q-109 57 -181.5 143.5t-72.5 188.5q0 172 125.5 274.5t329.5 102.5q110 0 196.5 -30.5t138.5 -81.5t78.5 -113t26.5 -131q0 -108 -71.5 -192t-188.5 -142q326 -131 326 -369q0 -189 -147.5 -303.5t-372.5 -114.5 q-221 0 -361.5 111.5t-140.5 278.5zM266 395q0 -111 87.5 -181.5t236.5 -70.5q141 0 234.5 65.5t93.5 168.5q0 113 -84.5 184t-270.5 123q-132 -40 -214.5 -117t-82.5 -172zM328 1077q0 -45 17 -83t44.5 -64.5t67.5 -48.5t79 -36t87 -26q102 33 166.5 99t64.5 157 q0 85 -66 148t-192 63q-123 0 -195.5 -63t-72.5 -146z" />
<glyph unicode="9" horiz-adv-x="1187" d="M82 969q0 74 15.5 141t53 130.5t94 109.5t145 74t200.5 28q99 0 179 -25.5t133 -66t92 -102t60 -121t33.5 -136.5t15.5 -135.5t3 -130.5q0 -82 -5 -152t-19.5 -150t-39 -143.5t-66 -124t-97 -101t-136.5 -65t-180 -24.5q-189 0 -316.5 108.5t-137.5 299.5h178 q20 -120 95.5 -179t192.5 -59q62 0 113 17t85.5 45t61 69t42 84t25 96.5t13 99.5t3.5 99q-27 -29 -72.5 -59.5t-131 -59t-177.5 -28.5q-218 0 -336.5 128t-118.5 333zM266 975q0 -132 80.5 -214.5t226.5 -82.5q68 0 131.5 17t107 43t68 45t38.5 34q-10 465 -332 465 q-86 0 -151 -28.5t-100.5 -75t-52 -98t-16.5 -105.5z" />
<glyph unicode=":" horiz-adv-x="471" d="M113 109q0 48 38 84t85 36q48 0 84 -35.5t36 -84.5q0 -48 -35 -84.5t-85 -36.5t-86.5 36.5t-36.5 84.5zM113 901q0 47 38.5 83t84.5 36q47 0 83.5 -36t36.5 -83q0 -50 -35 -87.5t-85 -37.5t-86.5 37.5t-36.5 87.5z" />
<glyph unicode=";" horiz-adv-x="471" d="M113 -268l45 495h194l-135 -495h-104zM115 901q0 47 38.5 83t84.5 36q47 0 83.5 -36t36.5 -83q0 -50 -35 -87.5t-85 -37.5t-86.5 37.5t-36.5 87.5z" />
<glyph unicode="&#x3c;" horiz-adv-x="1196" d="M78 455v131l1040 479v-135l-891 -412l891 -409v-138z" />
<glyph unicode="=" horiz-adv-x="1196" d="M90 242v139h1014v-139h-1014zM90 655v140h1014v-140h-1014z" />
<glyph unicode="&#x3e;" horiz-adv-x="1196" d="M78 -29v138l891 409l-891 412v135l1040 -479v-131z" />
<glyph unicode="?" horiz-adv-x="1138" d="M109 1053q0 109 39 196t105 140.5t149 81.5t176 28q202 0 327 -98t125 -285q0 -107 -47 -182t-149 -166q-66 -59 -99 -94t-60.5 -83t-36.5 -101.5t-9 -133.5h-162q-2 39 -2 107q0 47 5.5 84.5t21 72t31.5 60.5t48 59.5t58.5 58t75.5 66.5q77 67 108 118.5t31 119.5 q0 105 -78.5 167t-190.5 62q-126 0 -209 -74.5t-83 -203.5h-174zM430 109q0 49 37 84.5t84 35.5q50 0 85.5 -35.5t35.5 -84.5q0 -48 -35.5 -84.5t-85.5 -36.5q-49 0 -85 36.5t-36 84.5z" />
<glyph unicode="@" horiz-adv-x="1638" d="M61 705q0 165 58.5 311.5t160 252t247 167t313.5 61.5q309 0 499.5 -172.5t190.5 -462.5q0 -108 -32.5 -212t-90 -187.5t-146.5 -135t-194 -51.5q-142 0 -160 152q-115 -152 -258 -152q-74 0 -132 28t-93 76.5t-52.5 109.5t-17.5 133q0 96 32 193.5t88.5 178t144 131 t188.5 50.5q155 0 227 -127l31 118l123 -16q-10 -36 -80 -358t-70 -347q0 -31 14.5 -46t47.5 -15q118 0 203.5 135t85.5 346q0 239 -152 378.5t-401 139.5q-180 0 -324.5 -89t-225.5 -244.5t-81 -345.5q0 -194 85 -337.5t230 -216.5t330 -73q190 0 347 78t228 213h152 q-102 -181 -290.5 -292.5t-434.5 -111.5q-184 0 -335 58t-249.5 159t-152.5 235.5t-54 287.5zM506 627q0 -97 41 -163.5t119 -66.5q80 0 150.5 71.5t110.5 177t40 210.5q0 86 -42.5 145.5t-115.5 59.5q-92 0 -163 -68.5t-105.5 -166t-34.5 -199.5z" />
<glyph unicode="A" horiz-adv-x="1476" d="M31 0l612 1462h191l612 -1462h-215l-174 428h-654l-170 -428h-202zM469 592h522l-262 649z" />
<glyph unicode="B" horiz-adv-x="1292" d="M158 0v1462h516q473 0 473 -366q0 -240 -229 -328q139 -19 226 -113t87 -237q0 -84 -31.5 -157.5t-94.5 -132.5t-169 -93.5t-244 -34.5h-534zM352 164h350q330 0 330 246q0 51 -14 92t-35.5 68t-54.5 46.5t-63.5 29.5t-70 15.5t-66.5 7t-60 1.5h-316v-506zM352 834h336 q130 0 197 66.5t67 191.5q0 52 -16.5 90.5t-42 60t-64.5 34.5t-76 17t-85 4h-316v-464z" />
<glyph unicode="C" horiz-adv-x="1445" d="M80 733q0 361 185.5 562.5t502.5 201.5q245 0 397 -118.5t178 -346.5h-192q-12 82 -50 140.5t-93.5 88.5t-114 43t-125.5 13t-126.5 -12t-116 -38.5t-101.5 -72t-79 -108.5t-52.5 -153t-18.5 -200q0 -132 27 -235t72.5 -168.5t110 -108t134 -59.5t150.5 -17q68 0 130 16 t118 50.5t95 97.5t52 148h199q-31 -228 -190 -360t-404 -132q-317 0 -502.5 203t-185.5 565z" />
<glyph unicode="D" horiz-adv-x="1466" d="M158 0v1462h536q692 0 692 -729q0 -127 -23.5 -235.5t-76.5 -201t-133 -157.5t-197.5 -102t-265.5 -37h-532zM352 164h367q78 0 146 18t129 60.5t104.5 106.5t68.5 162t25 222q0 105 -17 190.5t-44.5 143t-68 101t-82 68t-93.5 39t-94.5 19t-92.5 4.5h-348v-1134z" />
<glyph unicode="E" horiz-adv-x="1200" d="M158 0v1462h915v-180h-721v-440h625v-180h-625v-482h744v-180h-938z" />
<glyph unicode="F" horiz-adv-x="1155" d="M158 0v1462h940v-180h-746v-467h647v-180h-647v-635h-194z" />
<glyph unicode="G" horiz-adv-x="1529" d="M80 750q0 121 23 228t75.5 203.5t131.5 165.5t198 109.5t268 40.5q138 0 251.5 -43t183 -111t106.5 -147t37 -158h-203q-12 118 -114.5 198.5t-260.5 80.5q-85 0 -156.5 -18t-122.5 -48t-90.5 -73.5t-64 -91.5t-40.5 -105.5t-22 -111t-6 -111.5q0 -153 38.5 -271.5 t107 -192.5t159 -111.5t199.5 -37.5q258 0 406 131v318h-408v166h602v-567q-252 -228 -600 -228q-169 0 -302 56.5t-219.5 160t-131.5 247.5t-45 321z" />
<glyph unicode="H" horiz-adv-x="1509" d="M158 0v1462h194v-622h805v622h195v-1462h-195v659h-805v-659h-194z" />
<glyph unicode="I" horiz-adv-x="509" d="M158 0v1462h194v-1462h-194z" />
<glyph unicode="J" horiz-adv-x="1050" d="M35 438h194q2 -74 12.5 -123.5t36 -90.5t72 -60t117.5 -19q116 0 173.5 71t57.5 194v1052h195v-1061q0 -95 -24.5 -173t-74.5 -137.5t-133 -92.5t-194 -33q-119 0 -203 32t-134 95t-72.5 148t-22.5 198z" />
<glyph unicode="K" horiz-adv-x="1349" d="M158 0v1462h194v-612h185l524 612h227l-592 -684q529 -635 645 -778h-241l-563 674h-185v-674h-194z" />
<glyph unicode="L" horiz-adv-x="1093" d="M158 0v1462h194v-1282h703v-180h-897z" />
<glyph unicode="M" horiz-adv-x="1726" d="M158 0v1462h229l485 -702l467 702h230v-1462h-187v1219l-464 -701h-89l-485 701v-1219h-186z" />
<glyph unicode="N" horiz-adv-x="1519" d="M158 0v1462h200l816 -1159v1159h188v-1462h-193l-827 1171v-1171h-184z" />
<glyph unicode="O" horiz-adv-x="1556" d="M80 733q0 362 186.5 563t511.5 201t512 -201t187 -563q0 -363 -187 -565.5t-512 -202.5t-511.5 202.5t-186.5 565.5zM274 733q0 -159 40.5 -276t112 -183.5t159 -97.5t192.5 -31t192.5 31t159 97.5t112 183.5t40.5 276q0 124 -27 223.5t-73 166t-111 111t-137.5 64 t-155.5 19.5t-155.5 -19.5t-137.5 -64t-111 -111t-73 -166t-27 -223.5z" />
<glyph unicode="P" horiz-adv-x="1308" d="M158 0v1462h559q65 0 125.5 -9t131.5 -38.5t122.5 -76.5t86 -131t34.5 -195q0 -222 -135.5 -351t-379.5 -129h-350v-532h-194zM352 717h383q83 0 141 23t89 65.5t44 93t13 115.5q0 268 -287 268h-383v-565z" />
<glyph unicode="Q" horiz-adv-x="1556" d="M80 733q0 362 186.5 563t511.5 201t512 -201t187 -563q0 -318 -144.5 -513t-402.5 -240q36 -74 112 -111t211 -41l-12 -176q-189 11 -310.5 86.5t-178.5 228.5q-314 8 -493 209.5t-179 556.5zM274 733q0 -159 40.5 -276t112 -183.5t159 -97.5t192.5 -31t192.5 31 t159 97.5t112 183.5t40.5 276q0 124 -27 223.5t-73 166t-111 111t-137.5 64t-155.5 19.5t-155.5 -19.5t-137.5 -64t-111 -111t-73 -166t-27 -223.5z" />
<glyph unicode="R" horiz-adv-x="1366" d="M158 0v1462h569q55 0 107 -7.5t108.5 -24.5t103.5 -48.5t85 -76.5t59.5 -112.5t21.5 -150.5q0 -167 -92 -281.5t-250 -150.5l398 -610h-230l-379 592h-307v-592h-194zM352 772h357q90 0 152.5 20.5t95.5 59t47 85t14 107.5q0 24 -4.5 47.5t-15.5 52t-33 52t-53 43.5 t-80.5 31.5t-110.5 11.5h-369v-510z" />
<glyph unicode="S" horiz-adv-x="1292" d="M88 457h195q16 -155 103 -233.5t269 -78.5q170 0 261.5 65.5t91.5 166.5q0 105 -85 166t-284 110q-69 17 -117.5 31.5t-107.5 36.5t-99 45.5t-81 58t-65 74.5t-39 94.5t-15 118.5q0 166 139.5 275.5t361.5 109.5q248 0 381.5 -122t141.5 -322h-195q-10 133 -97 198.5 t-231 65.5q-156 0 -231.5 -58.5t-75.5 -146.5q0 -104 80.5 -163t294.5 -113q143 -36 238.5 -76.5t159.5 -95t92 -124t28 -163.5q0 -173 -155.5 -292.5t-391.5 -119.5q-254 0 -407.5 132.5t-159.5 359.5z" />
<glyph unicode="T" horiz-adv-x="1169" d="M20 1282v180h1129v-180h-467v-1282h-195v1282h-467z" />
<glyph unicode="U" horiz-adv-x="1492" d="M158 539v923h194v-915q0 -108 30 -187.5t85 -125.5t124.5 -67.5t156.5 -21.5t156.5 21.5t123.5 67.5t83.5 125.5t29.5 187.5v915h194v-923q0 -274 -155 -424t-432 -150q-276 0 -433 150.5t-157 423.5z" />
<glyph unicode="V" horiz-adv-x="1409" d="M37 1462h211l461 -1274l460 1274h203l-547 -1462h-241z" />
<glyph unicode="W" horiz-adv-x="2136" d="M37 1462h219l340 -1255l358 1255h232l354 -1255q55 210 170.5 627.5t171.5 627.5h217l-434 -1462h-242l-352 1270l-360 -1270h-242z" />
<glyph unicode="X" horiz-adv-x="1359" d="M37 0l526 758l-497 704h231l387 -557l383 557h219l-498 -704l535 -758h-231l-416 623l-416 -623h-223z" />
<glyph unicode="Y" horiz-adv-x="1359" d="M25 1462h235l432 -696l416 696h225l-545 -854v-608h-194v604z" />
<glyph unicode="Z" horiz-adv-x="1208" d="M63 0v133l820 1149h-766v180h1016v-143l-811 -1139h821v-180h-1080z" />
<glyph unicode="[" d="M201 -406v1903h401v-139h-237v-1624h237v-140h-401z" />
<glyph unicode="\" horiz-adv-x="755" d="M0 1497h139l617 -1532h-142z" />
<glyph unicode="]" d="M80 -266h237v1624h-237v139h401v-1903h-401v140z" />
<glyph unicode="^" horiz-adv-x="1196" d="M66 496l477 931h112l475 -931h-135l-397 780l-395 -780h-137z" />
<glyph unicode="_" horiz-adv-x="1138" d="M0 -154h1139v-102h-1139v102z" />
<glyph unicode="`" d="M133 1497h240l176 -293h-129z" />
<glyph unicode="a" horiz-adv-x="1118" d="M74 272q0 191 154 268q149 74 497 74h27v119q0 98 -64.5 148.5t-181.5 50.5q-115 0 -173.5 -47.5t-60.5 -134.5h-172v11q0 69 24 125q26 62 68 100t97.5 64.5t109 37t105.5 10.5q197 0 314.5 -94.5t117.5 -262.5v-518q0 -47 27 -69q23 -18 81 -18q11 0 23 1v-151 q-52 -9 -99 -9q-18 -1 -34 1q-60 4 -107 39.5t-65 99.5q-58 -66 -152 -104t-207 -38q-145 0 -237 77.5t-92 219.5zM258 283q0 -70 52.5 -106t144.5 -36q86 0 166.5 34t130.5 91v207q-195 -3 -300 -21.5t-149.5 -58t-44.5 -110.5z" />
<glyph unicode="b" horiz-adv-x="1118" d="M117 94v1368h172v-508q114 144 317 144q202 0 321.5 -145t119.5 -375q0 -133 -29.5 -237t-79.5 -172t-121.5 -112.5t-150.5 -63t-170 -18.5q-134 0 -221 31.5t-158 87.5zM289 195q89 -54 205 -54q181 0 274.5 111t93.5 319q0 93 -29.5 173t-94.5 134t-156 54 q-109 0 -181.5 -49.5t-111.5 -124.5v-563z" />
<glyph unicode="c" horiz-adv-x="1081" d="M72 547q0 112 30 208.5t89.5 174.5t161 123t233.5 45q104 0 190.5 -34.5t140 -90t82.5 -121.5t29 -133h-178q-9 94 -82 152.5t-182 58.5q-330 0 -330 -383q0 -193 82.5 -299.5t247.5 -106.5q122 0 190 56t80 163h178q-2 -54 -21.5 -108t-57.5 -104t-89 -88.5t-122 -61.5 t-152 -23q-247 0 -383.5 153.5t-136.5 418.5z" />
<glyph unicode="d" horiz-adv-x="1132" d="M72 563q0 156 64.5 279t174.5 189.5t244 66.5q171 0 287 -97v461h174v-1462h-168v94q-110 -119 -283 -119q-74 0 -142 18t-133 62t-112.5 109.5t-76.5 168t-29 230.5zM256 557q0 -189 78 -302.5t241 -113.5q87 0 155.5 37t111.5 101v542q-34 42 -106 76.5t-175 34.5 q-149 0 -227 -103.5t-78 -271.5z" />
<glyph unicode="e" horiz-adv-x="1064" d="M72 541q0 259 135 408t358 149q111 0 194 -26.5t132 -73.5t72.5 -105.5t23.5 -126.5q0 -162 -110 -246t-332 -84q-178 0 -291 27q33 -311 362 -311q194 0 312 77l65 -155q-73 -44 -183 -71.5t-212 -27.5q-250 0 -388 147t-138 419zM254 625q135 -21 285 -21 q142 0 204 33.5t62 122.5q0 83 -63 129.5t-171 46.5q-142 0 -222.5 -83t-94.5 -228z" />
<glyph unicode="f" horiz-adv-x="669" d="M59 934v139h134v123q0 153 93.5 227t250.5 74q90 0 182 -14v-154q-93 14 -174 14q-92 0 -135 -35t-43 -122v-113h313v-139h-313v-934h-174v934h-134z" />
<glyph unicode="g" horiz-adv-x="1101" d="M47 -90q0 95 51.5 164t139.5 102q-76 60 -76 160q0 67 49 131q-102 105 -102 270q0 169 112.5 265t310.5 96q95 0 175 -25h364v-147h-182q61 -61 61 -189q0 -178 -111.5 -279.5t-306.5 -101.5q-124 0 -210 39q-13 -29 -13 -51q0 -46 39.5 -74t118.5 -28h244 q162 0 261 -83t99 -245t-131 -255t-377 -93q-254 0 -385 88t-131 256zM221 -84q0 -199 344 -199q54 0 98 4.5t89 17t75.5 33.5t50 56t19.5 82q0 102 -66 147t-196 45h-168q-123 0 -184.5 -49.5t-61.5 -136.5zM283 737q0 -109 65 -170t184 -61q116 0 180 61t64 170 q0 100 -63.5 155.5t-180.5 55.5q-119 0 -184 -55.5t-65 -155.5z" />
<glyph unicode="h" horiz-adv-x="1150" d="M133 0v1462h174v-532q113 168 340 168q181 0 276 -103t95 -270v-725h-174v717q0 105 -62.5 160t-181.5 55q-101 0 -180 -57t-113 -130v-745h-174z" />
<glyph unicode="i" horiz-adv-x="448" d="M111 1370q0 47 34 82t80 35q43 0 77 -35t34 -82q0 -51 -33.5 -86t-77.5 -35q-47 0 -80.5 34.5t-33.5 86.5zM137 0v1073h174v-1073h-174z" />
<glyph unicode="j" horiz-adv-x="448" d="M-70 -238h47q97 0 128.5 46.5t31.5 154.5v1110h174v-1145q0 -319 -336 -319q-31 0 -45 2v151zM111 1370q0 47 34 82t80 35q43 0 77 -35t34 -82q0 -51 -33.5 -86t-77.5 -35q-47 0 -80.5 34.5t-33.5 86.5z" />
<glyph unicode="k" horiz-adv-x="1036" d="M137 0v1462h174v-784h176l347 395h202l-424 -481l424 -592h-211l-358 514h-156v-514h-174z" />
<glyph unicode="l" horiz-adv-x="509" d="M133 203v1259h174v-1220q0 -55 32.5 -84t94.5 -29q25 0 35 2v-145q-57 -11 -96 -11q-109 0 -174.5 56t-65.5 172z" />
<glyph unicode="m" horiz-adv-x="1787" d="M133 0v1073h168v-143q45 72 126.5 120t203.5 48q120 0 200.5 -52.5t118.5 -146.5q67 101 150.5 150t204.5 49q171 0 260.5 -103t89.5 -270v-725h-174v717q0 105 -57.5 160t-166.5 55q-95 0 -169.5 -57.5t-106.5 -129.5v-745h-174v717q0 106 -57 160.5t-166 54.5 q-95 0 -170 -57.5t-107 -129.5v-745h-174z" />
<glyph unicode="n" horiz-adv-x="1150" d="M133 0v1073h168v-143q113 168 346 168q181 0 276 -103t95 -270v-725h-174v717q0 105 -62.5 160t-181.5 55q-101 0 -180 -57t-113 -130v-745h-174z" />
<glyph unicode="o" horiz-adv-x="1171" d="M72 535q0 265 135.5 414t378.5 149q241 0 377.5 -149.5t136.5 -413.5q0 -262 -136.5 -411t-377.5 -149q-242 0 -378 149t-136 411zM256 535q0 -184 85 -289t245 -105t244.5 105t84.5 289q0 186 -84.5 291.5t-244.5 105.5t-245 -105.5t-85 -291.5z" />
<glyph unicode="p" horiz-adv-x="1153" d="M119 -391v1423q226 66 411 66q145 0 252.5 -40.5t169.5 -114.5t91.5 -168t29.5 -212q0 -133 -30.5 -236t-81.5 -168.5t-124.5 -107.5t-152.5 -59t-172 -17q-130 0 -219 52v-418h-174zM293 186q109 -45 221 -45q183 0 279 106t96 310q0 75 -18.5 139.5t-57 118.5 t-106.5 85.5t-158 31.5q-147 0 -256 -33v-713z" />
<glyph unicode="q" horiz-adv-x="1138" d="M72 567q0 245 148 388t401 143q89 0 187 -17.5t151 -34.5l53 -18v-1419h-174v422q-41 -27 -102.5 -41.5t-121.5 -14.5q-91 0 -168.5 18.5t-147.5 62.5t-119.5 110.5t-78 168.5t-28.5 232zM256 563q0 -212 93 -317t272 -105q121 0 217 52v708q-127 31 -232 31 q-162 0 -256 -103t-94 -266z" />
<glyph unicode="r" horiz-adv-x="718" d="M133 0v1073h170v-166q54 91 146.5 141t179.5 50q32 0 90 -8v-158h-53q-238 0 -359 -174v-758h-174z" />
<glyph unicode="s" horiz-adv-x="1032" d="M66 334h174q10 -100 79.5 -146.5t204.5 -46.5q116 0 183 37.5t67 100.5q0 68 -73 111t-226 77q-78 17 -129.5 32.5t-104.5 41.5t-83 58.5t-49 82.5t-19 115q0 129 111.5 215t292.5 86q196 0 307 -88.5t117 -249.5h-175q-13 172 -249 172q-109 0 -164.5 -38t-55.5 -97 q0 -71 56.5 -102t234.5 -74q211 -51 302 -129.5t91 -212.5q0 -128 -124.5 -216t-309.5 -88q-207 0 -330.5 94.5t-127.5 264.5z" />
<glyph unicode="t" horiz-adv-x="722" d="M0 934v55l260 283h51v-199h340v-139h-340v-586q0 -123 46 -172t149 -49q118 0 192 12v-137q-92 -27 -213 -27q-52 0 -97.5 8.5t-93 31.5t-81 60t-55 99t-21.5 143v617h-137z" />
<glyph unicode="u" horiz-adv-x="1159" d="M139 350v723h174v-672q0 -57 10 -101t34.5 -81.5t70.5 -57.5t113 -20q112 0 194.5 59.5t112.5 129.5v743h174v-1073h-168v152q-41 -72 -124.5 -124.5t-207.5 -52.5q-103 0 -178.5 28t-119.5 80t-64.5 118t-20.5 149z" />
<glyph unicode="v" horiz-adv-x="1021" d="M16 1073h203l295 -860q51 143 150.5 430t150.5 430h191l-406 -1073h-182z" />
<glyph unicode="w" horiz-adv-x="1671" d="M29 1073h202l263 -852l254 852h188l258 -852l262 852h189l-357 -1073h-184l-264 823q-46 -153 -134.5 -434t-121.5 -389h-189z" />
<glyph unicode="x" horiz-adv-x="1056" d="M23 0l391 545l-367 528h213l264 -391l277 391h207l-375 -518l403 -555h-225l-295 412l-283 -412h-210z" />
<glyph unicode="y" horiz-adv-x="1034" d="M23 1073h196l326 -852l282 852h185q-49 -136 -101 -282.5t-83.5 -235t-66 -185t-54 -150t-40.5 -112t-32.5 -89t-23.5 -62.5t-20 -51.5t-16 -38.5q-55 -125 -147 -191.5t-215 -66.5q-55 0 -102 8v156q41 -4 98 -4q145 0 242 241z" />
<glyph unicode="z" horiz-adv-x="968" d="M63 0v129l594 791h-563v153h783v-131l-590 -788h618v-154h-842z" />
<glyph unicode="{" d="M92 487v115q49 1 81 14.5t45.5 37t17.5 43t4 48.5v435q0 174 72.5 245.5t234.5 71.5h41v-123h-33q-86 0 -119 -39t-33 -121v-450q0 -46 -9.5 -81t-31 -60t-41 -40t-53.5 -36q66 -36 100.5 -84.5t34.5 -136.5v-443q0 -83 33.5 -124.5t118.5 -41.5h33v-125h-41 q-162 0 -234.5 72t-72.5 246v434q0 29 -4 48.5t-17.5 43t-45.5 37t-81 14.5z" />
<glyph unicode="|" horiz-adv-x="532" d="M197 -512v2050h137v-2050h-137z" />
<glyph unicode="}" d="M92 -283h33q85 0 118 41t33 125v443q0 61 20 106t46.5 68t69.5 47q-34 21 -53.5 36t-41 40t-31.5 60t-10 81v450q0 83 -33 121.5t-118 38.5h-33v123h41q162 0 234.5 -71.5t72.5 -245.5v-435q0 -29 4 -48.5t17.5 -43t45.5 -37t81 -14.5v-115q-49 -1 -81 -14.5t-45.5 -37 t-17.5 -43t-4 -48.5v-434q0 -174 -72.5 -246t-234.5 -72h-41v125z" />
<glyph unicode="~" horiz-adv-x="1196" d="M92 485q63 74 129 117t156 43q48 0 111.5 -24t164.5 -72q106 -53 170 -53q102 0 236 141l43 -105q-133 -159 -281 -159q-56 0 -107.5 16t-140.5 66q-114 65 -192 65q-128 0 -244 -141z" />
<glyph unicode="&#xa1;" horiz-adv-x="569" d="M164 899q0 48 36 84.5t85 36.5q50 0 85.5 -36.5t35.5 -84.5q0 -49 -36 -85t-85 -36q-47 0 -84 36t-37 85zM186 27l62 606h71l62 -606v-482h-195v482z" />
<glyph unicode="&#xa2;" horiz-adv-x="1187" d="M115 543q0 105 26.5 196.5t80.5 166.5t144.5 122t208.5 55v195h80v-193q96 -5 175.5 -40t129.5 -88t77.5 -116t27.5 -126h-176q-9 78 -74 134.5t-160 63.5v-768q105 7 166.5 63.5t73.5 149.5h176q-3 -66 -32 -131t-80 -120t-130.5 -91.5t-173.5 -40.5v-213h-80v218 q-220 17 -340 166t-120 397zM297 543q0 -169 70 -275t208 -121v766q-278 -28 -278 -370z" />
<glyph unicode="&#xa3;" horiz-adv-x="1187" d="M74 98q221 162 221 363q0 103 -53 188h-144v90h113q-107 205 -107 328q0 176 134.5 280.5t336.5 104.5q222 0 348 -132.5t126 -340.5h-168q0 146 -86 224.5t-222 78.5q-128 0 -203 -60.5t-75 -160.5q0 -113 115 -322h338v-90h-308q2 -10 7 -30.5t7.5 -36.5t2.5 -33 q0 -121 -33 -209.5t-133 -179.5l4 -4q41 30 70.5 38.5t66.5 8.5q77 0 192.5 -30t209.5 -30q61 0 101.5 22.5t102.5 82.5l74 -139q-139 -134 -295 -134q-89 0 -233 41t-211 41q-59 0 -108 -21t-111 -61z" />
<glyph unicode="&#xa4;" horiz-adv-x="1187" d="M90 328l115 114q-90 139 -90 277q0 155 88 276q-75 80 -113 113l109 115l116 -117q140 94 279 94q83 0 147.5 -23t130.5 -71l113 113l111 -113l-113 -111q48 -66 70 -131t22 -149q0 -85 -21 -148t-69 -129l109 -108l-107 -115l-115 113q-124 -90 -280 -90q-153 0 -277 90 l-112 -113zM279 721q0 -143 92.5 -240.5t222.5 -97.5q132 0 224.5 98t92.5 236t-91.5 238t-223.5 100q-135 0 -226 -100t-91 -234z" />
<glyph unicode="&#xa5;" horiz-adv-x="1187" d="M-16 1462h219l403 -723l391 723h209l-397 -706h205v-123h-279l-39 -68v-86h318v-123h-318v-356h-196v356h-310v123h310v86l-39 68h-271v123h201z" />
<glyph unicode="&#xa6;" horiz-adv-x="532" d="M195 -244v676h141v-676h-141zM195 739v676h141v-676h-141z" />
<glyph unicode="&#xa7;" horiz-adv-x="1138" d="M74 698q0 82 47.5 142t142.5 114q-78 98 -78 207q0 141 104.5 239.5t274.5 98.5q48 0 97 -10.5t101.5 -38t93.5 -68.5t71 -107.5t37 -150.5h-168q-3 45 -29 92.5t-80 85t-123 37.5q-82 0 -144.5 -47t-62.5 -125q0 -36 15.5 -70t36.5 -58t57 -51.5t62 -43t68.5 -40 t59.5 -34.5q51 -31 87.5 -54.5t89 -62t88.5 -75.5t71 -82t52.5 -95.5t17.5 -103.5q0 -80 -43.5 -140t-130.5 -114q61 -87 61 -206q0 -140 -105 -239t-274 -99q-48 0 -97 11t-101 38t-93.5 68.5t-71.5 108t-38 150.5h168q2 -34 18.5 -70.5t44.5 -69t73 -54t97 -21.5 q81 0 144 47t63 123q0 66 -68 127.5t-292 212.5q-50 34 -77.5 53t-69.5 51.5t-65.5 55.5t-52.5 56.5t-43.5 64t-25 69t-10.5 78.5zM240 696q0 -68 69.5 -136.5t198.5 -151.5l256 -177q46 23 89.5 71t43.5 97q0 28 -15.5 58.5t-37 55.5t-62 59t-71 56t-84.5 60l-254 178 q-65 -32 -99 -72t-34 -98z" />
<glyph unicode="&#xa8;" d="M37 1333q0 47 34.5 82t80.5 35q43 0 76.5 -35t33.5 -82q0 -51 -33 -86t-77 -35q-47 0 -81 34.5t-34 86.5zM416 1333q0 47 34 82t80 35q43 0 77 -35t34 -82q0 -51 -33.5 -86t-77.5 -35q-47 0 -80.5 34.5t-33.5 86.5z" />
<glyph unicode="&#xa9;" horiz-adv-x="1638" d="M59 731q0 154 57 294t156.5 244.5t242 166t304.5 61.5q163 0 305.5 -61.5t241.5 -166t156 -244.5t57 -294q0 -155 -57 -295.5t-156 -245t-241.5 -166t-305.5 -61.5q-162 0 -304.5 62t-242 166t-156.5 245t-57 295zM195 731q0 -133 47.5 -251.5t129.5 -204.5t198.5 -136.5 t248.5 -50.5q133 0 250 50.5t199.5 136.5t130 204.5t47.5 251.5t-47.5 251t-130 204t-199.5 136t-250 50q-132 0 -248.5 -50t-198.5 -136t-129.5 -204t-47.5 -251zM387 741q0 98 25.5 182.5t77 153.5t139.5 108.5t205 39.5q85 0 156.5 -30t117 -78.5t72 -106.5t30.5 -117 h-129q-19 85 -83 144t-164 59q-310 0 -310 -351q0 -177 79.5 -280t236.5 -103q92 0 159.5 61t87.5 161h130q-19 -148 -122 -248t-255 -100q-217 0 -335 134.5t-118 370.5z" />
<glyph unicode="&#xaa;" horiz-adv-x="714" d="M51 961q0 109 90 157.5t314 48.5q0 35 -1.5 56t-8.5 46t-20 39t-37.5 23.5t-59.5 9.5q-123 0 -123 -133h-131q0 63 21.5 112t58.5 76.5t80.5 41.5t91.5 14q124 0 192 -59t68 -166v-295q0 -28 13 -39.5t44 -11.5h21v-107q-36 -4 -68 -4q-98 0 -125 74q-77 -74 -209 -74 q-90 0 -150.5 50t-60.5 141zM186 963q0 -39 28.5 -60.5t70.5 -21.5q51 0 99 22t71 58v102q-158 -4 -213.5 -26t-55.5 -74z" />
<glyph unicode="&#xab;" horiz-adv-x="903" d="M78 487v136l395 344v-179l-276 -235l276 -229v-179zM430 487v136l395 344v-179l-276 -235l276 -229v-179z" />
<glyph unicode="&#xac;" horiz-adv-x="1196" d="M90 655v140h1014v-553h-139v413h-875z" />
<glyph unicode="&#xad;" d="M90 475v184h502v-184h-502z" />
<glyph unicode="&#xae;" horiz-adv-x="1638" d="M59 731q0 153 59.5 294t160.5 244.5t242 165.5t296 62q156 0 297.5 -62t242.5 -165.5t160.5 -244.5t59.5 -294t-59.5 -294t-160.5 -244.5t-242.5 -165.5t-297.5 -62q-155 0 -296 62t-242 165.5t-160.5 244.5t-59.5 294zM195 731q0 -132 49.5 -251t133 -204.5 t198.5 -135.5t241 -50q171 0 315 85t228 232.5t84 323.5q0 132 -49.5 251.5t-134 204.5t-200 135t-243.5 50q-126 0 -241 -50t-198.5 -135t-133 -204.5t-49.5 -251.5zM502 268v928h293q141 0 217.5 -27t106.5 -83t30 -158q0 -101 -59 -170t-172 -101q59 -80 143 -188 l147 -201h-161l-281 371h-131v-371h-133zM635 764h119q153 0 205.5 35.5t52.5 124.5q0 42 -10 69.5t-26.5 43.5t-52.5 24t-70.5 10t-98.5 2h-119v-309z" />
<glyph unicode="&#xaf;" d="M12 1270v112h658v-112h-658z" />
<glyph unicode="&#xb0;" horiz-adv-x="819" d="M115 1157q0 126 84 210.5t209 84.5q126 0 210 -84.5t84 -210.5q0 -125 -84 -209t-210 -84q-124 0 -208.5 84t-84.5 209zM225 1157q0 -79 53 -135.5t130 -56.5q80 0 132 56t52 136q0 83 -51.5 139t-132.5 56q-78 0 -130.5 -56.5t-52.5 -138.5z" />
<glyph unicode="&#xb1;" horiz-adv-x="1196" d="M90 0v139h1014v-139h-1014zM90 555v139h447v340h139v-340h428v-139h-428v-342h-139v342h-447z" />
<glyph unicode="&#xb2;" horiz-adv-x="757" d="M84 573v21q0 56 19 108.5t57.5 101.5t79.5 88.5t102 90.5q95 79 139.5 130.5t44.5 103.5q0 51 -32 85.5t-105 34.5q-68 0 -110.5 -37t-51.5 -96h-125q5 63 33 112t69.5 77.5t88.5 42.5t96 14q127 0 198.5 -57t71.5 -170q0 -47 -16.5 -90.5t-50 -83t-63 -66.5t-74.5 -63 l-41 -33q-51 -43 -80 -70.5t-57.5 -64.5t-32.5 -66h430v-113h-590z" />
<glyph unicode="&#xb3;" horiz-adv-x="757" d="M82 819h127q5 -63 48 -106t118 -43q81 0 122.5 44t41.5 101q0 74 -57 110t-140 36h-106v114h102q94 0 139 39t45 96t-46.5 92t-108.5 35q-141 0 -150 -139h-129q-1 53 15.5 97t44.5 72.5t65 48t74.5 28t74.5 8.5q129 0 211 -57.5t82 -169.5q0 -21 -3.5 -42t-14.5 -52.5 t-38.5 -60t-68.5 -46.5q144 -60 144 -217q0 -110 -89 -181t-214 -71q-47 0 -94.5 13.5t-92.5 42.5t-73.5 83t-28.5 125z" />
<glyph unicode="&#xb4;" d="M133 1204l176 293h240l-287 -293h-129z" />
<glyph unicode="&#xb5;" horiz-adv-x="1159" d="M139 -422v1495h174v-672q0 -57 10 -101t34.5 -81.5t70.5 -57.5t113 -20q112 0 194.5 59.5t112.5 129.5v743h174v-1073h-168v152q-41 -72 -124.5 -124.5t-207.5 -52.5q-120 0 -209 62v-459h-174z" />
<glyph unicode="&#xb6;" horiz-adv-x="1138" d="M113 1067q0 183 109 289t310 106h492v-1822h-129v1693h-244v-1693h-129v1032q-193 3 -301 114.5t-108 280.5z" />
<glyph unicode="&#xb7;" horiz-adv-x="471" d="M104 639q0 52 39.5 90.5t92.5 38.5q52 0 90.5 -38t38.5 -91t-38.5 -92t-90.5 -39q-54 0 -93 39t-39 92z" />
<glyph unicode="&#xb8;" d="M121 -434l29 76q67 -39 165 -39q113 0 113 94q0 56 -31.5 75t-81.5 19q-87 0 -143 -33l-29 78q99 51 201 51q106 0 161.5 -45t55.5 -145q0 -97 -61.5 -141.5t-169.5 -44.5q-106 0 -209 55z" />
<glyph unicode="&#xb9;" horiz-adv-x="757" d="M147 1272l246 180h92v-877h-143v699l-137 -96z" />
<glyph unicode="&#xba;" horiz-adv-x="729" d="M51 1114q0 64 16.5 121.5t51.5 107.5t98 79.5t148 29.5q70 0 124.5 -19t89.5 -50.5t57.5 -75.5t32 -91.5t9.5 -101.5q0 -69 -17 -129t-52.5 -109.5t-98 -78.5t-145.5 -29q-152 0 -233 94.5t-81 251.5zM186 1118q0 -107 44.5 -173t131.5 -66q91 0 137 66t46 173 q0 28 -3.5 54.5t-15 58.5t-30.5 55t-53.5 39t-80.5 16q-55 0 -92.5 -22.5t-54.5 -60t-23 -70.5t-6 -70z" />
<glyph unicode="&#xbb;" horiz-adv-x="903" d="M78 145v179l276 229l-276 235v179l395 -344v-136zM430 145v179l277 229l-277 235v179l395 -344v-136z" />
<glyph unicode="&#xbc;" horiz-adv-x="1708" d="M125 1272l246 180h92v-877h-144v699l-137 -96zM289 -57l891 1542h131l-891 -1542h-131zM940 201v104l375 572h147v-564h119v-112h-119v-201h-119v201h-403zM1085 313h258v389z" />
<glyph unicode="&#xbd;" horiz-adv-x="1708" d="M98 1272l246 180h92v-877h-143v699l-137 -96zM262 -57l891 1542h131l-891 -1542h-131zM1018 0v20q0 56 19 108.5t57.5 102t79.5 89t102 90.5q96 79 140 130t44 103q0 51 -32 86t-105 35q-68 0 -110.5 -37t-51.5 -96h-125q5 63 33 112t69.5 77.5t88.5 42.5t96 14 q126 0 198 -57.5t72 -170.5q0 -28 -7.5 -55.5t-16 -48t-28 -47t-31.5 -41t-40 -40.5t-39 -35.5t-42 -35.5l-41 -33q-160 -123 -170 -200h430v-113h-590z" />
<glyph unicode="&#xbe;" horiz-adv-x="1708" d="M111 819h127q5 -63 47.5 -106t117.5 -43q81 0 122.5 44t41.5 101q0 74 -56.5 110t-139.5 36h-107v114h103q94 0 139 39t45 96t-47 92t-109 35q-140 0 -149 -139h-129q-1 53 15.5 97t44.5 72.5t65 48t74.5 28t74.5 8.5q129 0 211 -57.5t82 -169.5q0 -21 -3.5 -42 t-14.5 -52.5t-38.5 -60t-68.5 -46.5q143 -60 143 -217q0 -110 -89 -181t-214 -71q-47 0 -94 13.5t-92.5 42.5t-73.5 83t-28 125zM403 -57l891 1542h131l-890 -1542h-132zM956 201v104l375 572h148v-564h118v-112h-118v-201h-119v201h-404zM1102 313h258v389z" />
<glyph unicode="&#xbf;" horiz-adv-x="1138" d="M109 -109q0 107 47.5 183t148.5 166q66 59 99 94t60.5 82.5t36.5 101t9 133.5h162q2 -39 2 -106q0 -56 -10.5 -101.5t-26 -79.5t-49.5 -73.5t-65 -68.5t-89 -79q-77 -67 -108 -118t-31 -119q0 -105 78 -167.5t190 -62.5q126 0 209.5 75t83.5 204h174q0 -109 -39 -196 t-105 -141t-149 -82t-176 -28q-202 0 -327 98t-125 285zM467 899q0 48 35.5 84.5t85.5 36.5q49 0 85 -36.5t36 -84.5q0 -49 -37 -85t-84 -36q-50 0 -85.5 36t-35.5 85z" />
<glyph unicode="&#xc0;" horiz-adv-x="1476" d="M31 0l612 1462h191l612 -1462h-215l-174 428h-654l-170 -428h-202zM446 1860h240l176 -293h-129zM469 592h522l-262 649z" />
<glyph unicode="&#xc1;" horiz-adv-x="1476" d="M31 0l612 1462h191l612 -1462h-215l-174 428h-654l-170 -428h-202zM469 592h522l-262 649zM612 1567l176 293h240l-287 -293h-129z" />
<glyph unicode="&#xc2;" horiz-adv-x="1476" d="M31 0l612 1462h191l612 -1462h-215l-174 428h-654l-170 -428h-202zM426 1567l223 293h164l223 -293h-157l-148 198l-147 -198h-158zM469 592h522l-262 649z" />
<glyph unicode="&#xc3;" horiz-adv-x="1476" d="M31 0l612 1462h191l612 -1462h-215l-174 428h-654l-170 -428h-202zM401 1567q0 96 52.5 165.5t142.5 69.5q60 0 186 -67q75 -39 105 -39q23 0 37 28.5t14 69.5h137q0 -94 -51 -164.5t-143 -70.5q-76 0 -166 53q-86 51 -125 51q-23 0 -36 -28t-13 -68h-140zM469 592h522 l-262 649z" />
<glyph unicode="&#xc4;" horiz-adv-x="1476" d="M31 0l612 1462h191l612 -1462h-215l-174 428h-654l-170 -428h-202zM434 1696q0 47 34.5 81.5t80.5 34.5q43 0 76.5 -34.5t33.5 -81.5q0 -51 -33 -86t-77 -35q-47 0 -81 34.5t-34 86.5zM469 592h522l-262 649zM813 1696q0 47 34.5 81.5t80.5 34.5q43 0 76.5 -34.5 t33.5 -81.5q0 -51 -33 -86t-77 -35q-47 0 -81 34.5t-34 86.5z" />
<glyph unicode="&#xc5;" horiz-adv-x="1476" d="M31 0l612 1462h191l612 -1462h-215l-174 428h-654l-170 -428h-202zM469 592h522l-262 649zM506 1739q0 104 64 170.5t169 66.5q103 0 166.5 -66.5t63.5 -170.5q0 -96 -65 -161t-165 -65q-102 0 -167.5 65t-65.5 161zM600 1741q0 -53 39 -94t100 -41q59 0 98.5 41t39.5 94 q0 59 -39 102t-99 43q-61 0 -100 -43t-39 -102z" />
<glyph unicode="&#xc6;" horiz-adv-x="1923" d="M31 0l686 1462h1079v-180h-680v-440h584v-180h-584v-482h703v-180h-897v418h-502l-184 -418h-205zM500 598h422v684h-117z" />
<glyph unicode="&#xc7;" horiz-adv-x="1445" d="M80 733q0 361 185.5 562.5t502.5 201.5q245 0 397 -118.5t178 -346.5h-192q-12 82 -50 140.5t-93.5 88.5t-114 43t-125.5 13t-126.5 -12t-116 -38.5t-101.5 -72t-79 -108.5t-52.5 -153t-18.5 -200q0 -132 27 -235t72.5 -168.5t110 -108t134 -59.5t150.5 -17q68 0 130 16 t118 50.5t95 97.5t52 148h199q-31 -228 -190 -360t-404 -132q-317 0 -502.5 203t-185.5 565zM518 -434l29 76q67 -39 166 -39q112 0 112 94q0 56 -31.5 75t-80.5 19q-88 0 -144 -33l-28 78q99 51 200 51q106 0 161.5 -45t55.5 -145q0 -97 -61.5 -141.5t-169.5 -44.5 q-106 0 -209 55z" />
<glyph unicode="&#xc8;" horiz-adv-x="1200" d="M158 0v1462h915v-180h-721v-440h625v-180h-625v-482h744v-180h-938zM287 1860h239l176 -293h-129z" />
<glyph unicode="&#xc9;" horiz-adv-x="1200" d="M158 0v1462h915v-180h-721v-440h625v-180h-625v-482h744v-180h-938zM451 1567l176 293h239l-286 -293h-129z" />
<glyph unicode="&#xca;" horiz-adv-x="1200" d="M158 0v1462h915v-180h-721v-440h625v-180h-625v-482h744v-180h-938zM322 1567l223 293h164l223 -293h-158l-147 198l-148 -198h-157z" />
<glyph unicode="&#xcb;" horiz-adv-x="1200" d="M158 0v1462h915v-180h-721v-440h625v-180h-625v-482h744v-180h-938zM324 1696q0 47 34 81.5t80 34.5q43 0 77 -34.5t34 -81.5q0 -51 -33.5 -86t-77.5 -35q-47 0 -80.5 34.5t-33.5 86.5zM702 1696q0 47 34.5 81.5t80.5 34.5q43 0 77 -34.5t34 -81.5q0 -51 -33.5 -86 t-77.5 -35q-47 0 -81 34.5t-34 86.5z" />
<glyph unicode="&#xcc;" horiz-adv-x="509" d="M-35 1860h240l176 -293h-129zM158 0v1462h194v-1462h-194z" />
<glyph unicode="&#xcd;" horiz-adv-x="509" d="M131 1567l176 293h240l-287 -293h-129zM158 0v1462h194v-1462h-194z" />
<glyph unicode="&#xce;" horiz-adv-x="509" d="M-47 1567l223 293h164l223 -293h-157l-148 198l-147 -198h-158zM158 0v1462h194v-1462h-194z" />
<glyph unicode="&#xcf;" horiz-adv-x="509" d="M-47 1696q0 47 34.5 81.5t80.5 34.5q43 0 76.5 -34.5t33.5 -81.5q0 -51 -33 -86t-77 -35q-47 0 -81 34.5t-34 86.5zM158 0v1462h194v-1462h-194zM332 1696q0 47 34 81.5t80 34.5q43 0 77 -34.5t34 -81.5q0 -51 -33.5 -86t-77.5 -35q-47 0 -80.5 34.5t-33.5 86.5z" />
<glyph unicode="&#xd0;" horiz-adv-x="1466" d="M14 694v140h144v628h536q692 0 692 -729q0 -127 -23.5 -235.5t-76.5 -201t-133 -157.5t-197.5 -102t-265.5 -37h-532v694h-144zM352 180h367q99 0 181 29.5t149 92.5t105 172.5t38 258.5q0 101 -17 183.5t-44.5 138.5t-68 98t-82.5 66.5t-93.5 39t-94.5 19t-92 4.5h-348 v-448h439v-140h-439v-514z" />
<glyph unicode="&#xd1;" horiz-adv-x="1519" d="M158 0v1462h200l816 -1159v1159h188v-1462h-193l-827 1171v-1171h-184zM424 1585q0 96 52.5 166t141.5 70q59 0 187 -68q75 -39 104 -39q23 0 37.5 28.5t14.5 69.5h137q0 -94 -51.5 -164.5t-143.5 -70.5q-76 0 -166 53q-86 51 -125 51q-23 0 -36 -28t-13 -68h-139z" />
<glyph unicode="&#xd2;" horiz-adv-x="1556" d="M80 733q0 362 186.5 563t511.5 201t512 -201t187 -563q0 -363 -187 -565.5t-512 -202.5t-511.5 202.5t-186.5 565.5zM274 733q0 -159 40.5 -276t112 -183.5t159 -97.5t192.5 -31t192.5 31t159 97.5t112 183.5t40.5 276q0 124 -27 223.5t-73 166t-111 111t-137.5 64 t-155.5 19.5t-155.5 -19.5t-137.5 -64t-111 -111t-73 -166t-27 -223.5zM489 1860h240l176 -293h-129z" />
<glyph unicode="&#xd3;" horiz-adv-x="1556" d="M80 733q0 362 186.5 563t511.5 201t512 -201t187 -563q0 -363 -187 -565.5t-512 -202.5t-511.5 202.5t-186.5 565.5zM274 733q0 -159 40.5 -276t112 -183.5t159 -97.5t192.5 -31t192.5 31t159 97.5t112 183.5t40.5 276q0 124 -27 223.5t-73 166t-111 111t-137.5 64 t-155.5 19.5t-155.5 -19.5t-137.5 -64t-111 -111t-73 -166t-27 -223.5zM655 1567l176 293h240l-287 -293h-129z" />
<glyph unicode="&#xd4;" horiz-adv-x="1556" d="M80 733q0 362 186.5 563t511.5 201t512 -201t187 -563q0 -363 -187 -565.5t-512 -202.5t-511.5 202.5t-186.5 565.5zM274 733q0 -159 40.5 -276t112 -183.5t159 -97.5t192.5 -31t192.5 31t159 97.5t112 183.5t40.5 276q0 124 -27 223.5t-73 166t-111 111t-137.5 64 t-155.5 19.5t-155.5 -19.5t-137.5 -64t-111 -111t-73 -166t-27 -223.5zM473 1567l223 293h164l223 -293h-157l-148 198l-147 -198h-158z" />
<glyph unicode="&#xd5;" horiz-adv-x="1556" d="M80 733q0 362 186.5 563t511.5 201t512 -201t187 -563q0 -363 -187 -565.5t-512 -202.5t-511.5 202.5t-186.5 565.5zM274 733q0 -159 40.5 -276t112 -183.5t159 -97.5t192.5 -31t192.5 31t159 97.5t112 183.5t40.5 276q0 124 -27 223.5t-73 166t-111 111t-137.5 64 t-155.5 19.5t-155.5 -19.5t-137.5 -64t-111 -111t-73 -166t-27 -223.5zM440 1585q0 96 52.5 166t142.5 70q27 0 61 -11t58 -22.5t67 -34.5q75 -39 105 -39q23 0 37 28.5t14 69.5h137q0 -94 -51 -164.5t-143 -70.5q-76 0 -166 53q-86 51 -125 51q-23 0 -36 -28t-13 -68h-140z " />
<glyph unicode="&#xd6;" horiz-adv-x="1556" d="M80 733q0 362 186.5 563t511.5 201t512 -201t187 -563q0 -363 -187 -565.5t-512 -202.5t-511.5 202.5t-186.5 565.5zM274 733q0 -159 40.5 -276t112 -183.5t159 -97.5t192.5 -31t192.5 31t159 97.5t112 183.5t40.5 276q0 124 -27 223.5t-73 166t-111 111t-137.5 64 t-155.5 19.5t-155.5 -19.5t-137.5 -64t-111 -111t-73 -166t-27 -223.5zM473 1696q0 47 34.5 81.5t80.5 34.5q43 0 76.5 -34.5t33.5 -81.5q0 -51 -33 -86t-77 -35q-47 0 -81 34.5t-34 86.5zM852 1696q0 47 34.5 81.5t80.5 34.5q43 0 76.5 -34.5t33.5 -81.5q0 -51 -33 -86 t-77 -35q-47 0 -81 34.5t-34 86.5z" />
<glyph unicode="&#xd7;" horiz-adv-x="1196" d="M131 133l373 373l-373 375l98 98l373 -375l361 361l98 -99l-359 -360l361 -359l-98 -98l-361 359l-375 -375z" />
<glyph unicode="&#xd8;" horiz-adv-x="1556" d="M80 733q0 362 186.5 563t511.5 201q279 0 465 -156l131 146l94 -96l-135 -150q144 -199 144 -508q0 -363 -187 -565.5t-512 -202.5q-274 0 -454 148l-136 -150l-104 90l143 160q-147 198 -147 520zM274 733q0 -230 84 -373l756 838q-134 119 -336 119q-83 0 -155.5 -19.5 t-137.5 -64t-111 -111t-73 -166t-27 -223.5zM449 252q127 -107 329 -107q105 0 192.5 31t159 97.5t112 183.5t40.5 276q0 214 -82 359z" />
<glyph unicode="&#xd9;" horiz-adv-x="1492" d="M158 539v923h194v-915q0 -108 30 -187.5t85 -125.5t124.5 -67.5t156.5 -21.5t156.5 21.5t123.5 67.5t83.5 125.5t29.5 187.5v915h194v-923q0 -274 -155 -424t-432 -150q-276 0 -433 150.5t-157 423.5zM455 1860h239l176 -293h-129z" />
<glyph unicode="&#xda;" horiz-adv-x="1492" d="M158 539v923h194v-915q0 -108 30 -187.5t85 -125.5t124.5 -67.5t156.5 -21.5t156.5 21.5t123.5 67.5t83.5 125.5t29.5 187.5v915h194v-923q0 -274 -155 -424t-432 -150q-276 0 -433 150.5t-157 423.5zM621 1567l176 293h239l-286 -293h-129z" />
<glyph unicode="&#xdb;" horiz-adv-x="1492" d="M158 539v923h194v-915q0 -108 30 -187.5t85 -125.5t124.5 -67.5t156.5 -21.5t156.5 21.5t123.5 67.5t83.5 125.5t29.5 187.5v915h194v-923q0 -274 -155 -424t-432 -150q-276 0 -433 150.5t-157 423.5zM438 1567l224 293h163l224 -293h-158l-148 198l-147 -198h-158z" />
<glyph unicode="&#xdc;" horiz-adv-x="1492" d="M158 539v923h194v-915q0 -108 30 -187.5t85 -125.5t124.5 -67.5t156.5 -21.5t156.5 21.5t123.5 67.5t83.5 125.5t29.5 187.5v915h194v-923q0 -274 -155 -424t-432 -150q-276 0 -433 150.5t-157 423.5zM442 1696q0 47 34.5 81.5t80.5 34.5q43 0 77 -34.5t34 -81.5 q0 -51 -33.5 -86t-77.5 -35q-47 0 -81 34.5t-34 86.5zM821 1696q0 47 34.5 81.5t80.5 34.5q43 0 77 -34.5t34 -81.5q0 -51 -33.5 -86t-77.5 -35q-47 0 -81 34.5t-34 86.5z" />
<glyph unicode="&#xdd;" horiz-adv-x="1359" d="M25 1462h235l432 -696l416 696h225l-545 -854v-608h-194v604zM553 1569l176 293h240l-287 -293h-129z" />
<glyph unicode="&#xde;" horiz-adv-x="1308" d="M158 0v1462h194v-245h365q65 0 125.5 -9t131.5 -38.5t122.5 -77t86 -131.5t34.5 -195q0 -221 -135 -345t-380 -124h-350v-297h-194zM352 477h383q287 0 287 291q0 268 -287 268h-383v-559z" />
<glyph unicode="&#xdf;" horiz-adv-x="1163" d="M137 0v1077q0 199 114 309.5t331 110.5q211 0 321.5 -97.5t110.5 -256.5q0 -41 -12 -82.5t-38 -86.5t-78 -85t-124 -66q149 -33 234 -133t85 -248q0 -98 -30 -178t-78.5 -132.5t-112.5 -89t-131 -52t-135 -15.5q-84 0 -150 17v170q72 -21 142 -21q67 0 120.5 16t97 50 t67.5 93.5t24 141.5q0 251 -270 271q-55 4 -181 4v164q385 0 385 237q0 114 -62.5 163.5t-184.5 49.5q-153 0 -212 -67.5t-59 -219.5v-1044h-174z" />
<glyph unicode="&#xe0;" horiz-adv-x="1118" d="M74 272q0 191 154.5 268t523.5 74v119q0 98 -64.5 148.5t-181.5 50.5q-115 0 -173.5 -47.5t-60.5 -134.5h-172q-2 75 24 136.5t68 99.5t97.5 64.5t109 37t105.5 10.5q197 0 314.5 -94.5t117.5 -262.5v-518q0 -47 27 -68.5t104 -17.5v-151q-72 -12 -132.5 -7.5 t-107.5 39.5t-65 99q-58 -66 -152 -104t-207 -38q-145 0 -237 77.5t-92 219.5zM250 1497h239l177 -293h-129zM258 283q0 -70 52.5 -106t144.5 -36q86 0 166.5 34t130.5 91v207q-195 -3 -300 -21.5t-149.5 -58t-44.5 -110.5z" />
<glyph unicode="&#xe1;" horiz-adv-x="1118" d="M74 272q0 191 154.5 268t523.5 74v119q0 98 -64.5 148.5t-181.5 50.5q-115 0 -173.5 -47.5t-60.5 -134.5h-172q-2 75 24 136.5t68 99.5t97.5 64.5t109 37t105.5 10.5q197 0 314.5 -94.5t117.5 -262.5v-518q0 -47 27 -68.5t104 -17.5v-151q-72 -12 -132.5 -7.5 t-107.5 39.5t-65 99q-58 -66 -152 -104t-207 -38q-145 0 -237 77.5t-92 219.5zM258 283q0 -70 52.5 -106t144.5 -36q86 0 166.5 34t130.5 91v207q-195 -3 -300 -21.5t-149.5 -58t-44.5 -110.5zM369 1204l176 293h239l-286 -293h-129z" />
<glyph unicode="&#xe2;" horiz-adv-x="1118" d="M74 272q0 191 154.5 268t523.5 74v119q0 98 -64.5 148.5t-181.5 50.5q-115 0 -173.5 -47.5t-60.5 -134.5h-172q-2 75 24 136.5t68 99.5t97.5 64.5t109 37t105.5 10.5q197 0 314.5 -94.5t117.5 -262.5v-518q0 -47 27 -68.5t104 -17.5v-151q-72 -12 -132.5 -7.5 t-107.5 39.5t-65 99q-58 -66 -152 -104t-207 -38q-145 0 -237 77.5t-92 219.5zM227 1204l224 293h163l224 -293h-158l-148 199l-147 -199h-158zM258 283q0 -70 52.5 -106t144.5 -36q86 0 166.5 34t130.5 91v207q-195 -3 -300 -21.5t-149.5 -58t-44.5 -110.5z" />
<glyph unicode="&#xe3;" horiz-adv-x="1118" d="M74 272q0 191 154.5 268t523.5 74v119q0 98 -64.5 148.5t-181.5 50.5q-115 0 -173.5 -47.5t-60.5 -134.5h-172q-2 75 24 136.5t68 99.5t97.5 64.5t109 37t105.5 10.5q197 0 314.5 -94.5t117.5 -262.5v-518q0 -47 27 -68.5t104 -17.5v-151q-72 -12 -132.5 -7.5 t-107.5 39.5t-65 99q-58 -66 -152 -104t-207 -38q-145 0 -237 77.5t-92 219.5zM195 1223q0 96 52 165.5t142 69.5q60 0 186 -67q75 -39 105 -39q23 0 37 28.5t14 69.5h137q0 -95 -51 -165.5t-143 -70.5q-75 0 -166 54q-86 51 -125 51q-23 0 -36 -28t-13 -68h-139zM258 283 q0 -70 52.5 -106t144.5 -36q86 0 166.5 34t130.5 91v207q-195 -3 -300 -21.5t-149.5 -58t-44.5 -110.5z" />
<glyph unicode="&#xe4;" horiz-adv-x="1118" d="M74 272q0 191 154.5 268t523.5 74v119q0 98 -64.5 148.5t-181.5 50.5q-115 0 -173.5 -47.5t-60.5 -134.5h-172q-2 75 24 136.5t68 99.5t97.5 64.5t109 37t105.5 10.5q197 0 314.5 -94.5t117.5 -262.5v-518q0 -47 27 -68.5t104 -17.5v-151q-72 -12 -132.5 -7.5 t-107.5 39.5t-65 99q-58 -66 -152 -104t-207 -38q-145 0 -237 77.5t-92 219.5zM219 1333q0 47 34.5 82t80.5 35q43 0 76.5 -35t33.5 -82q0 -51 -33 -86t-77 -35q-47 0 -81 34.5t-34 86.5zM258 283q0 -70 52.5 -106t144.5 -36q86 0 166.5 34t130.5 91v207q-195 -3 -300 -21.5 t-149.5 -58t-44.5 -110.5zM598 1333q0 47 34.5 82t80.5 35q43 0 76.5 -35t33.5 -82q0 -51 -33 -86t-77 -35q-47 0 -81 34.5t-34 86.5z" />
<glyph unicode="&#xe5;" horiz-adv-x="1118" d="M74 272q0 191 154.5 268t523.5 74v119q0 98 -64.5 148.5t-181.5 50.5q-115 0 -173.5 -47.5t-60.5 -134.5h-172q-2 75 24 136.5t68 99.5t97.5 64.5t109 37t105.5 10.5q197 0 314.5 -94.5t117.5 -262.5v-518q0 -47 27 -68.5t104 -17.5v-151q-72 -12 -132.5 -7.5 t-107.5 39.5t-65 99q-58 -66 -152 -104t-207 -38q-145 0 -237 77.5t-92 219.5zM258 283q0 -70 52.5 -106t144.5 -36q86 0 166.5 34t130.5 91v207q-195 -3 -300 -21.5t-149.5 -58t-44.5 -110.5zM293 1384q0 104 64 171t169 67q103 0 166.5 -67t63.5 -171q0 -96 -65 -160.5 t-165 -64.5q-102 0 -167.5 64.5t-65.5 160.5zM387 1386q0 -53 39 -94t100 -41q59 0 98.5 41t39.5 94q0 59 -39 102.5t-99 43.5q-61 0 -100 -43.5t-39 -102.5z" />
<glyph unicode="&#xe6;" horiz-adv-x="1710" d="M74 272q0 191 149.5 268t507.5 74v119q0 98 -58.5 148.5t-166.5 50.5q-115 0 -173.5 -47.5t-60.5 -134.5h-172q-2 75 24 136.5t68 99.5t97.5 64.5t109 37t105.5 10.5q243 0 352 -152q127 152 350 152q111 0 196 -26.5t135.5 -73.5t75.5 -105.5t25 -128.5 q0 -161 -111.5 -243.5t-332.5 -82.5q-151 0 -270 17q36 -305 342 -305q89 0 170.5 22t138.5 55l63 -153q-72 -44 -181.5 -71.5t-209.5 -27.5q-282 0 -416 191q-68 -82 -175.5 -136.5t-252.5 -54.5t-237 77.5t-92 219.5zM258 283q0 -70 52.5 -106t144.5 -36q97 0 186.5 67 t89.5 144v121q-187 -3 -287.5 -21.5t-143 -58t-42.5 -110.5zM924 625q110 -21 262 -21q145 0 206.5 33t61.5 125q0 81 -60 125.5t-167 44.5q-136 0 -212.5 -81.5t-90.5 -225.5z" />
<glyph unicode="&#xe7;" horiz-adv-x="1081" d="M72 547q0 112 30 208.5t89.5 174.5t161 123t233.5 45q104 0 190.5 -34.5t140 -90t82.5 -121.5t29 -133h-178q-9 94 -82 152.5t-182 58.5q-330 0 -330 -383q0 -193 82.5 -299.5t247.5 -106.5q122 0 190 56t80 163h178q-2 -54 -21.5 -108t-57.5 -104t-89 -88.5t-122 -61.5 t-152 -23q-247 0 -383.5 153.5t-136.5 418.5zM356 -434l29 76q67 -39 166 -39q113 0 113 94q0 56 -31.5 75t-81.5 19q-87 0 -143 -33l-29 78q99 51 201 51q106 0 161.5 -45t55.5 -145q0 -97 -62 -141.5t-170 -44.5q-106 0 -209 55z" />
<glyph unicode="&#xe8;" horiz-adv-x="1064" d="M72 541q0 259 135 408t358 149q111 0 194 -26.5t132 -73.5t72.5 -105.5t23.5 -126.5q0 -162 -110 -246t-332 -84q-178 0 -291 27q33 -311 362 -311q194 0 312 77l65 -155q-73 -44 -183 -71.5t-212 -27.5q-250 0 -388 147t-138 419zM254 625q135 -21 285 -21 q142 0 204 33.5t62 122.5q0 83 -63 129.5t-171 46.5q-142 0 -222.5 -83t-94.5 -228zM279 1497h239l176 -293h-129z" />
<glyph unicode="&#xe9;" horiz-adv-x="1064" d="M72 541q0 259 135 408t358 149q111 0 194 -26.5t132 -73.5t72.5 -105.5t23.5 -126.5q0 -162 -110 -246t-332 -84q-178 0 -291 27q33 -311 362 -311q194 0 312 77l65 -155q-73 -44 -183 -71.5t-212 -27.5q-250 0 -388 147t-138 419zM254 625q135 -21 285 -21 q142 0 204 33.5t62 122.5q0 83 -63 129.5t-171 46.5q-142 0 -222.5 -83t-94.5 -228zM422 1204l176 293h240l-287 -293h-129z" />
<glyph unicode="&#xea;" horiz-adv-x="1064" d="M72 541q0 259 135 408t358 149q111 0 194 -26.5t132 -73.5t72.5 -105.5t23.5 -126.5q0 -162 -110 -246t-332 -84q-178 0 -291 27q33 -311 362 -311q194 0 312 77l65 -155q-73 -44 -183 -71.5t-212 -27.5q-250 0 -388 147t-138 419zM254 625q135 -21 285 -21 q142 0 204 33.5t62 122.5q0 83 -63 129.5t-171 46.5q-142 0 -222.5 -83t-94.5 -228zM262 1204l223 293h164l223 -293h-157l-148 199l-147 -199h-158z" />
<glyph unicode="&#xeb;" horiz-adv-x="1064" d="M72 541q0 259 135 408t358 149q111 0 194 -26.5t132 -73.5t72.5 -105.5t23.5 -126.5q0 -162 -110 -246t-332 -84q-178 0 -291 27q33 -311 362 -311q194 0 312 77l65 -155q-73 -44 -183 -71.5t-212 -27.5q-250 0 -388 147t-138 419zM254 625q135 -21 285 -21 q142 0 204 33.5t62 122.5q0 83 -63 129.5t-171 46.5q-142 0 -222.5 -83t-94.5 -228zM258 1333q0 47 34.5 82t80.5 35q43 0 76.5 -35t33.5 -82q0 -51 -33 -86t-77 -35q-47 0 -81 34.5t-34 86.5zM637 1333q0 47 34.5 82t80.5 35q43 0 76.5 -35t33.5 -82q0 -51 -33 -86t-77 -35 q-47 0 -81 34.5t-34 86.5z" />
<glyph unicode="&#xec;" horiz-adv-x="448" d="M-68 1497h240l176 -293h-129zM137 0v1073h174v-1073h-174z" />
<glyph unicode="&#xed;" horiz-adv-x="448" d="M98 1204l176 293h240l-287 -293h-129zM137 0v1073h174v-1073h-174z" />
<glyph unicode="&#xee;" horiz-adv-x="448" d="M-80 1204l223 293h164l223 -293h-157l-148 199l-147 -199h-158zM137 0v1073h174v-1073h-174z" />
<glyph unicode="&#xef;" horiz-adv-x="448" d="M-78 1333q0 47 34.5 82t80.5 35q43 0 76.5 -35t33.5 -82q0 -51 -33 -86t-77 -35q-47 0 -81 34.5t-34 86.5zM137 0v1073h174v-1073h-174zM301 1333q0 47 34.5 82t80.5 35q43 0 76.5 -35t33.5 -82q0 -51 -33 -86t-77 -35q-47 0 -81 34.5t-34 86.5z" />
<glyph unicode="&#xf0;" horiz-adv-x="1169" d="M72 512q0 79 16.5 153t53.5 142t92 118.5t138.5 80.5t186.5 30q151 0 266 -84q-57 92 -109.5 150.5t-115.5 103.5l-254 -108l-92 96l240 100q-107 65 -181 99l138 102q115 -63 198 -117l240 113l86 -90l-227 -107q175 -145 263.5 -340.5t88.5 -418.5q0 -92 -17.5 -173 t-56.5 -153t-97.5 -123.5t-146 -81t-196.5 -29.5q-249 0 -381.5 146.5t-132.5 390.5zM256 520q0 -167 85 -271t243 -104q163 0 247 103t84 272q0 43 -6.5 84.5t-28 91t-56.5 85.5t-97 60.5t-143 24.5q-80 0 -141.5 -24.5t-96 -60.5t-56 -85.5t-28 -91t-6.5 -84.5z" />
<glyph unicode="&#xf1;" horiz-adv-x="1150" d="M133 0v1073h168v-143q113 168 346 168q181 0 276 -103t95 -270v-725h-174v717q0 105 -62.5 160t-181.5 55q-101 0 -180 -57t-113 -130v-745h-174zM238 1223q0 96 52 165.5t142 69.5q60 0 186 -67q75 -39 105 -39q23 0 37 28.5t14 69.5h137q0 -95 -51 -165.5t-143 -70.5 q-75 0 -166 54q-86 51 -125 51q-23 0 -36 -28t-13 -68h-139z" />
<glyph unicode="&#xf2;" horiz-adv-x="1171" d="M72 535q0 265 135.5 414t378.5 149q241 0 377.5 -149.5t136.5 -413.5q0 -262 -136.5 -411t-377.5 -149q-242 0 -378 149t-136 411zM256 535q0 -184 85 -289t245 -105t244.5 105t84.5 289q0 186 -84.5 291.5t-244.5 105.5t-245 -105.5t-85 -291.5zM297 1497h240l176 -293 h-129z" />
<glyph unicode="&#xf3;" horiz-adv-x="1171" d="M72 535q0 265 135.5 414t378.5 149q241 0 377.5 -149.5t136.5 -413.5q0 -262 -136.5 -411t-377.5 -149q-242 0 -378 149t-136 411zM256 535q0 -184 85 -289t245 -105t244.5 105t84.5 289q0 186 -84.5 291.5t-244.5 105.5t-245 -105.5t-85 -291.5zM461 1204l176 293h240 l-287 -293h-129z" />
<glyph unicode="&#xf4;" horiz-adv-x="1171" d="M72 535q0 265 135.5 414t378.5 149q241 0 377.5 -149.5t136.5 -413.5q0 -262 -136.5 -411t-377.5 -149q-242 0 -378 149t-136 411zM256 535q0 -184 85 -289t245 -105t244.5 105t84.5 289q0 186 -84.5 291.5t-244.5 105.5t-245 -105.5t-85 -291.5zM279 1204l223 293h164 l223 -293h-158l-147 199l-148 -199h-157z" />
<glyph unicode="&#xf5;" horiz-adv-x="1171" d="M72 535q0 265 135.5 414t378.5 149q241 0 377.5 -149.5t136.5 -413.5q0 -262 -136.5 -411t-377.5 -149q-242 0 -378 149t-136 411zM250 1223q0 96 52 165.5t142 69.5q61 0 187 -67q75 -39 104 -39q23 0 37 28.5t14 69.5h138q0 -94 -51.5 -165t-143.5 -71q-75 0 -166 54 q-86 51 -125 51q-23 0 -36 -28t-13 -68h-139zM256 535q0 -184 85 -289t245 -105t244.5 105t84.5 289q0 186 -84.5 291.5t-244.5 105.5t-245 -105.5t-85 -291.5z" />
<glyph unicode="&#xf6;" horiz-adv-x="1171" d="M72 535q0 265 135.5 414t378.5 149q241 0 377.5 -149.5t136.5 -413.5q0 -262 -136.5 -411t-377.5 -149q-242 0 -378 149t-136 411zM256 535q0 -184 85 -289t245 -105t244.5 105t84.5 289q0 186 -84.5 291.5t-244.5 105.5t-245 -105.5t-85 -291.5zM283 1333q0 47 34 82 t80 35q43 0 77 -35t34 -82q0 -51 -33.5 -86t-77.5 -35q-47 0 -80.5 34.5t-33.5 86.5zM662 1333q0 47 34 82t80 35q43 0 77 -35t34 -82q0 -51 -33.5 -86t-77.5 -35q-47 0 -80.5 34.5t-33.5 86.5z" />
<glyph unicode="&#xf7;" horiz-adv-x="1196" d="M90 449v139h1014v-139h-1014zM475 106q0 50 35.5 85.5t85.5 35.5t85.5 -35.5t35.5 -85.5q0 -49 -35.5 -84.5t-85.5 -35.5t-85.5 35.5t-35.5 84.5zM475 930q0 50 35.5 85.5t85.5 35.5t85.5 -35.5t35.5 -85.5t-35.5 -85.5t-85.5 -35.5t-85.5 35.5t-35.5 85.5z" />
<glyph unicode="&#xf8;" horiz-adv-x="1171" d="M63 29l115 129q-106 142 -106 377q0 265 135.5 414t378.5 149q201 0 332 -109l98 111l98 -88l-106 -121q92 -143 92 -356q0 -262 -136.5 -411t-377.5 -149q-185 0 -312 88l-108 -120zM256 535q0 -143 49 -234l496 557q-83 74 -215 74q-160 0 -245 -105.5t-85 -291.5z M391 197q77 -56 195 -56q160 0 244.5 105t84.5 289q0 125 -36 210z" />
<glyph unicode="&#xf9;" horiz-adv-x="1159" d="M139 350v723h174v-672q0 -57 10 -101t34.5 -81.5t70.5 -57.5t113 -20q112 0 194.5 59.5t112.5 129.5v743h174v-1073h-168v152q-41 -72 -124.5 -124.5t-207.5 -52.5q-103 0 -178.5 28t-119.5 80t-64.5 118t-20.5 149zM287 1497h239l176 -293h-129z" />
<glyph unicode="&#xfa;" horiz-adv-x="1159" d="M139 350v723h174v-672q0 -57 10 -101t34.5 -81.5t70.5 -57.5t113 -20q112 0 194.5 59.5t112.5 129.5v743h174v-1073h-168v152q-41 -72 -124.5 -124.5t-207.5 -52.5q-103 0 -178.5 28t-119.5 80t-64.5 118t-20.5 149zM455 1204l176 293h239l-286 -293h-129z" />
<glyph unicode="&#xfb;" horiz-adv-x="1159" d="M139 350v723h174v-672q0 -57 10 -101t34.5 -81.5t70.5 -57.5t113 -20q112 0 194.5 59.5t112.5 129.5v743h174v-1073h-168v152q-41 -72 -124.5 -124.5t-207.5 -52.5q-103 0 -178.5 28t-119.5 80t-64.5 118t-20.5 149zM270 1204l224 293h163l224 -293h-158l-148 199 l-147 -199h-158z" />
<glyph unicode="&#xfc;" horiz-adv-x="1159" d="M139 350v723h174v-672q0 -57 10 -101t34.5 -81.5t70.5 -57.5t113 -20q112 0 194.5 59.5t112.5 129.5v743h174v-1073h-168v152q-41 -72 -124.5 -124.5t-207.5 -52.5q-103 0 -178.5 28t-119.5 80t-64.5 118t-20.5 149zM272 1333q0 47 34.5 82t80.5 35q43 0 77 -35t34 -82 q0 -51 -33.5 -86t-77.5 -35q-47 0 -81 34.5t-34 86.5zM651 1333q0 47 34.5 82t80.5 35q43 0 77 -35t34 -82q0 -51 -33.5 -86t-77.5 -35q-47 0 -81 34.5t-34 86.5z" />
<glyph unicode="&#xfd;" horiz-adv-x="1034" d="M23 1073h196l326 -852l282 852h185q-49 -136 -101 -282.5t-83.5 -235t-66 -185t-54 -150t-40.5 -112t-32.5 -89t-23.5 -62.5t-20 -51.5t-16 -38.5q-55 -125 -147 -191.5t-215 -66.5q-55 0 -102 8v156q41 -4 98 -4q145 0 242 241zM403 1204l177 293h239l-287 -293h-129z " />
<glyph unicode="&#xfe;" horiz-adv-x="1153" d="M119 -391v1853h174v-389q132 25 237 25q145 0 252.5 -40.5t169.5 -114.5t91.5 -168t29.5 -212q0 -133 -30.5 -236t-81.5 -168.5t-124.5 -107.5t-152.5 -59t-172 -17q-113 0 -219 52v-418h-174zM293 186q109 -45 221 -45q183 0 279 106t96 310q0 75 -18.5 139.5t-57 118.5 t-106.5 85.5t-158 31.5q-147 0 -256 -33v-713z" />
<glyph unicode="&#xff;" horiz-adv-x="1034" d="M23 1073h196l326 -852l282 852h185q-49 -136 -101 -282.5t-83.5 -235t-66 -185t-54 -150t-40.5 -112t-32.5 -89t-23.5 -62.5t-20 -51.5t-16 -38.5q-55 -125 -147 -191.5t-215 -66.5q-55 0 -102 8v156q41 -4 98 -4q145 0 242 241zM215 1333q0 47 34.5 82t80.5 35 q43 0 76.5 -35t33.5 -82q0 -51 -33 -86t-77 -35q-47 0 -81 34.5t-34 86.5zM594 1333q0 47 34.5 82t80.5 35q43 0 76.5 -35t33.5 -82q0 -51 -33 -86t-77 -35q-47 0 -81 34.5t-34 86.5z" />
<glyph unicode="&#x152;" horiz-adv-x="2224" d="M80 733q0 363 175 563.5t482 200.5q293 0 465 -203v168h895v-180h-700v-440h604v-180h-604v-482h723v-180h-918v170q-172 -205 -465 -205q-306 0 -481.5 202.5t-175.5 565.5zM274 733q0 -159 37 -276t102.5 -183.5t146 -97.5t177.5 -31t177.5 31t146 97.5t102.5 183.5 t37 276q0 154 -37 269.5t-102 182.5t-146.5 99.5t-177.5 32.5t-177.5 -32.5t-146.5 -99.5t-102 -182.5t-37 -269.5z" />
<glyph unicode="&#x153;" horiz-adv-x="1875" d="M72 535q0 265 135.5 414t378.5 149q270 0 401 -201q60 96 158 148.5t227 52.5q111 0 196 -26.5t135.5 -73.5t75.5 -105.5t25 -128.5q0 -161 -111.5 -243.5t-332.5 -82.5q-151 0 -270 17q36 -305 342 -305q89 0 170.5 22t138.5 55l63 -153q-72 -44 -181.5 -71.5 t-209.5 -27.5q-290 0 -424 203q-63 -99 -166 -151t-237 -52q-242 0 -378 149t-136 411zM256 535q0 -184 85 -289t245 -105q150 0 229.5 105t79.5 289q0 186 -79.5 291.5t-229.5 105.5q-160 0 -245 -105.5t-85 -291.5zM1090 625q110 -21 262 -21q145 0 206.5 33t61.5 125 q0 81 -60 125.5t-167 44.5q-136 0 -212.5 -81.5t-90.5 -225.5z" />
<glyph unicode="&#x178;" horiz-adv-x="1359" d="M25 1462h235l432 -696l416 696h225l-545 -854v-608h-194v604zM391 1696q0 47 34.5 81.5t80.5 34.5q43 0 76.5 -34.5t33.5 -81.5q0 -51 -33 -86t-77 -35q-47 0 -81 34.5t-34 86.5zM770 1696q0 47 34.5 81.5t80.5 34.5q43 0 76.5 -34.5t33.5 -81.5q0 -51 -33 -86t-77 -35 q-47 0 -81 34.5t-34 86.5z" />
<glyph unicode="&#x2c6;" d="M35 1204l223 293h164l223 -293h-158l-147 199l-147 -199h-158z" />
<glyph unicode="&#x2dc;" d="M4 1223q0 96 52.5 165.5t142.5 69.5q60 0 186 -67q75 -39 104 -39q23 0 37.5 28.5t14.5 69.5h137q0 -94 -51.5 -165t-143.5 -71q-75 0 -166 54q-86 51 -124 51q-23 0 -36.5 -28.5t-13.5 -67.5h-139z" />
<glyph unicode="&#x2000;" horiz-adv-x="988" />
<glyph unicode="&#x2001;" horiz-adv-x="1976" />
<glyph unicode="&#x2002;" horiz-adv-x="988" />
<glyph unicode="&#x2003;" horiz-adv-x="1976" />
<glyph unicode="&#x2004;" horiz-adv-x="658" />
<glyph unicode="&#x2005;" horiz-adv-x="494" />
<glyph unicode="&#x2006;" horiz-adv-x="329" />
<glyph unicode="&#x2007;" horiz-adv-x="329" />
<glyph unicode="&#x2008;" horiz-adv-x="247" />
<glyph unicode="&#x2009;" horiz-adv-x="395" />
<glyph unicode="&#x200a;" horiz-adv-x="109" />
<glyph unicode="&#x2010;" d="M90 475v184h502v-184h-502z" />
<glyph unicode="&#x2011;" d="M90 475v184h502v-184h-502z" />
<glyph unicode="&#x2012;" d="M90 475v184h502v-184h-502z" />
<glyph unicode="&#x2013;" horiz-adv-x="1138" d="M61 492v149h1016v-149h-1016z" />
<glyph unicode="&#x2014;" horiz-adv-x="2048" d="M61 492v149h1926v-149h-1926z" />
<glyph unicode="&#x2018;" horiz-adv-x="454" d="M100 981q26 131 66.5 271t73.5 216l114 11q-24 -99 -43.5 -235t-23.5 -240z" />
<glyph unicode="&#x2019;" horiz-adv-x="454" d="M100 981q54 229 68 475l186 23q-24 -131 -64 -271.5t-73 -216.5z" />
<glyph unicode="&#x201a;" horiz-adv-x="454" d="M100 -270q54 229 68 475l186 22q-24 -131 -64 -271t-73 -216z" />
<glyph unicode="&#x201c;" horiz-adv-x="753" d="M100 981q26 131 66.5 271t73.5 216l114 11q-24 -99 -43.5 -235t-23.5 -240zM399 981q25 130 65.5 270t72.5 217l116 11q-52 -218 -67 -475z" />
<glyph unicode="&#x201d;" horiz-adv-x="753" d="M100 981q23 96 42.5 232.5t25.5 242.5l186 23q-25 -131 -65 -271.5t-72 -216.5zM399 981q24 100 44 236t24 239l186 23q-26 -133 -66 -273t-73 -215z" />
<glyph unicode="&#x201e;" horiz-adv-x="753" d="M100 -270q23 96 42.5 232.5t25.5 242.5l186 22q-25 -131 -65 -271t-72 -216zM399 -270q24 100 44 236t24 239l186 22q-26 -132 -66 -272t-73 -215z" />
<glyph unicode="&#x2022;" horiz-adv-x="626" d="M37 575q0 116 79.5 195.5t196.5 79.5t197 -79.5t80 -195.5q0 -115 -80.5 -195.5t-196.5 -80.5t-196 79.5t-80 196.5z" />
<glyph unicode="&#x2026;" horiz-adv-x="1531" d="M113 109q0 49 36.5 84.5t83.5 35.5q50 0 85.5 -35.5t35.5 -84.5q0 -48 -35.5 -84.5t-85.5 -36.5q-49 0 -84.5 36.5t-35.5 84.5zM645 109q0 49 37 84.5t84 35.5q50 0 85.5 -35.5t35.5 -84.5q0 -48 -35.5 -84.5t-85.5 -36.5q-49 0 -85 36.5t-36 84.5zM1178 109 q0 49 36 84.5t84 35.5q49 0 84 -35t35 -85q0 -48 -34.5 -84.5t-84.5 -36.5t-85 36.5t-35 84.5z" />
<glyph unicode="&#x202f;" horiz-adv-x="395" />
<glyph unicode="&#x2039;" horiz-adv-x="550" d="M78 487v136l395 344v-179l-276 -235l276 -229v-179z" />
<glyph unicode="&#x203a;" horiz-adv-x="550" d="M78 145v179l276 229l-276 235v179l395 -344v-136z" />
<glyph unicode="&#x205f;" horiz-adv-x="494" />
<glyph unicode="&#x20ac;" horiz-adv-x="1138" d="M18 498l39 120h113q-2 31 -2 103v61h-148l39 125h121q21 135 73.5 240.5t127.5 171t167 99.5t195 34q126 0 221.5 -44.5t155.5 -111.5q-13 -48 -53 -166q-52 70 -132 106t-169 36q-157 0 -262 -103.5t-123 -261.5h631l-39 -125h-611q-2 -20 -2 -82q0 -59 2 -82h562 l-35 -120h-502q31 -168 124.5 -260.5t242.5 -92.5q183 0 317 115v-188q-67 -47 -154.5 -77t-171.5 -30q-460 0 -557 533h-170z" />
<glyph unicode="&#x2122;" horiz-adv-x="1701" d="M41 1343v119h641v-119h-256v-745h-131v745h-254zM854 598v864h125l278 -407l281 407h123v-864h-129v633l-234 -340h-79l-234 338v-631h-131z" />
<glyph unicode="&#x25fc;" horiz-adv-x="1075" d="M0 0v1075h1075v-1075h-1075z" />
<glyph unicode="&#xfb01;" horiz-adv-x="1073" d="M59 934v139h134v123q0 103 51 172t135.5 99t198.5 30q136 0 284 -35v-153q-143 34 -276 34q-114 0 -166.5 -34.5t-52.5 -122.5v-113h594v-1073h-175v934h-419v-934h-174v934h-134z" />
<glyph unicode="&#xfb02;" horiz-adv-x="1159" d="M59 934v139h134v109q0 155 101 235t273 80q100 0 215 -33l174 13v-1235q0 -55 32.5 -84t94.5 -29q25 0 35 2v-145q-57 -11 -96 -11q-109 0 -174.5 56t-65.5 172v1108q-112 32 -207 32q-109 0 -158.5 -40.5t-49.5 -131.5v-98h313v-139h-313v-934h-174v934h-134z" />
</font>
</defs>
</svg>
