<?xml version="1.0" standalone="no"?>
<!DOCTYPE svg PUBLIC "-//W3C//DTD SVG 1.1//EN" "http://www.w3.org/Graphics/SVG/1.1/DTD/svg11.dtd" >
<svg xmlns="http://www.w3.org/2000/svg" xmlns:xlink="http://www.w3.org/1999/xlink" version="1.1">
<metadata></metadata>
<defs>
<font id="sfrlight" horiz-adv-x="681" >
<font-face units-per-em="2048" ascent="1536" descent="-512" />
<missing-glyph horiz-adv-x="542" />
<glyph horiz-adv-x="0" />
<glyph horiz-adv-x="682" />
<glyph unicode=" "  horiz-adv-x="542" />
<glyph unicode="&#x09;" horiz-adv-x="542" />
<glyph unicode="&#xa0;" horiz-adv-x="542" />
<glyph unicode="!" horiz-adv-x="569" d="M190 90q0 36 28 64t67 28q40 0 67 -28t27 -64q0 -41 -26 -69.5t-68 -28.5t-68.5 28.5t-26.5 69.5zM217 981v481h137v-481l-32 -623h-72z" />
<glyph unicode="&#x22;" horiz-adv-x="729" d="M162 1475h131l-25 -459h-80zM438 1475h129l-24 -459h-78z" />
<glyph unicode="#" horiz-adv-x="1167" d="M25 440v103h237l62 356h-271v102h289l76 433h104l-76 -433h375l76 433h104l-75 -433h215v-102h-234l-61 -356h266v-103h-285l-75 -440h-105l76 440h-375l-76 -440h-104l76 440h-219zM367 543h374l62 356h-375z" />
<glyph unicode="$" horiz-adv-x="1167" d="M70 420h129q14 -157 97.5 -242.5t244.5 -97.5v606q-64 17 -112 33.5t-100.5 41t-89 54.5t-67 70t-46 92.5t-15.5 116.5q0 147 117 244t313 106v186h80v-186q198 -12 311 -124.5t121 -283.5h-129q-10 136 -91 210t-212 85v-545q260 -65 367.5 -159.5t107.5 -264.5 q0 -164 -134 -277.5t-341 -119.5v-192h-80v194q-217 15 -342 132.5t-129 320.5zM240 1094q0 -104 68 -170.5t233 -116.5v524q-153 -7 -227 -74t-74 -163zM621 78q164 4 255 85t91 199q0 114 -81.5 184t-264.5 118v-586z" />
<glyph unicode="%" horiz-adv-x="1705" d="M82 1061q0 200 85.5 292.5t235.5 92.5q151 0 236.5 -92.5t85.5 -292.5t-86 -294.5t-236 -94.5q-149 0 -235 94.5t-86 294.5zM190 1061q0 -152 54 -222.5t159 -70.5t159 70.5t54 222.5q0 151 -53.5 220t-159.5 69t-159.5 -69t-53.5 -220zM326 -70l927 1555h97l-926 -1555 h-98zM981 365q0 200 86 292.5t236 92.5q151 0 236 -92.5t85 -292.5q0 -201 -85.5 -295.5t-235.5 -94.5q-149 0 -235.5 95t-86.5 295zM1090 365q0 -152 54 -222.5t159 -70.5t159 70.5t54 222.5q0 151 -53.5 219.5t-159.5 68.5t-159.5 -68.5t-53.5 -219.5z" />
<glyph unicode="&#x26;" horiz-adv-x="1241" d="M84 401q0 76 26 139t85.5 118.5t98 84t121.5 80.5l9 6q-86 113 -126 190t-40 159q0 124 88 204t227 80q133 0 219.5 -89t86.5 -204q0 -62 -22.5 -116.5t-65.5 -99.5t-84.5 -76.5t-100.5 -67.5q115 -148 324 -406q46 95 63 213l129 -18q-22 -160 -102 -303l6 -8 q88 -107 168 -199l-94 -88q-49 51 -156 182q-171 -207 -407 -207q-191 0 -322 119.5t-131 306.5zM213 401q0 -139 91.5 -225t232.5 -86q180 0 323 195q-258 318 -364 454q-49 -30 -79 -49.5t-73.5 -55t-68.5 -67t-43.5 -75.5t-18.5 -91zM387 1178q0 -56 35 -118.5 t115 -162.5q104 67 158.5 132t54.5 140q0 72 -50 126.5t-127 54.5q-81 0 -133.5 -44.5t-52.5 -127.5z" />
<glyph unicode="'" horiz-adv-x="454" d="M162 1475h131l-25 -459h-80z" />
<glyph unicode="(" d="M125 561q0 597 364 936l66 -51q-139 -157 -220 -390t-81 -495q0 -263 81 -497t220 -394l-66 -49q-364 339 -364 940z" />
<glyph unicode=")" d="M125 -330q139 160 220 394t81 497q0 262 -81 495t-220 390l65 51q365 -340 365 -936q0 -600 -365 -940z" />
<glyph unicode="*" horiz-adv-x="763" d="M90 1255l64 109l198 -143l-39 241h127l-28 -241l192 151l64 -110l-222 -95l226 -90l-64 -108l-194 145l35 -244h-127l28 244l-192 -153l-64 108l225 96z" />
<glyph unicode="+" horiz-adv-x="1351" d="M178 461v108h445v424h106v-424h445v-108h-445v-461h-106v461h-445z" />
<glyph unicode="," horiz-adv-x="471" d="M131 -258l43 473h164l-129 -473h-78z" />
<glyph unicode="-" d="M82 469v127h518v-127h-518z" />
<glyph unicode="." horiz-adv-x="471" d="M141 90q0 36 28 64t67 28q40 0 67 -28t27 -64q0 -41 -26 -69.5t-68 -28.5t-68.5 28.5t-26.5 69.5z" />
<glyph unicode="/" horiz-adv-x="737" d="M0 -35l635 1532h102l-633 -1532h-104z" />
<glyph unicode="0" horiz-adv-x="1167" d="M63 713q0 379 137 556t384 177q120 0 213.5 -41t163 -127.5t106.5 -229t37 -335.5q0 -380 -137 -559t-383 -179t-383.5 179t-137.5 559zM193 713q0 -325 98.5 -475t292.5 -150t292.5 150t98.5 475t-98.5 472.5t-292.5 147.5t-292.5 -147.5t-98.5 -472.5z" />
<glyph unicode="1" horiz-adv-x="1167" d="M311 1147l367 287h55v-1434h-129v1225l-221 -166z" />
<glyph unicode="2" horiz-adv-x="1167" d="M117 0q-2 48 4 93.5t24.5 89.5t37 80.5t55 81.5t63.5 76t78 79t83 76.5t93 82.5q24 21 78.5 68.5t77 67.5t62.5 58t57.5 61t39 55.5t29.5 61.5t8 59q0 104 -74.5 173.5t-230.5 69.5q-140 0 -217.5 -70.5t-95.5 -189.5h-129q7 79 37.5 143.5t74.5 106.5t101 70.5t114 40.5 t115 12q202 0 318 -91t116 -265q0 -32 -5.5 -62.5t-20 -61t-27.5 -55t-39.5 -55t-43 -50t-52 -51.5t-52.5 -47t-58 -50t-56 -48q-21 -18 -74.5 -63t-81 -69.5t-73 -66.5t-70.5 -72.5t-53 -69t-41 -75t-15 -71.5h777v-123h-934z" />
<glyph unicode="3" horiz-adv-x="1167" d="M113 319h129q6 -101 91.5 -166t239.5 -65q91 0 162 27t111 71t60 92t20 97q0 78 -35 139t-94 97t-129.5 54.5t-147.5 18.5h-149v113h149q88 0 156 18.5t108.5 47t66 68t35 77.5t9.5 79q0 105 -86 175.5t-234 70.5q-144 0 -227 -66t-92 -194h-129q-2 79 26 144t73.5 106.5 t106 70t121 40.5t121.5 12q129 0 228 -37t160 -119.5t61 -202.5q0 -19 -1 -36t-7 -48.5t-16 -58t-31 -58.5t-49 -57t-72.5 -47t-99.5 -34v-5q152 -30 229.5 -129t77.5 -239q0 -116 -67.5 -208.5t-178.5 -142t-242 -49.5q-58 0 -114 9t-116.5 33.5t-106.5 61.5t-78.5 99 t-38.5 141z" />
<glyph unicode="4" horiz-adv-x="1167" d="M90 354v125l633 955h149v-967h205v-113h-205v-354h-129v354h-653zM223 467h520v784h-4z" />
<glyph unicode="5" horiz-adv-x="1167" d="M117 319h125q5 -24 16.5 -51t38 -60.5t62 -59t93.5 -43t128 -17.5q74 0 134 21.5t98 55.5t63.5 80t36 92t10.5 93q0 167 -95 265t-237 98q-57 0 -109.5 -11.5t-87 -27.5t-60.5 -32.5t-38 -27.5l-12 -12h-131l98 731h696v-108h-590l-73 -500q48 44 137 72t186 28 q203 0 324 -127.5t121 -339.5q0 -71 -15.5 -136t-51 -125.5t-88.5 -104.5t-134.5 -70.5t-181.5 -26.5q-105 0 -190 29.5t-139.5 80t-87.5 109.5t-46 125z" />
<glyph unicode="6" horiz-adv-x="1167" d="M104 694q0 83 4.5 153t18.5 149.5t36.5 142t62 122t92.5 98.5t129.5 63t170.5 24q73 0 142.5 -22t130 -65t99.5 -117t44 -169h-129q-48 260 -295 260q-69 0 -124.5 -20t-93.5 -52.5t-67 -82.5t-45.5 -100t-27 -115t-14.5 -118.5t-5 -119.5q163 182 388 182 q112 0 198 -35.5t138.5 -99.5t79 -146.5t26.5 -181.5q0 -71 -15.5 -137t-51 -127t-88.5 -106t-134.5 -72t-181.5 -27q-93 0 -168 25.5t-125 66.5t-87 102.5t-57.5 122t-32 137t-15 135.5t-3.5 130zM240 594q1 -51 5 -94t14 -97t25.5 -96.5t43 -85t63.5 -70.5t89 -45.5 t118 -17.5q74 1 133 23t96 57.5t62 82.5t35 93t10 94q0 164 -85.5 260.5t-244.5 96.5q-61 0 -119 -19t-96 -43t-74.5 -57.5t-49.5 -49t-25 -32.5z" />
<glyph unicode="7" horiz-adv-x="1167" d="M143 1292v123h879v-92l-700 -1323h-140l680 1292h-719z" />
<glyph unicode="8" horiz-adv-x="1167" d="M100 356q0 75 25.5 137.5t73.5 110t104.5 82t130.5 64.5q-125 55 -198.5 139t-73.5 188q0 169 116.5 269t307.5 100q104 0 185.5 -29t130.5 -78.5t74 -110.5t25 -130q0 -101 -68 -192.5t-212 -155.5q344 -126 344 -365q0 -124 -65 -218t-176 -143t-251 -49 q-210 0 -341.5 108t-131.5 273zM229 379q0 -131 94 -211t255 -80q157 0 257.5 74.5t100.5 197.5q0 124 -91.5 204t-291.5 134q-141 -41 -232.5 -128t-91.5 -191zM289 1087q0 -202 323 -288q111 37 186.5 112t75.5 174q0 101 -76 174.5t-216 73.5q-131 0 -212 -74t-81 -172z " />
<glyph unicode="9" horiz-adv-x="1167" d="M102 973q0 73 15 139t50 128t88.5 107t137 72t187.5 27q74 0 136 -15.5t108 -41t83 -65t62 -81.5t43 -96t28 -102t16 -107.5t7.5 -104.5t1.5 -100q0 -83 -4.5 -152.5t-18 -149.5t-36 -143t-61.5 -123.5t-91.5 -100.5t-128.5 -64.5t-170 -24.5q-73 0 -141.5 19 t-129.5 58.5t-103 108t-54 158.5h129q26 -114 104.5 -172.5t200.5 -58.5q69 0 125.5 20t95 52t67.5 80t45.5 97.5t26.5 111t13.5 112.5t3.5 111q-13 -18 -43.5 -42t-78.5 -52t-120 -47t-149 -19q-113 0 -199.5 35.5t-139.5 99t-79.5 146t-26.5 180.5zM231 979 q0 -163 86 -258.5t246 -95.5q75 0 145.5 21.5t116.5 51.5t74 55t37 40q0 74 -7 140.5t-30.5 142.5t-61 130t-105 90.5t-157.5 36.5q-75 0 -135.5 -22.5t-98.5 -58t-63.5 -83t-36 -95t-10.5 -95.5z" />
<glyph unicode=":" horiz-adv-x="471" d="M141 90q0 36 28 64t67 28q40 0 67 -28t27 -64q0 -41 -26 -69.5t-68 -28.5t-68.5 28.5t-26.5 69.5zM141 915q0 36 28 64.5t67 28.5q40 0 67 -28t27 -65q0 -41 -26 -69.5t-68 -28.5t-68.5 28.5t-26.5 69.5z" />
<glyph unicode=";" horiz-adv-x="471" d="M131 -258l43 473h164l-129 -473h-78zM147 915q0 36 28 64.5t67 28.5q40 0 67 -28t27 -65q0 -41 -26 -69.5t-68 -28.5t-68.5 28.5t-26.5 69.5z" />
<glyph unicode="&#x3c;" horiz-adv-x="1351" d="M156 457v116l1040 482v-113l-926 -428q154 -69 463 -213t463 -213v-115z" />
<glyph unicode="=" horiz-adv-x="1351" d="M178 264v107h993v-107h-993zM178 666v108h993v-108h-993z" />
<glyph unicode="&#x3e;" horiz-adv-x="1351" d="M156 -27v115q153 69 462.5 213t462.5 213l-925 428v113l1040 -482v-116z" />
<glyph unicode="?" horiz-adv-x="1024" d="M80 1049q0 205 118.5 326.5t331.5 121.5q65 0 125 -14t112 -44t91 -72t61.5 -101.5t22.5 -130.5q0 -30 -3 -56t-14.5 -52t-19 -44t-31 -45t-34.5 -40t-46.5 -44.5t-50.5 -44t-61 -51.5q-53 -44 -83.5 -88t-50 -121t-18.5 -187h-129q0 297 193 463q11 9 48.5 39t52.5 43 t43.5 43t40.5 53t23 57t11 70q0 81 -43.5 140.5t-107.5 86.5t-136 27q-158 0 -237.5 -90.5t-79.5 -244.5h-129zM373 90q0 36 27.5 64t66.5 28q40 0 67 -28t27 -64q0 -41 -26 -69.5t-68 -28.5t-68 28.5t-26 69.5z" />
<glyph unicode="@" horiz-adv-x="1638" d="M84 705q0 165 58 311.5t160 252t247 167t313 61.5q309 0 499.5 -171.5t190.5 -461.5q0 -86 -19.5 -170t-58.5 -158t-93 -130.5t-127.5 -89.5t-157.5 -33q-65 0 -107 35.5t-45 117.5q-125 -153 -276 -153q-140 0 -212.5 96t-72.5 242q0 76 19.5 153.5t58 148t90.5 126 t124 88t152 32.5t143 -38t95 -117l39 145l94 -12q-135 -606 -141 -633q-6 -30 -6 -53q0 -40 17.5 -58t57.5 -18q127 0 218.5 136t91.5 347q0 240 -159.5 381.5t-418.5 141.5q-187 0 -338 -90.5t-235 -247t-84 -348.5q0 -196 88.5 -341t239 -218.5t343.5 -73.5q178 0 325 74 t210 202h123q-89 -172 -260 -277.5t-396 -105.5q-184 0 -334.5 58t-249.5 159t-152.5 235t-53.5 288zM508 625q0 -105 45 -176.5t133 -71.5q84 0 160 74.5t119 185.5t43 221q0 94 -47 158.5t-130 64.5q-74 0 -136.5 -42t-102.5 -108.5t-62 -146.5t-22 -159z" />
<glyph unicode="A" horiz-adv-x="1445" d="M31 0l626 1462h129l629 -1462h-149l-193 455h-706l-189 -455h-147zM416 573h606l-305 723z" />
<glyph unicode="B" horiz-adv-x="1271" d="M164 0v1462h479q473 0 473 -366q0 -246 -250 -334q149 -19 241.5 -110t92.5 -234q0 -84 -31.5 -157.5t-94 -132.5t-168.5 -93.5t-244 -34.5h-498zM303 127h348q205 0 307.5 75t102.5 208q0 280 -445 280h-313v-563zM303 817h336q160 0 250 71.5t90 203.5 q0 62 -21.5 107.5t-54.5 71t-83.5 40.5t-96.5 19.5t-105 4.5h-315v-518z" />
<glyph unicode="C" horiz-adv-x="1501" d="M111 733q0 363 183 563.5t507 200.5q226 0 379 -114.5t186 -329.5h-139q-11 71 -41.5 126.5t-71 90.5t-93.5 58t-107 32.5t-113 9.5q-90 0 -168.5 -19.5t-150 -66.5t-122 -118.5t-80.5 -182t-30 -250.5t30 -251t80.5 -183t122 -119.5t150 -67.5t168.5 -20q78 0 149 19 t135.5 58.5t109.5 110.5t60 166h140q-32 -222 -197.5 -351.5t-396.5 -129.5q-324 0 -507 202t-183 566z" />
<glyph unicode="D" horiz-adv-x="1445" d="M164 0v1462h479q692 0 692 -729q0 -127 -23.5 -235.5t-76.5 -201t-133 -157.5t-197.5 -102t-265.5 -37h-475zM303 127h344q89 0 166 17t149 60.5t122.5 110.5t81 173.5t30.5 244.5q0 116 -20 209.5t-51.5 155.5t-80 107.5t-95.5 69.5t-108 38.5t-107.5 18t-104.5 3.5 h-326v-1208z" />
<glyph unicode="E" horiz-adv-x="1101" d="M164 0v1462h835v-127h-696v-516h608v-127h-608v-565h717v-127h-856z" />
<glyph unicode="F" horiz-adv-x="1060" d="M164 0v1462h856v-127h-717v-536h627v-127h-627v-672h-139z" />
<glyph unicode="G" horiz-adv-x="1572" d="M111 748q0 122 23 229.5t76.5 204t133.5 165.5t200.5 109.5t270.5 40.5q137 0 250 -41t181.5 -106.5t105.5 -142.5t37 -154h-140q-12 129 -134.5 223t-299.5 94q-127 0 -227.5 -38t-162.5 -98.5t-102.5 -143.5t-56.5 -164.5t-16 -169.5q0 -164 45 -293.5t123 -210 t179.5 -122.5t219.5 -42q266 0 445 154v374h-459v127h606v-567q-124 -106 -266.5 -160.5t-325.5 -54.5q-228 0 -388.5 99t-239 274.5t-78.5 413.5z" />
<glyph unicode="H" horiz-adv-x="1490" d="M164 0v1462h139v-645h885v645h139v-1462h-139v690h-885v-690h-139z" />
<glyph unicode="I" horiz-adv-x="569" d="M215 0v1462h139v-1462h-139z" />
<glyph unicode="J" horiz-adv-x="1001" d="M45 410h139q5 -163 67 -240.5t191 -77.5q130 0 193 73t63 224v1073h140v-1073q0 -196 -99 -310t-307 -114q-102 0 -177.5 32.5t-121 93t-67 140t-21.5 179.5z" />
<glyph unicode="K" horiz-adv-x="1282" d="M164 0v1462h139v-635h180l561 635h166l-606 -690l658 -772h-181l-596 698h-182v-698h-139z" />
<glyph unicode="L" horiz-adv-x="1079" d="M164 0v1462h139v-1335h735v-127h-874z" />
<glyph unicode="M" horiz-adv-x="1724" d="M164 0v1462h182l516 -762l516 762h183v-1462h-140v1292l-524 -774h-70l-524 774v-1292h-139z" />
<glyph unicode="N" horiz-adv-x="1497" d="M164 0v1462h180l850 -1280v1280h139v-1462h-170l-860 1292v-1292h-139z" />
<glyph unicode="O" horiz-adv-x="1576" d="M111 733q0 362 180.5 563t496.5 201t497 -201t181 -563q0 -363 -181 -565.5t-497 -202.5t-496.5 202.5t-180.5 565.5zM250 733q0 -140 29.5 -251t79.5 -183t119.5 -119.5t146 -67.5t163.5 -20t163.5 20t146.5 67.5t120 119.5t79.5 183t29.5 251t-29.5 250.5t-79.5 182 t-120 118.5t-146.5 66.5t-163.5 19.5t-163.5 -19.5t-146.5 -66.5t-119.5 -118.5t-79 -182t-29.5 -250.5z" />
<glyph unicode="P" horiz-adv-x="1239" d="M164 0v1462h516q45 0 87 -4.5t92 -16.5t92.5 -32t83.5 -53.5t69 -77t45.5 -106.5t17.5 -140q0 -220 -137 -343.5t-383 -123.5h-344v-565h-139zM303 692h359q81 0 145 18.5t105 49.5t67.5 75.5t37.5 93t11 105.5q0 41 -6.5 77.5t-29 79.5t-59 73t-103.5 50.5t-156 20.5 h-371v-643z" />
<glyph unicode="Q" horiz-adv-x="1576" d="M111 733q0 362 180.5 563t496.5 201t497 -201t181 -563q0 -332 -153 -530.5t-424 -231.5q40 -84 120 -127t228 -49l-4 -127q-373 34 -469 299q-305 8 -479 209.5t-174 556.5zM250 733q0 -140 29.5 -251t79.5 -183t119.5 -119.5t146 -67.5t163.5 -20t163.5 20t146.5 67.5 t120 119.5t79.5 183t29.5 251t-29.5 250.5t-79.5 182t-120 118.5t-146.5 66.5t-163.5 19.5t-163.5 -19.5t-146.5 -66.5t-119.5 -118.5t-79 -182t-29.5 -250.5z" />
<glyph unicode="R" horiz-adv-x="1312" d="M164 0v1462h541q66 0 128 -10.5t126.5 -39t112 -72.5t78 -118t30.5 -169q0 -176 -96.5 -280t-272.5 -134l420 -639h-162l-418 629h-348v-629h-139zM303 752h383q354 0 354 303q0 35 -7 69t-29.5 74.5t-58 70.5t-99.5 50t-148 20h-395v-587z" />
<glyph unicode="S" horiz-adv-x="1261" d="M88 436h139q15 -175 117.5 -259.5t304.5 -84.5q184 0 283.5 80t99.5 205q0 121 -90.5 192t-300.5 123q-65 16 -112 29.5t-104 35t-96.5 44.5t-79.5 56t-64 72t-39 91t-15 113q0 158 135.5 261t356.5 103q231 0 363 -118t140 -306h-139q-10 153 -107 225t-257 72 q-181 0 -267 -66.5t-86 -170.5q0 -121 89.5 -191t316.5 -125q270 -67 382.5 -165t112.5 -275q0 -174 -148 -293t-374 -119q-255 0 -405 123t-156 348z" />
<glyph unicode="T" horiz-adv-x="1122" d="M20 1335v127h1082v-127h-471v-1335h-139v1335h-472z" />
<glyph unicode="U" horiz-adv-x="1460" d="M164 539v923h139v-915q0 -123 33.5 -213.5t93.5 -142t134 -75.5t165 -24t165.5 24t135 75.5t94 142t33.5 213.5v915h139v-923q0 -274 -150 -424t-417 -150q-266 0 -415.5 150t-149.5 424z" />
<glyph unicode="V" horiz-adv-x="1353" d="M37 1462h149l492 -1331l496 1331h143l-553 -1462h-174z" />
<glyph unicode="W" horiz-adv-x="2070" d="M37 1462h151l381 -1331l379 1331h180l373 -1331l385 1331h148l-443 -1462h-180l-373 1335l-381 -1335h-178z" />
<glyph unicode="X" horiz-adv-x="1308" d="M37 0l532 760l-481 702h160l411 -600q14 20 180 252t248 348h154l-502 -706q88 -126 266.5 -378t266.5 -378h-166l-457 651l-452 -651h-160z" />
<glyph unicode="Y" horiz-adv-x="1347" d="M25 1462h163l498 -698l477 698h158l-567 -829v-633h-140v631z" />
<glyph unicode="Z" horiz-adv-x="1183" d="M63 0v94l871 1241h-815v127h989v-94l-870 -1241h880v-127h-1055z" />
<glyph unicode="[" d="M229 -377v1874h346v-108h-217v-1657h217v-109h-346z" />
<glyph unicode="\" horiz-adv-x="737" d="M0 1497h102l635 -1532h-104z" />
<glyph unicode="]" d="M106 -268h218v1657h-218v108h347v-1874h-347v109z" />
<glyph unicode="^" horiz-adv-x="1351" d="M150 485l473 928h106l473 -928h-119l-407 805l-408 -805h-118z" />
<glyph unicode="_" horiz-adv-x="1024" d="M0 -160h1024v-90h-1024v90z" />
<glyph unicode="`" d="M154 1497h157l217 -293h-104z" />
<glyph unicode="a" horiz-adv-x="1089" d="M92 281q0 119 64 189q62 70 214 104q143 32 383 32h29v133q0 110 -62 176t-196 66q-135 0 -207.5 -63t-72.5 -170h-127v11q1 68 23 125q24 61 64.5 100t93.5 65.5t106.5 37.5t107.5 11q197 0 300 -95.5t103 -271.5v-551q1 -48 25 -70q21 -18 80 -19q11 0 24 1v-110 q-51 -7 -79 -7q-75 0 -120.5 35.5t-58.5 120.5q-50 -65 -139.5 -110.5t-214.5 -45.5q-154 0 -247 82.5t-93 223.5zM221 281q0 -92 62 -139.5t163 -47.5q104 0 197 44.5t139 123.5v234h-44q-182 0 -296 -22q-126 -26 -173.5 -72.5t-47.5 -120.5z" />
<glyph unicode="b" horiz-adv-x="1153" d="M147 94v1368h136v-516q26 32 51.5 55t65.5 47t95.5 37t125.5 13q202 0 321 -145t119 -375q0 -133 -29.5 -237t-79.5 -172t-121.5 -112.5t-150.5 -63t-170 -18.5q-126 0 -211 32t-152 87zM283 141q90 -49 225 -49q424 0 424 479q0 61 -12.5 119t-39 111t-65 93t-95 63.5 t-124.5 23.5q-114 0 -193 -50.5t-120 -119.5v-670z" />
<glyph unicode="c" horiz-adv-x="1128" d="M92 545q0 90 16.5 169t54.5 150.5t95.5 122.5t145 81t196.5 30q104 0 189 -33.5t136.5 -87t78.5 -116.5t26 -126h-133q-10 98 -92 172t-205 74q-87 0 -155 -27t-109 -69.5t-68 -100.5t-37 -114.5t-10 -116.5q0 -216 99.5 -338.5t283.5 -122.5q117 0 202 68.5t97 187.5 h133q-8 -165 -124 -269t-308 -104q-250 0 -381 151t-131 419z" />
<glyph unicode="d" horiz-adv-x="1161" d="M92 563q0 156 64.5 279t174.5 189.5t244 66.5q187 0 310 -97v461h129v-1462h-123v94q-116 -119 -305 -119q-74 0 -142 18t-133.5 62t-113 109.5t-76.5 168t-29 230.5zM221 557q0 -105 20.5 -188t64.5 -146t117 -97t173 -34q94 0 169 35t120 98v649q-35 40 -113.5 73.5 t-189.5 33.5q-91 0 -161.5 -33t-113.5 -92t-64.5 -134.5t-21.5 -164.5z" />
<glyph unicode="e" horiz-adv-x="1032" d="M92 545q0 112 30 210.5t87 175.5t149 122t207 45q104 0 182.5 -26.5t124 -72.5t67.5 -102t22 -121q0 -84 -36 -147t-101 -100.5t-148.5 -55.5t-186.5 -18q-129 0 -266 30q12 -189 105.5 -291t259.5 -102q165 0 325 86l45 -104q-72 -45 -172.5 -72t-201.5 -27 q-240 0 -366 151t-126 419zM223 602q119 -35 266 -35q340 0 340 215q0 91 -68 145t-198 54q-161 0 -246 -102.5t-94 -276.5z" />
<glyph unicode="f" horiz-adv-x="575" d="M41 965v108h113v154q0 142 85.5 206t233.5 64q82 0 162 -14v-117q-82 14 -154 14q-101 0 -149.5 -37.5t-48.5 -125.5v-144h313v-108h-313v-965h-129v965h-113z" />
<glyph unicode="g" horiz-adv-x="1048" d="M47 -92q0 101 56.5 172t150.5 100q-92 58 -92 154q0 75 47 145q-100 100 -100 260q0 167 107 263t294 96q89 0 166 -25h307v-108h-147q71 -86 71 -226q0 -167 -105.5 -262.5t-291.5 -95.5q-133 0 -219 45q-18 -45 -18 -81q0 -10 1 -19q6 -42 52 -66t129 -24h235 q148 0 243 -82t95 -242q0 -161 -127.5 -253.5t-361.5 -92.5q-244 0 -368 87t-124 255zM170 -86q0 -118 89 -179t286 -61q73 0 133 11t113.5 36t83.5 72.5t30 114.5q0 116 -62.5 166.5t-187.5 50.5h-213q-137 0 -204.5 -56t-67.5 -155zM231 739q0 -122 73 -186t206 -64 q132 0 203 64t71 186t-71 186t-203 64q-133 0 -206 -64t-73 -186z" />
<glyph unicode="h" horiz-adv-x="1150" d="M147 0v1462h129v-538q41 71 132.5 122.5t224.5 51.5q189 0 278.5 -101.5t89.5 -271.5v-725h-129v705q0 58 -13 105.5t-41 87t-80 61.5t-124 22q-122 0 -212.5 -57.5t-125.5 -126.5v-797h-129z" />
<glyph unicode="i" horiz-adv-x="460" d="M141 1370q0 37 26.5 63.5t63.5 26.5q34 0 60 -27t26 -63q0 -40 -25.5 -67t-60.5 -27q-37 0 -63.5 26.5t-26.5 67.5zM166 0v1073h129v-1073h-129z" />
<glyph unicode="j" horiz-adv-x="460" d="M-59 -274q20 -2 61 -2q54 0 87.5 14.5t50 46.5t21.5 67.5t5 92.5v1128h129v-1165q0 -299 -262 -299q-57 0 -92 2v115zM141 1370q0 37 26.5 63.5t63.5 26.5q34 0 60 -27t26 -63q0 -40 -25.5 -67t-60.5 -27q-37 0 -63.5 26.5t-26.5 67.5z" />
<glyph unicode="k" horiz-adv-x="999" d="M139 0v1462h129v-809h183l370 420h152l-410 -477l410 -596h-156l-368 532h-181v-532h-129z" />
<glyph unicode="l" horiz-adv-x="493" d="M147 203v1259h129v-1243q0 -127 152 -127h14v-112q-45 -5 -55 -5q-109 0 -174.5 56t-65.5 172z" />
<glyph unicode="m" horiz-adv-x="1798" d="M147 0v1073h123v-143q42 70 129 119t197 49q259 0 342 -189q120 189 342 189q97 0 169.5 -28t115.5 -79.5t63.5 -117.5t20.5 -148v-725h-129v723q0 57 -12 101t-40 81t-79.5 56.5t-124.5 19.5q-107 0 -186 -57t-113 -125v-799h-129v723q0 57 -12 101t-40 81t-79.5 56.5 t-124.5 19.5q-108 0 -190 -57.5t-114 -124.5v-799h-129z" />
<glyph unicode="n" horiz-adv-x="1150" d="M147 0v1073h123v-149q40 70 135 122t228 52q189 0 278.5 -101.5t89.5 -271.5v-725h-129v705q0 58 -13 105.5t-41 87t-80 61.5t-124 22q-122 0 -212.5 -57.5t-125.5 -126.5v-797h-129z" />
<glyph unicode="o" horiz-adv-x="1204" d="M92 535q0 265 134 414t376 149q241 0 375.5 -149t134.5 -414q0 -262 -134.5 -411t-375.5 -149q-242 0 -376 149t-134 411zM221 535q0 -208 100 -325.5t281 -117.5t281 117.5t100 325.5q0 211 -100 328.5t-281 117.5t-281 -117.5t-100 -328.5z" />
<glyph unicode="p" horiz-adv-x="1171" d="M147 -391v1429q194 60 390 60q117 0 209.5 -27t154 -74t102 -115t58.5 -146.5t18 -172.5q0 -133 -30.5 -236t-81.5 -168.5t-124.5 -107.5t-152.5 -59t-172 -17q-124 0 -242 52v-418h-129zM276 133q107 -41 244 -41q216 0 323 115t107 350q0 87 -21 160t-65.5 134 t-123 95.5t-185.5 34.5q-184 0 -279 -29v-819z" />
<glyph unicode="q" horiz-adv-x="1161" d="M92 567q0 245 148 388t401 143q89 0 182.5 -13.5t142.5 -26.5l48 -14v-1435h-129v422q-119 -56 -240 -56q-92 0 -170.5 17.5t-150.5 60.5t-122 109.5t-80 169.5t-30 235zM221 563q0 -243 104 -357t316 -114q148 0 244 47v815q-120 27 -258 27q-191 0 -298.5 -114 t-107.5 -304z" />
<glyph unicode="r" horiz-adv-x="671" d="M147 0v1073h129v-166q132 191 342 191q44 0 84 -6v-117q-40 6 -77 6q-127 0 -214.5 -61.5t-138.5 -159.5v-760h-125z" />
<glyph unicode="s" horiz-adv-x="1062" d="M94 330h129q9 -122 89 -180t239 -58q135 0 212 53t77 134q0 75 -70 119t-227 81q-84 20 -137.5 36t-110.5 43t-89 60t-52.5 83.5t-20.5 115.5q0 120 107 200.5t280 80.5q183 0 294 -95t116 -243h-129q-7 113 -84.5 167t-196.5 54q-132 0 -195 -47t-63 -117 q0 -93 60.5 -135.5t248.5 -85.5q213 -48 305.5 -120t92.5 -197q0 -128 -120 -216t-298 -88q-208 0 -330.5 92.5t-126.5 262.5z" />
<glyph unicode="t" horiz-adv-x="731" d="M53 965v36l207 230h39v-158h369v-108h-369v-639q0 -238 213 -238q116 0 219 33v-101q-76 -45 -227 -45q-70 0 -126 15t-105.5 51t-77 106t-27.5 170v648h-115z" />
<glyph unicode="u" horiz-adv-x="1144" d="M147 350v723h129v-725q0 -256 259 -256q120 0 210 58t121 126v797h129v-1073h-123v152q-42 -71 -133 -124t-223 -53q-191 0 -280 102t-89 273z" />
<glyph unicode="v" horiz-adv-x="991" d="M35 1073h133l338 -895l321 895h129l-387 -1073h-125z" />
<glyph unicode="w" horiz-adv-x="1474" d="M31 1073h129l262 -866l248 866h135l256 -866l252 866h131l-324 -1073h-129l-254 874l-252 -874h-131z" />
<glyph unicode="x" horiz-adv-x="1015" d="M37 0l391 561l-369 512h158l289 -409l293 409h151l-364 -512l393 -561h-154l-319 463l-324 -463h-145z" />
<glyph unicode="y" horiz-adv-x="1017" d="M37 1073h143l359 -909l307 909h135q-125 -345 -225.5 -624t-138.5 -384.5t-62 -168.5q-51 -135 -149.5 -211t-225.5 -76q-30 0 -63 6v119q37 -4 80 -4q106 0 163.5 67t104.5 213z" />
<glyph unicode="z" horiz-adv-x="927" d="M68 0v82l602 879h-553v112h717v-82l-605 -878h631v-113h-792z" />
<glyph unicode="{" d="M104 522v96q50 1 82.5 14.5t46.5 38.5t18.5 47.5t4.5 55.5v483q0 133 76 198t209 65h34v-101h-28q-89 0 -125.5 -46t-36.5 -136v-440q0 -182 -156 -224v-6q78 -21 117 -74.5t39 -148.5v-440q0 -90 36.5 -136.5t125.5 -46.5h28v-100h-34q-133 0 -209 64.5t-76 197.5v484 q0 33 -4.5 55.5t-18.5 47.5t-46.5 38t-82.5 14z" />
<glyph unicode="|" horiz-adv-x="454" d="M172 -512v2050h109v-2050h-109z" />
<glyph unicode="}" d="M104 -279h29q89 0 125.5 46.5t36.5 136.5v440q0 95 39 148.5t117 74.5v6q-156 42 -156 224v440q0 90 -36.5 136t-125.5 46h-29v101h35q133 0 209 -65t76 -198v-483q0 -26 2 -44t10.5 -40.5t24 -36.5t44.5 -24t70 -11v-96q-50 -1 -82.5 -14t-46.5 -38t-18 -47.5t-4 -55.5 v-484q0 -133 -76 -197.5t-209 -64.5h-35v100z" />
<glyph unicode="~" horiz-adv-x="1351" d="M172 483q61 71 126.5 112.5t152.5 41.5q48 0 111.5 -24t164.5 -72q112 -56 178 -56q111 0 236 136l37 -86q-130 -156 -275 -156q-13 0 -27 1.5t-24.5 3.5t-28 8t-27.5 9t-34.5 14t-36 16t-45.5 20.5t-51 23.5q-120 55 -174 55q-133 0 -244 -133z" />
<glyph unicode="&#xa1;" horiz-adv-x="569" d="M190 909q0 41 26.5 70t68.5 29t68 -29t26 -70q0 -36 -27 -64t-67 -28q-39 0 -67 28t-28 64zM217 18l33 623h72l32 -623v-481h-137v481z" />
<glyph unicode="&#xa2;" horiz-adv-x="1167" d="M121 547q0 107 25 199.5t76.5 169t138.5 124.5t202 56v170h80v-170q95 -5 173 -41t126 -90t74 -117t26 -127h-129q-12 112 -84.5 181.5t-185.5 80.5v-893q122 9 191 79.5t84 190.5h129q-3 -66 -30.5 -130t-76.5 -119.5t-126 -92t-171 -41.5v-215h-80v215 q-213 17 -327.5 167.5t-114.5 402.5zM250 547q0 -199 79 -319.5t234 -137.5v893q-313 -29 -313 -436z" />
<glyph unicode="&#xa3;" horiz-adv-x="1167" d="M63 16q80 96 168 224q50 91 70.5 156.5t20.5 131.5q0 54 -25 117h-205v92h174l-73 148q-52 111 -52 198q0 111 58.5 195t154 126t213.5 42q101 0 186 -34t143 -91.5t94 -130t48 -154.5h-127q-26 136 -121 216.5t-223 80.5q-137 0 -217 -69.5t-80 -186.5q0 -49 24.5 -114 t62.5 -138t44 -88h336v-92h-305q2 -9 7 -29t7.5 -36t2.5 -33q0 -118 -53.5 -220.5t-172.5 -209.5l4 -4q86 57 156 57q77 0 212.5 -41t229.5 -41q59 0 107 27t110 88l60 -97q-141 -131 -293 -131q-88 0 -232 41t-212 41q-105 0 -238 -82z" />
<glyph unicode="&#xa4;" horiz-adv-x="1167" d="M90 299l117 115q-53 76 -77 143.5t-24 147.5q0 87 23.5 153t77.5 137l-117 115l84 90l119 -119q71 53 137 78t154 25q90 0 156 -24.5t134 -78.5l115 115l86 -88l-114 -113q55 -70 78.5 -137.5t23.5 -157.5q0 -88 -23 -153t-77 -133l110 -113l-82 -90l-117 117 q-69 -54 -137.5 -78.5t-154.5 -24.5q-87 0 -154 24t-135 79l-115 -117zM236 707q0 -156 102.5 -263.5t245.5 -107.5q146 0 248 107.5t102 258.5q0 153 -101 263t-247 110q-149 0 -249.5 -110t-100.5 -258z" />
<glyph unicode="&#xa5;" horiz-adv-x="1167" d="M10 1434h146l428 -715l428 715h143l-453 -719h238v-92h-283l-12 -21v-149h295v-93h-293v-360h-131v360h-295v93h295v149l-12 21h-283v92h236z" />
<glyph unicode="&#xa6;" horiz-adv-x="454" d="M172 -244v676h111v-676h-111zM172 739v676h111v-676h-111z" />
<glyph unicode="&#xa7;" horiz-adv-x="1138" d="M102 729q0 86 45 148t136 120q-70 79 -70 189q0 130 98 220.5t256 90.5q47 0 95 -10.5t99 -37t91 -67t69.5 -106.5t36.5 -148h-124q-2 30 -13.5 63.5t-34.5 66.5t-53 59t-73.5 42.5t-92.5 16.5q-90 0 -157.5 -50t-67.5 -134q0 -28 6.5 -52t24.5 -48t35 -42t53 -45 t62.5 -44.5t78.5 -51.5q11 -7 61.5 -39.5t72.5 -47t70 -49t72.5 -57.5t59.5 -60.5t53 -69t31.5 -72t13.5 -80.5q0 -85 -44.5 -146.5t-135.5 -119.5q70 -82 70 -188q0 -130 -98.5 -221t-256.5 -91q-47 0 -95 10.5t-99 37t-91 67t-69.5 106.5t-36.5 148h125q2 -39 20.5 -81 t50.5 -80t83 -62.5t112 -24.5q90 0 158 50t68 132q0 72 -48 122t-172 134q-26 17 -40 27l-103 70q-53 36 -77 52.5t-67.5 49t-64 53t-49 53t-41.5 60t-23 63.5t-10 74zM225 727q0 -72 71.5 -142.5t203.5 -156.5l262 -182q50 22 100.5 77t50.5 113q0 37 -20.5 74.5t-65 78.5 t-83 70t-105.5 76l-260 183q-73 -36 -113.5 -81.5t-40.5 -109.5z" />
<glyph unicode="&#xa8;" d="M88 1333q0 37 26.5 63.5t63.5 26.5q34 0 60 -27t26 -63q0 -40 -25.5 -67t-60.5 -27q-37 0 -63.5 26.5t-26.5 67.5zM412 1333q0 37 26.5 63.5t63.5 26.5q34 0 60 -27t26 -63q0 -40 -25.5 -67t-60.5 -27q-37 0 -63.5 26.5t-26.5 67.5z" />
<glyph unicode="&#xa9;" horiz-adv-x="1638" d="M61 733q0 122 36 237t104.5 210t160.5 166.5t210 111t247 39.5q162 0 304.5 -61.5t241 -165.5t155.5 -244t57 -293q0 -154 -57 -294t-155.5 -244.5t-241 -166t-304.5 -61.5q-161 0 -303.5 61.5t-241.5 166t-156 244.5t-57 294zM178 733q0 -137 48 -259t132 -210t204 -139 t257 -51t257 51t204.5 139t133 210t48.5 259t-48.5 258.5t-133 209.5t-204.5 139t-257 51t-257 -51t-204 -139t-132 -209.5t-48 -258.5zM393 743q0 76 15 145t49 130.5t84.5 106t125.5 70.5t167 26q83 0 153 -28.5t115.5 -74.5t71.5 -100.5t30 -110.5h-112q-19 85 -85 143 t-173 58q-324 0 -324 -360q0 -184 82.5 -289t247.5 -105q97 0 167.5 59t90.5 158h110q-19 -140 -119 -234.5t-249 -94.5q-214 0 -330.5 133t-116.5 368z" />
<glyph unicode="&#xaa;" horiz-adv-x="684" d="M57 942q0 115 90 166t306 51v68q0 64 -33.5 99.5t-97.5 35.5q-73 0 -110.5 -37t-37.5 -102h-96q0 80 36.5 132t89 71.5t118.5 19.5q110 0 168.5 -58.5t58.5 -166.5v-326q0 -27 9 -37t40 -10h27v-78q-25 -6 -54 -6q-95 0 -112 76q-32 -34 -85 -55t-114 -21 q-85 0 -144 44.5t-59 133.5zM154 942q0 -46 33.5 -70t80.5 -24q55 0 109 33t76 88v106q-125 -2 -192 -19t-87 -43t-20 -71z" />
<glyph unicode="&#xab;" horiz-adv-x="778" d="M57 506v94l338 299v-135l-243 -211l243 -207v-133zM383 506v94l338 299v-135l-244 -211l244 -207v-133z" />
<glyph unicode="&#xac;" horiz-adv-x="1351" d="M178 666v108h993v-510h-108v402h-885z" />
<glyph unicode="&#xad;" d="M82 469v127h518v-127h-518z" />
<glyph unicode="&#xae;" horiz-adv-x="1638" d="M61 733q0 152 59.5 292.5t160.5 244t242 165.5t296 62q156 0 297 -62t241.5 -165.5t160 -244t59.5 -292.5q0 -153 -59.5 -294t-160 -244.5t-241.5 -165.5t-297 -62q-155 0 -296 62t-242 165.5t-160.5 244.5t-59.5 294zM178 733q0 -136 51 -259t137 -210.5t204.5 -138.5 t248.5 -51q131 0 249.5 51t205 138.5t137.5 210.5t51 259q0 181 -86.5 332.5t-234 238.5t-322.5 87q-174 0 -321 -87t-233.5 -238.5t-86.5 -332.5zM535 272v920h286q138 0 213.5 -27t105 -81t29.5 -152q0 -107 -57.5 -173t-181.5 -93q47 -65 148.5 -201t142.5 -193h-140 l-282 377h-150v-377h-114zM649 758h133q109 0 168 18t81 53.5t22 98.5q0 25 -3.5 45t-8 35.5t-16 27t-21.5 19.5t-30 13.5t-35.5 8.5t-45 4t-51 1.5t-60.5 0.5h-133v-325z" />
<glyph unicode="&#xaf;" d="M25 1298v93h632v-93h-632z" />
<glyph unicode="&#xb0;" horiz-adv-x="819" d="M133 1161q0 117 80 197t197 80t196.5 -80t79.5 -197t-79.5 -196.5t-196.5 -79.5t-197 79.5t-80 196.5zM223 1161q0 -83 53 -139.5t134 -56.5t133.5 56.5t52.5 139.5t-52.5 140t-133.5 57t-134 -57t-53 -140z" />
<glyph unicode="&#xb1;" horiz-adv-x="1351" d="M178 0v109h996v-109h-996zM178 553v109h445v362h106v-362h445v-109h-445v-379h-106v379h-445z" />
<glyph unicode="&#xb2;" horiz-adv-x="798" d="M106 561q-6 118 62.5 212.5t208.5 199.5q107 80 159 139.5t52 110.5q0 58 -44.5 100.5t-133.5 42.5q-78 0 -124 -46t-57 -118h-96q6 63 33.5 112t68 76.5t85.5 41.5t90 14q128 0 201 -56.5t73 -166.5q0 -51 -22 -96t-59 -81t-82 -70t-92.5 -69t-89.5 -71.5t-75.5 -84.5 t-46.5 -102h477v-88h-588z" />
<glyph unicode="&#xb3;" horiz-adv-x="798" d="M106 770h97q3 -61 53 -104t137 -43q99 0 151 53.5t52 116.5q0 86 -70.5 133t-165.5 47h-100v80h100q119 0 168.5 50t49.5 118q0 59 -48.5 102t-130.5 43q-178 0 -188 -166h-96q-1 64 23 113t66 77t91 42t104 14q124 0 199.5 -57t75.5 -168q0 -156 -139 -205 q79 -25 118 -84.5t39 -138.5q0 -110 -88.5 -180t-214.5 -70q-46 0 -90 10.5t-87.5 34.5t-72.5 71t-33 111z" />
<glyph unicode="&#xb4;" d="M154 1204l217 293h157l-270 -293h-104z" />
<glyph unicode="&#xb5;" horiz-adv-x="1144" d="M147 -391v1464h129v-725q0 -260 259 -260q119 0 209.5 59.5t121.5 128.5v797h129v-1073h-123v152q-42 -71 -133 -124t-223 -53q-148 0 -240 66v-432h-129z" />
<glyph unicode="&#xb6;" horiz-adv-x="1138" d="M113 1067q0 183 109 289t310 106h492v-1822h-129v1714h-244v-1714h-129v1032q-193 3 -301 114.5t-108 280.5z" />
<glyph unicode="&#xb7;" horiz-adv-x="471" d="M141 647q0 36 28 64t67 28q40 0 67 -28t27 -64q0 -41 -26 -69.5t-68 -28.5t-68.5 28.5t-26.5 69.5z" />
<glyph unicode="&#xb8;" d="M141 -403l27 69q59 -35 149 -35q119 0 119 84q0 90 -119 90q-69 0 -129 -34l-26 69q81 47 180 47q197 0 197 -172q0 -87 -55.5 -127.5t-153.5 -40.5q-91 0 -189 50z" />
<glyph unicode="&#xb9;" horiz-adv-x="798" d="M190 1233l250 192h45v-864h-96v715l-145 -109z" />
<glyph unicode="&#xba;" horiz-adv-x="684" d="M51 1106q0 64 15.5 122t48 108t90.5 80t135 30t135.5 -30t91 -80t48.5 -108t16 -122t-16 -122.5t-48.5 -109t-91 -80.5t-135.5 -30t-135 30t-90.5 81t-48 109t-15.5 122zM147 1106q0 -32 3.5 -62t16 -67t32.5 -64.5t56.5 -46t84.5 -18.5q49 0 85.5 18.5t57 46t33 64.5 t16 67t3.5 62q0 42 -7 80t-26 81t-60.5 69t-101.5 26q-48 0 -84.5 -18t-56.5 -45t-32.5 -63.5t-16 -67t-3.5 -62.5z" />
<glyph unicode="&#xbb;" horiz-adv-x="778" d="M57 213v133l244 207l-244 211v135l338 -299v-94zM383 213v133l244 207l-244 211v135l338 -299v-94z" />
<glyph unicode="&#xbc;" horiz-adv-x="1708" d="M158 1233l250 192h45v-864h-97v715l-145 -109zM283 -70l927 1555h97l-926 -1555h-98zM911 209v84l406 571h104v-571h127v-84h-127v-209h-96v209h-414zM1018 293h307l-2 420z" />
<glyph unicode="&#xbd;" horiz-adv-x="1708" d="M133 1233l250 192h45v-864h-96v715l-146 -109zM258 -70l928 1555h96l-926 -1555h-98zM987 0q-4 82 31.5 156t91 130.5t147.5 125.5q107 80 159 139.5t52 110.5q0 58 -44.5 100.5t-133.5 42.5q-78 0 -123.5 -46t-56.5 -118h-96q6 63 33.5 112t68 76.5t85 41.5t89.5 14 q128 0 201.5 -56.5t73.5 -166.5q0 -51 -22 -96t-59 -81t-82 -70t-92.5 -69t-89.5 -71.5t-75.5 -84.5t-46.5 -102h477v-88h-588z" />
<glyph unicode="&#xbe;" horiz-adv-x="1708" d="M111 770h96q3 -61 53 -104t137 -43q99 0 151 53.5t52 116.5q0 86 -70 133t-165 47h-101v80h101q63 0 108 15.5t67.5 41.5t32 53t9.5 58q0 59 -48.5 102t-130.5 43q-178 0 -188 -166h-96q-1 64 23 113t66 77t91 42t104 14q124 0 199.5 -57t75.5 -168q0 -156 -139 -205 q79 -25 118 -84.5t39 -138.5q0 -110 -88.5 -180t-214.5 -70q-36 0 -71 6t-72.5 22t-66 41t-49 65.5t-23.5 92.5zM412 -70l927 1555h97l-926 -1555h-98zM961 209v84l405 571h104v-571h127v-84h-127v-209h-96v209h-413zM1067 293h307l-2 420z" />
<glyph unicode="&#xbf;" horiz-adv-x="1024" d="M80 -135q0 30 3 56t14.5 52t19 44t31 45t34.5 40t46.5 44.5t50.5 44t61 51.5q53 44 83.5 87.5t50 120.5t18.5 187h129q0 -297 -193 -463q-11 -9 -48.5 -39t-52.5 -43t-43.5 -43t-40.5 -53t-23 -57t-11 -70q0 -81 43.5 -140.5t107.5 -86.5t136 -27q158 0 237.5 91 t79.5 245h129q0 -205 -118.5 -327t-331.5 -122q-65 0 -125 14.5t-112 44t-91 72t-61.5 102t-22.5 130.5zM461 909q0 41 26 70t68 29t68 -29t26 -70q0 -36 -27.5 -64t-66.5 -28q-40 0 -67 28t-27 64z" />
<glyph unicode="&#xc0;" horiz-adv-x="1445" d="M31 0l626 1462h129l629 -1462h-149l-193 455h-706l-189 -455h-147zM416 573h606l-305 723zM463 1872h158l217 -293h-105z" />
<glyph unicode="&#xc1;" horiz-adv-x="1445" d="M31 0l626 1462h129l629 -1462h-149l-193 455h-706l-189 -455h-147zM416 573h606l-305 723zM592 1579l217 293h158l-271 -293h-104z" />
<glyph unicode="&#xc2;" horiz-adv-x="1445" d="M31 0l626 1462h129l629 -1462h-149l-193 455h-706l-189 -455h-147zM416 573h606l-305 723zM420 1579l239 293h125l240 -293h-131l-172 219l-170 -219h-131z" />
<glyph unicode="&#xc3;" horiz-adv-x="1445" d="M31 0l626 1462h129l629 -1462h-149l-193 455h-706l-189 -455h-147zM416 573h606l-305 723zM420 1620q0 82 44.5 143.5t119.5 61.5q55 0 170 -68q75 -43 110 -43q32 0 53 34t21 77h86q0 -79 -44.5 -142t-121.5 -63q-60 0 -149 55q-86 56 -131 56q-33 0 -52.5 -34 t-19.5 -77h-86z" />
<glyph unicode="&#xc4;" horiz-adv-x="1445" d="M31 0l626 1462h129l629 -1462h-149l-193 455h-706l-189 -455h-147zM416 573h606l-305 723zM471 1708q0 37 26.5 63.5t63.5 26.5q34 0 60 -27t26 -63q0 -40 -25.5 -67t-60.5 -27q-37 0 -63.5 26.5t-26.5 67.5zM795 1708q0 37 26.5 63.5t63.5 26.5q34 0 60 -27t26 -63 q0 -40 -25.5 -67t-60.5 -27q-37 0 -63.5 26.5t-26.5 67.5z" />
<glyph unicode="&#xc5;" horiz-adv-x="1445" d="M31 0l626 1462h129l629 -1462h-149l-193 455h-706l-189 -455h-147zM416 573h606l-305 723zM506 1739q0 96 60 158.5t157 62.5t156 -62t59 -159q0 -90 -60.5 -150.5t-154.5 -60.5t-155.5 60.5t-61.5 150.5zM582 1739q0 -54 39.5 -95.5t101.5 -41.5t101.5 41.5t39.5 95.5 q0 61 -39.5 105t-101.5 44t-101.5 -44t-39.5 -105z" />
<glyph unicode="&#xc6;" horiz-adv-x="1898" d="M31 0l755 1462h1010v-127h-696v-518h608v-127h-608v-567h717v-123h-856v483h-541l-244 -483h-145zM481 610h480v725h-103z" />
<glyph unicode="&#xc7;" horiz-adv-x="1501" d="M111 733q0 363 183 563.5t507 200.5q226 0 379 -114.5t186 -329.5h-139q-11 71 -41.5 126.5t-71 90.5t-93.5 58t-107 32.5t-113 9.5q-90 0 -168.5 -19.5t-150 -66.5t-122 -118.5t-80.5 -182t-30 -250.5t30 -251t80.5 -183t122 -119.5t150 -67.5t168.5 -20q78 0 149 19 t135.5 58.5t109.5 110.5t60 166h140q-32 -222 -197.5 -351.5t-396.5 -129.5q-324 0 -507 202t-183 566zM594 -403l27 69q59 -35 149 -35q119 0 119 84q0 90 -119 90q-70 0 -129 -34l-27 69q81 47 181 47q96 0 146 -40.5t50 -131.5q0 -87 -55.5 -127.5t-153.5 -40.5 q-90 0 -188 50z" />
<glyph unicode="&#xc8;" horiz-adv-x="1101" d="M164 0v1462h835v-127h-696v-516h608v-127h-608v-565h717v-127h-856zM293 1872h158l217 -293h-105z" />
<glyph unicode="&#xc9;" horiz-adv-x="1101" d="M164 0v1462h835v-127h-696v-516h608v-127h-608v-565h717v-127h-856zM424 1579l217 293h158l-271 -293h-104z" />
<glyph unicode="&#xca;" horiz-adv-x="1101" d="M164 0v1462h835v-127h-696v-516h608v-127h-608v-565h717v-127h-856zM289 1579l239 293h125l240 -293h-131l-172 219l-170 -219h-131z" />
<glyph unicode="&#xcb;" horiz-adv-x="1101" d="M164 0v1462h835v-127h-696v-516h608v-127h-608v-565h717v-127h-856zM340 1708q0 37 26.5 63.5t63.5 26.5q34 0 60 -27t26 -63q0 -40 -25.5 -67t-60.5 -27q-37 0 -63.5 26.5t-26.5 67.5zM664 1708q0 37 26.5 63.5t63.5 26.5q34 0 60 -27t26 -63q0 -40 -25.5 -67t-60.5 -27 q-37 0 -63.5 26.5t-26.5 67.5z" />
<glyph unicode="&#xcc;" horiz-adv-x="569" d="M33 1872h157l218 -293h-105zM215 0v1462h139v-1462h-139z" />
<glyph unicode="&#xcd;" horiz-adv-x="569" d="M164 1579l217 293h158l-271 -293h-104zM215 0v1462h139v-1462h-139z" />
<glyph unicode="&#xce;" horiz-adv-x="569" d="M-16 1579l239 293h125l240 -293h-131l-172 219l-170 -219h-131zM215 0v1462h139v-1462h-139z" />
<glyph unicode="&#xcf;" horiz-adv-x="569" d="M33 1708q0 37 26.5 63.5t63.5 26.5q34 0 60 -27t26 -63q0 -40 -25.5 -67t-60.5 -27q-37 0 -63.5 26.5t-26.5 67.5zM215 0v1462h139v-1462h-139zM356 1708q0 37 26.5 63.5t63.5 26.5q34 0 60 -27t26 -63q0 -40 -25.5 -67t-60.5 -27q-37 0 -63.5 26.5t-26.5 67.5z" />
<glyph unicode="&#xd0;" horiz-adv-x="1445" d="M16 713v92h148v657h479q692 0 692 -729q0 -127 -23.5 -235.5t-76.5 -201t-133 -157.5t-197.5 -102t-265.5 -37h-475v713h-148zM303 127h344q89 0 166 17t149 60.5t122.5 110.5t81 173.5t30.5 244.5q0 116 -20 209.5t-51.5 155.5t-80 107.5t-95.5 69.5t-108 38.5 t-107.5 18t-104.5 3.5h-326v-530h483v-92h-483v-586z" />
<glyph unicode="&#xd1;" horiz-adv-x="1497" d="M164 0v1462h180l850 -1280v1280h139v-1462h-170l-860 1292v-1292h-139zM446 1620q0 82 44.5 143.5t119.5 61.5q55 0 170 -68q75 -43 111 -43q32 0 53 34t21 77h86q0 -79 -44.5 -142t-121.5 -63q-61 0 -150 55q-86 56 -131 56q-33 0 -52.5 -34t-19.5 -77h-86z" />
<glyph unicode="&#xd2;" horiz-adv-x="1576" d="M111 733q0 362 180.5 563t496.5 201t497 -201t181 -563q0 -363 -181 -565.5t-497 -202.5t-496.5 202.5t-180.5 565.5zM250 733q0 -140 29.5 -251t79.5 -183t119.5 -119.5t146 -67.5t163.5 -20t163.5 20t146.5 67.5t120 119.5t79.5 183t29.5 251t-29.5 250.5t-79.5 182 t-120 118.5t-146.5 66.5t-163.5 19.5t-163.5 -19.5t-146.5 -66.5t-119.5 -118.5t-79 -182t-29.5 -250.5zM535 1872h157l217 -293h-104z" />
<glyph unicode="&#xd3;" horiz-adv-x="1576" d="M111 733q0 362 180.5 563t496.5 201t497 -201t181 -563q0 -363 -181 -565.5t-497 -202.5t-496.5 202.5t-180.5 565.5zM250 733q0 -140 29.5 -251t79.5 -183t119.5 -119.5t146 -67.5t163.5 -20t163.5 20t146.5 67.5t120 119.5t79.5 183t29.5 251t-29.5 250.5t-79.5 182 t-120 118.5t-146.5 66.5t-163.5 19.5t-163.5 -19.5t-146.5 -66.5t-119.5 -118.5t-79 -182t-29.5 -250.5zM666 1579l217 293h157l-270 -293h-104z" />
<glyph unicode="&#xd4;" horiz-adv-x="1576" d="M111 733q0 362 180.5 563t496.5 201t497 -201t181 -563q0 -363 -181 -565.5t-497 -202.5t-496.5 202.5t-180.5 565.5zM250 733q0 -140 29.5 -251t79.5 -183t119.5 -119.5t146 -67.5t163.5 -20t163.5 20t146.5 67.5t120 119.5t79.5 183t29.5 251t-29.5 250.5t-79.5 182 t-120 118.5t-146.5 66.5t-163.5 19.5t-163.5 -19.5t-146.5 -66.5t-119.5 -118.5t-79 -182t-29.5 -250.5zM485 1579l240 293h125l240 -293h-132l-172 219l-170 -219h-131z" />
<glyph unicode="&#xd5;" horiz-adv-x="1576" d="M111 733q0 362 180.5 563t496.5 201t497 -201t181 -563q0 -363 -181 -565.5t-497 -202.5t-496.5 202.5t-180.5 565.5zM250 733q0 -140 29.5 -251t79.5 -183t119.5 -119.5t146 -67.5t163.5 -20t163.5 20t146.5 67.5t120 119.5t79.5 183t29.5 251t-29.5 250.5t-79.5 182 t-120 118.5t-146.5 66.5t-163.5 19.5t-163.5 -19.5t-146.5 -66.5t-119.5 -118.5t-79 -182t-29.5 -250.5zM485 1620q0 82 44.5 143.5t119.5 61.5q55 0 170 -68q75 -43 111 -43q32 0 53 34t21 77h86q0 -79 -44.5 -142t-121.5 -63q-61 0 -150 55q-86 56 -131 56 q-33 0 -52.5 -34t-19.5 -77h-86z" />
<glyph unicode="&#xd6;" horiz-adv-x="1576" d="M111 733q0 362 180.5 563t496.5 201t497 -201t181 -563q0 -363 -181 -565.5t-497 -202.5t-496.5 202.5t-180.5 565.5zM250 733q0 -140 29.5 -251t79.5 -183t119.5 -119.5t146 -67.5t163.5 -20t163.5 20t146.5 67.5t120 119.5t79.5 183t29.5 251t-29.5 250.5t-79.5 182 t-120 118.5t-146.5 66.5t-163.5 19.5t-163.5 -19.5t-146.5 -66.5t-119.5 -118.5t-79 -182t-29.5 -250.5zM537 1708q0 37 26.5 63.5t63.5 26.5q34 0 60 -27t26 -63q0 -40 -25.5 -67t-60.5 -27q-37 0 -63.5 26.5t-26.5 67.5zM860 1708q0 37 26.5 63.5t63.5 26.5q34 0 60 -27 t26 -63q0 -40 -25.5 -67t-60.5 -27q-37 0 -63.5 26.5t-26.5 67.5z" />
<glyph unicode="&#xd7;" horiz-adv-x="1351" d="M193 113l399 403l-385 389l74 74l387 -387l403 399l74 -76l-402 -401l414 -412l-76 -75l-411 413l-402 -401z" />
<glyph unicode="&#xd8;" horiz-adv-x="1576" d="M102 43l152 170q-143 197 -143 520q0 362 180.5 563t496.5 201q291 0 469 -172l140 156l78 -78l-146 -162q137 -198 137 -508q0 -363 -181 -565.5t-497 -202.5q-282 0 -458 162l-144 -160zM250 733q0 -261 98 -418l819 910q-139 145 -379 145q-87 0 -163.5 -19.5 t-146.5 -66.5t-119.5 -118.5t-79 -182t-29.5 -250.5zM420 227q138 -135 368 -135q87 0 163.5 20t146.5 67.5t120 119.5t79.5 183t29.5 251q0 246 -92 404z" />
<glyph unicode="&#xd9;" horiz-adv-x="1460" d="M164 539v923h139v-915q0 -123 33.5 -213.5t93.5 -142t134 -75.5t165 -24t165.5 24t135 75.5t94 142t33.5 213.5v915h139v-923q0 -274 -150 -424t-417 -150q-266 0 -415.5 150t-149.5 424zM481 1872h158l217 -293h-104z" />
<glyph unicode="&#xda;" horiz-adv-x="1460" d="M164 539v923h139v-915q0 -123 33.5 -213.5t93.5 -142t134 -75.5t165 -24t165.5 24t135 75.5t94 142t33.5 213.5v915h139v-923q0 -274 -150 -424t-417 -150q-266 0 -415.5 150t-149.5 424zM608 1579l217 293h158l-270 -293h-105z" />
<glyph unicode="&#xdb;" horiz-adv-x="1460" d="M164 539v923h139v-915q0 -123 33.5 -213.5t93.5 -142t134 -75.5t165 -24t165.5 24t135 75.5t94 142t33.5 213.5v915h139v-923q0 -274 -150 -424t-417 -150q-266 0 -415.5 150t-149.5 424zM428 1579l240 293h125l239 -293h-131l-172 219l-170 -219h-131z" />
<glyph unicode="&#xdc;" horiz-adv-x="1460" d="M164 539v923h139v-915q0 -123 33.5 -213.5t93.5 -142t134 -75.5t165 -24t165.5 24t135 75.5t94 142t33.5 213.5v915h139v-923q0 -274 -150 -424t-417 -150q-266 0 -415.5 150t-149.5 424zM477 1708q0 37 26.5 63.5t63.5 26.5q34 0 60 -27t26 -63q0 -40 -25.5 -67 t-60.5 -27q-37 0 -63.5 26.5t-26.5 67.5zM801 1708q0 37 26.5 63.5t63.5 26.5q34 0 60 -27t26 -63q0 -40 -25.5 -67t-60.5 -27q-37 0 -63.5 26.5t-26.5 67.5z" />
<glyph unicode="&#xdd;" horiz-adv-x="1347" d="M25 1462h163l498 -698l477 698h158l-567 -829v-633h-140v631zM553 1579l217 293h158l-271 -293h-104z" />
<glyph unicode="&#xde;" horiz-adv-x="1239" d="M164 0v1462h139v-241h377q45 0 87 -4.5t92 -16.5t92.5 -32t83.5 -53.5t69 -77t45.5 -106.5t17.5 -140q0 -220 -137 -341.5t-383 -121.5h-344v-328h-139zM303 455h359q81 0 145 18t105 48.5t67.5 74t37.5 92t11 105.5q0 41 -6.5 77.5t-29 79.5t-59 73t-103.5 50.5 t-156 20.5h-371v-639z" />
<glyph unicode="&#xdf;" horiz-adv-x="1077" d="M106 0v1092q0 194 102.5 299.5t305.5 105.5q98 0 175 -28.5t123.5 -77.5t70.5 -111t24 -133q0 -45 -9.5 -89t-33.5 -94t-74.5 -91.5t-123.5 -63.5v-4q149 -19 238 -121t89 -268q0 -95 -28.5 -171.5t-75 -126t-109 -82.5t-125.5 -47t-129 -14q-93 0 -155 19v119 q51 -21 147 -21q148 0 247 82.5t99 241.5q0 151 -82 229.5t-225 83.5q-61 2 -186 2v117q70 0 129.5 9.5t111.5 32t88.5 56t57 83.5t20.5 114q0 103 -70 170t-194 67q-278 0 -278 -282v-1098h-130z" />
<glyph unicode="&#xe0;" horiz-adv-x="1089" d="M92 281q0 119 63.5 189t215 104t411.5 32v133q0 110 -62 176t-196 66q-135 0 -207.5 -63t-72.5 -170h-127q-2 75 22.5 136t65 100t93.5 65.5t106.5 37.5t107.5 11q197 0 300 -95.5t103 -271.5v-551q0 -49 24.5 -70.5t104.5 -17.5v-110q-51 -7 -79 -7q-75 0 -120.5 35.5 t-58.5 120.5q-50 -65 -139.5 -110.5t-214.5 -45.5q-154 0 -247 82.5t-93 223.5zM221 281q0 -92 62 -139.5t163 -47.5q104 0 197 44.5t139 123.5v234q-214 3 -340.5 -22.5t-173.5 -72t-47 -120.5zM295 1497h158l217 -293h-105z" />
<glyph unicode="&#xe1;" horiz-adv-x="1089" d="M92 281q0 119 63.5 189t215 104t411.5 32v133q0 110 -62 176t-196 66q-135 0 -207.5 -63t-72.5 -170h-127q-2 75 22.5 136t65 100t93.5 65.5t106.5 37.5t107.5 11q197 0 300 -95.5t103 -271.5v-551q0 -49 24.5 -70.5t104.5 -17.5v-110q-51 -7 -79 -7q-75 0 -120.5 35.5 t-58.5 120.5q-50 -65 -139.5 -110.5t-214.5 -45.5q-154 0 -247 82.5t-93 223.5zM221 281q0 -92 62 -139.5t163 -47.5q104 0 197 44.5t139 123.5v234q-214 3 -340.5 -22.5t-173.5 -72t-47 -120.5zM387 1204l217 293h158l-270 -293h-105z" />
<glyph unicode="&#xe2;" horiz-adv-x="1089" d="M92 281q0 119 63.5 189t215 104t411.5 32v133q0 110 -62 176t-196 66q-135 0 -207.5 -63t-72.5 -170h-127q-2 75 22.5 136t65 100t93.5 65.5t106.5 37.5t107.5 11q197 0 300 -95.5t103 -271.5v-551q0 -49 24.5 -70.5t104.5 -17.5v-110q-51 -7 -79 -7q-75 0 -120.5 35.5 t-58.5 120.5q-50 -65 -139.5 -110.5t-214.5 -45.5q-154 0 -247 82.5t-93 223.5zM211 1204l240 293h124l240 -293h-131l-172 219l-170 -219h-131zM221 281q0 -92 62 -139.5t163 -47.5q104 0 197 44.5t139 123.5v234q-214 3 -340.5 -22.5t-173.5 -72t-47 -120.5z" />
<glyph unicode="&#xe3;" horiz-adv-x="1089" d="M92 281q0 119 63.5 189t215 104t411.5 32v133q0 110 -62 176t-196 66q-135 0 -207.5 -63t-72.5 -170h-127q-2 75 22.5 136t65 100t93.5 65.5t106.5 37.5t107.5 11q197 0 300 -95.5t103 -271.5v-551q0 -49 24.5 -70.5t104.5 -17.5v-110q-51 -7 -79 -7q-75 0 -120.5 35.5 t-58.5 120.5q-50 -65 -139.5 -110.5t-214.5 -45.5q-154 0 -247 82.5t-93 223.5zM221 281q0 -92 62 -139.5t163 -47.5q104 0 197 44.5t139 123.5v234q-214 3 -340.5 -22.5t-173.5 -72t-47 -120.5zM225 1245q0 82 44.5 143.5t119.5 61.5q55 0 170 -68q75 -43 111 -43 q32 0 52.5 33.5t20.5 77.5h86q0 -79 -44 -142t-121 -63q-61 0 -150 55q-86 56 -131 56q-33 0 -52.5 -34t-19.5 -77h-86z" />
<glyph unicode="&#xe4;" horiz-adv-x="1089" d="M92 281q0 119 63.5 189t215 104t411.5 32v133q0 110 -62 176t-196 66q-135 0 -207.5 -63t-72.5 -170h-127q-2 75 22.5 136t65 100t93.5 65.5t106.5 37.5t107.5 11q197 0 300 -95.5t103 -271.5v-551q0 -49 24.5 -70.5t104.5 -17.5v-110q-51 -7 -79 -7q-75 0 -120.5 35.5 t-58.5 120.5q-50 -65 -139.5 -110.5t-214.5 -45.5q-154 0 -247 82.5t-93 223.5zM221 281q0 -92 62 -139.5t163 -47.5q104 0 197 44.5t139 123.5v234q-214 3 -340.5 -22.5t-173.5 -72t-47 -120.5zM264 1333q0 37 26.5 63.5t63.5 26.5q34 0 60 -27t26 -63q0 -40 -25.5 -67 t-60.5 -27q-37 0 -63.5 26.5t-26.5 67.5zM588 1333q0 37 26.5 63.5t63.5 26.5q34 0 60 -27t26 -63q0 -40 -25.5 -67t-60.5 -27q-37 0 -63.5 26.5t-26.5 67.5z" />
<glyph unicode="&#xe5;" horiz-adv-x="1089" d="M92 281q0 119 63.5 189t215 104t411.5 32v133q0 110 -62 176t-196 66q-135 0 -207.5 -63t-72.5 -170h-127q-2 75 22.5 136t65 100t93.5 65.5t106.5 37.5t107.5 11q197 0 300 -95.5t103 -271.5v-551q0 -49 24.5 -70.5t104.5 -17.5v-110q-51 -7 -79 -7q-75 0 -120.5 35.5 t-58.5 120.5q-50 -65 -139.5 -110.5t-214.5 -45.5q-154 0 -247 82.5t-93 223.5zM221 281q0 -92 62 -139.5t163 -47.5q104 0 197 44.5t139 123.5v234q-214 3 -340.5 -22.5t-173.5 -72t-47 -120.5zM295 1370q0 96 60 158.5t157 62.5t156 -62t59 -159q0 -90 -60.5 -150.5 t-154.5 -60.5t-155.5 60.5t-61.5 150.5zM371 1370q0 -54 39.5 -95.5t101.5 -41.5t101.5 41.5t39.5 95.5q0 61 -39.5 105.5t-101.5 44.5t-101.5 -44.5t-39.5 -105.5z" />
<glyph unicode="&#xe6;" horiz-adv-x="1681" d="M92 281q0 118 63 188.5t209.5 105t397.5 33.5v131q0 111 -57.5 178.5t-180.5 67.5q-135 0 -207.5 -65t-72.5 -172h-127q-2 75 22.5 136t65 100t93.5 65.5t106.5 37.5t107.5 11q131 0 219.5 -48.5t128.5 -140.5q127 189 367 189q104 0 180.5 -26.5t119.5 -73t63 -102 t20 -120.5q0 -165 -123.5 -243t-335.5 -78q-119 0 -256 30q12 -191 100.5 -292t253.5 -101q154 0 314 86l45 -104q-158 -99 -363 -99q-286 0 -405 218q-23 -39 -56.5 -73.5t-83.5 -69t-122.5 -55t-157.5 -20.5q-137 0 -232.5 79.5t-95.5 226.5zM221 281q0 -89 59 -141 t158 -52q135 0 229.5 79.5t94.5 168.5v160q-220 -5 -339 -30t-160.5 -67.5t-41.5 -117.5zM895 602q119 -35 256 -35q171 0 249.5 53t78.5 162q0 93 -63 149t-191 56q-159 0 -239.5 -104t-90.5 -281z" />
<glyph unicode="&#xe7;" horiz-adv-x="1128" d="M92 545q0 90 16.5 169t54.5 150.5t95.5 122.5t145 81t196.5 30q104 0 189 -33.5t136.5 -87t78.5 -116.5t26 -126h-133q-10 98 -92 172t-205 74q-87 0 -155 -27t-109 -69.5t-68 -100.5t-37 -114.5t-10 -116.5q0 -216 99.5 -338.5t283.5 -122.5q117 0 202 68.5t97 187.5 h133q-8 -165 -124 -269t-308 -104q-250 0 -381 151t-131 419zM365 -403l26 69q59 -35 150 -35q118 0 118 84q0 90 -118 90q-69 0 -129 -34l-27 69q81 47 180 47q197 0 197 -172q0 -87 -55.5 -127.5t-153.5 -40.5q-91 0 -188 50z" />
<glyph unicode="&#xe8;" horiz-adv-x="1032" d="M92 545q0 112 30 210.5t87 175.5t149 122t207 45q104 0 182.5 -26.5t124 -72.5t67.5 -102t22 -121q0 -84 -36 -147t-101 -100.5t-148.5 -55.5t-186.5 -18q-129 0 -266 30q12 -189 105.5 -291t259.5 -102q165 0 325 86l45 -104q-72 -45 -172.5 -72t-201.5 -27 q-240 0 -366 151t-126 419zM223 602q119 -35 266 -35q340 0 340 215q0 91 -68 145t-198 54q-161 0 -246 -102.5t-94 -276.5zM299 1497h158l217 -293h-105z" />
<glyph unicode="&#xe9;" horiz-adv-x="1032" d="M92 545q0 112 30 210.5t87 175.5t149 122t207 45q104 0 182.5 -26.5t124 -72.5t67.5 -102t22 -121q0 -84 -36 -147t-101 -100.5t-148.5 -55.5t-186.5 -18q-129 0 -266 30q12 -189 105.5 -291t259.5 -102q165 0 325 86l45 -104q-72 -45 -172.5 -72t-201.5 -27 q-240 0 -366 151t-126 419zM223 602q119 -35 266 -35q340 0 340 215q0 91 -68 145t-198 54q-161 0 -246 -102.5t-94 -276.5zM410 1204l217 293h157l-270 -293h-104z" />
<glyph unicode="&#xea;" horiz-adv-x="1032" d="M92 545q0 112 30 210.5t87 175.5t149 122t207 45q104 0 182.5 -26.5t124 -72.5t67.5 -102t22 -121q0 -84 -36 -147t-101 -100.5t-148.5 -55.5t-186.5 -18q-129 0 -266 30q12 -189 105.5 -291t259.5 -102q165 0 325 86l45 -104q-72 -45 -172.5 -72t-201.5 -27 q-240 0 -366 151t-126 419zM223 602q119 -35 266 -35q340 0 340 215q0 91 -68 145t-198 54q-161 0 -246 -102.5t-94 -276.5zM246 1204l239 293h125l240 -293h-131l-172 219l-170 -219h-131z" />
<glyph unicode="&#xeb;" horiz-adv-x="1032" d="M92 545q0 112 30 210.5t87 175.5t149 122t207 45q104 0 182.5 -26.5t124 -72.5t67.5 -102t22 -121q0 -84 -36 -147t-101 -100.5t-148.5 -55.5t-186.5 -18q-129 0 -266 30q12 -189 105.5 -291t259.5 -102q165 0 325 86l45 -104q-72 -45 -172.5 -72t-201.5 -27 q-240 0 -366 151t-126 419zM223 602q119 -35 266 -35q340 0 340 215q0 91 -68 145t-198 54q-161 0 -246 -102.5t-94 -276.5zM293 1333q0 37 26.5 63.5t63.5 26.5q34 0 60 -27t26 -63q0 -40 -25.5 -67t-60.5 -27q-37 0 -63.5 26.5t-26.5 67.5zM616 1333q0 37 27 63.5t64 26.5 q34 0 60 -27t26 -63q0 -40 -25.5 -67t-60.5 -27q-37 0 -64 26.5t-27 67.5z" />
<glyph unicode="&#xec;" horiz-adv-x="460" d="M-23 1497h158l217 -293h-104zM166 0v1073h129v-1073h-129z" />
<glyph unicode="&#xed;" horiz-adv-x="460" d="M111 1204l217 293h157l-270 -293h-104zM166 0v1073h129v-1073h-129z" />
<glyph unicode="&#xee;" horiz-adv-x="460" d="M-72 1204l240 293h125l239 -293h-131l-172 219l-170 -219h-131zM166 0v1073h129v-1073h-129z" />
<glyph unicode="&#xef;" horiz-adv-x="460" d="M-20 1333q0 37 26.5 63.5t63.5 26.5q34 0 60 -27t26 -63q0 -40 -25.5 -67t-60.5 -27q-37 0 -63.5 26.5t-26.5 67.5zM166 0v1073h129v-1073h-129zM303 1333q0 37 26.5 63.5t63.5 26.5q34 0 60 -27t26 -63q0 -40 -25.5 -67t-60.5 -27q-37 0 -63.5 26.5t-26.5 67.5z" />
<glyph unicode="&#xf0;" horiz-adv-x="1134" d="M92 512q0 79 15 152.5t51 143t89.5 120t135.5 81.5t184 31q153 0 256 -84q-103 182 -270 320l-215 -121l-68 66l205 114q-105 70 -190 113l73 72q122 -63 213 -131l234 131l67 -66l-223 -125q181 -148 287 -355.5t106 -461.5q0 -79 -15 -153.5t-51 -145t-89.5 -123 t-135.5 -84t-184 -31.5t-184 31.5t-135.5 84t-89.5 123t-51 145t-15 153.5zM221 512q0 -54 6.5 -104t29 -110t58.5 -103.5t101 -73t151 -29.5t151 29.5t101 73t58.5 103.5t29 110t6.5 104q0 53 -6.5 102.5t-29 108.5t-58.5 101t-101 71t-151 29t-151 -29t-101 -71 t-58.5 -101t-29 -108.5t-6.5 -102.5z" />
<glyph unicode="&#xf1;" horiz-adv-x="1150" d="M147 0v1073h123v-149q40 70 135 122t228 52q189 0 278.5 -101.5t89.5 -271.5v-725h-129v705q0 58 -13 105.5t-41 87t-80 61.5t-124 22q-122 0 -212.5 -57.5t-125.5 -126.5v-797h-129zM272 1245q0 82 44.5 143.5t119.5 61.5q55 0 170 -68q75 -43 111 -43q32 0 53 34t21 77 h86q0 -79 -44.5 -142t-121.5 -63q-61 0 -150 55q-86 56 -131 56q-33 0 -52.5 -34t-19.5 -77h-86z" />
<glyph unicode="&#xf2;" horiz-adv-x="1204" d="M92 535q0 265 134 414t376 149q241 0 375.5 -149t134.5 -414q0 -262 -134.5 -411t-375.5 -149q-242 0 -376 149t-134 411zM221 535q0 -208 100 -325.5t281 -117.5t281 117.5t100 325.5q0 211 -100 328.5t-281 117.5t-281 -117.5t-100 -328.5zM350 1497h158l217 -293h-104 z" />
<glyph unicode="&#xf3;" horiz-adv-x="1204" d="M92 535q0 265 134 414t376 149q241 0 375.5 -149t134.5 -414q0 -262 -134.5 -411t-375.5 -149q-242 0 -376 149t-134 411zM221 535q0 -208 100 -325.5t281 -117.5t281 117.5t100 325.5q0 211 -100 328.5t-281 117.5t-281 -117.5t-100 -328.5zM481 1204l217 293h158 l-270 -293h-105z" />
<glyph unicode="&#xf4;" horiz-adv-x="1204" d="M92 535q0 265 134 414t376 149q241 0 375.5 -149t134.5 -414q0 -262 -134.5 -411t-375.5 -149q-242 0 -376 149t-134 411zM221 535q0 -208 100 -325.5t281 -117.5t281 117.5t100 325.5q0 211 -100 328.5t-281 117.5t-281 -117.5t-100 -328.5zM297 1204l240 293h125 l239 -293h-131l-172 219l-170 -219h-131z" />
<glyph unicode="&#xf5;" horiz-adv-x="1204" d="M92 535q0 265 134 414t376 149q241 0 375.5 -149t134.5 -414q0 -262 -134.5 -411t-375.5 -149q-242 0 -376 149t-134 411zM221 535q0 -208 100 -325.5t281 -117.5t281 117.5t100 325.5q0 211 -100 328.5t-281 117.5t-281 -117.5t-100 -328.5zM299 1245q0 82 44.5 143.5 t119.5 61.5q55 0 170 -68q75 -43 110 -43q32 0 53 34t21 77h86q0 -79 -44.5 -142t-121.5 -63q-60 0 -149 55q-86 56 -131 56q-33 0 -52.5 -34t-19.5 -77h-86z" />
<glyph unicode="&#xf6;" horiz-adv-x="1204" d="M92 535q0 265 134 414t376 149q241 0 375.5 -149t134.5 -414q0 -262 -134.5 -411t-375.5 -149q-242 0 -376 149t-134 411zM221 535q0 -208 100 -325.5t281 -117.5t281 117.5t100 325.5q0 211 -100 328.5t-281 117.5t-281 -117.5t-100 -328.5zM350 1333q0 37 26.5 63.5 t63.5 26.5q34 0 60 -27t26 -63q0 -40 -25.5 -67t-60.5 -27q-37 0 -63.5 26.5t-26.5 67.5zM674 1333q0 37 26.5 63.5t63.5 26.5q34 0 60 -27t26 -63q0 -40 -25.5 -67t-60.5 -27q-37 0 -63.5 26.5t-26.5 67.5z" />
<glyph unicode="&#xf7;" horiz-adv-x="1351" d="M178 461v108h993v-108h-993zM565 109q0 44 32.5 76t76.5 32t76 -32t32 -76t-32 -76.5t-76 -32.5t-76.5 32.5t-32.5 76.5zM565 922q0 44 32.5 76t76.5 32t76 -32t32 -76t-32 -76.5t-76 -32.5t-76.5 32.5t-32.5 76.5z" />
<glyph unicode="&#xf8;" horiz-adv-x="1204" d="M86 33l113 123q-107 144 -107 379q0 265 134 414t376 149q219 0 352 -127l95 100l71 -65l-102 -111q94 -142 94 -360q0 -262 -134.5 -411t-375.5 -149q-209 0 -336 109l-104 -115zM221 535q0 -171 68 -283l579 627q-97 102 -266 102q-181 0 -281 -117.5t-100 -328.5z M352 176q96 -84 250 -84q181 0 281 117.5t100 325.5q0 158 -55 262z" />
<glyph unicode="&#xf9;" horiz-adv-x="1144" d="M147 350v723h129v-725q0 -256 259 -256q120 0 210 58t121 126v797h129v-1073h-123v152q-42 -71 -133 -124t-223 -53q-191 0 -280 102t-89 273zM303 1497h158l217 -293h-105z" />
<glyph unicode="&#xfa;" horiz-adv-x="1144" d="M147 350v723h129v-725q0 -256 259 -256q120 0 210 58t121 126v797h129v-1073h-123v152q-42 -71 -133 -124t-223 -53q-191 0 -280 102t-89 273zM438 1204l217 293h158l-270 -293h-105z" />
<glyph unicode="&#xfb;" horiz-adv-x="1144" d="M147 350v723h129v-725q0 -256 259 -256q120 0 210 58t121 126v797h129v-1073h-123v152q-42 -71 -133 -124t-223 -53q-191 0 -280 102t-89 273zM270 1204l240 293h125l239 -293h-131l-172 219l-170 -219h-131z" />
<glyph unicode="&#xfc;" horiz-adv-x="1144" d="M147 350v723h129v-725q0 -256 259 -256q120 0 210 58t121 126v797h129v-1073h-123v152q-42 -71 -133 -124t-223 -53q-191 0 -280 102t-89 273zM319 1333q0 37 27 63.5t64 26.5q34 0 60 -27t26 -63q0 -40 -25.5 -67t-60.5 -27q-38 0 -64.5 26.5t-26.5 67.5zM643 1333 q0 37 26.5 63.5t63.5 26.5q34 0 60 -27t26 -63q0 -40 -25.5 -67t-60.5 -27q-37 0 -63.5 26.5t-26.5 67.5z" />
<glyph unicode="&#xfd;" horiz-adv-x="1017" d="M37 1073h143l359 -909l307 909h135q-125 -345 -225.5 -624t-138.5 -384.5t-62 -168.5q-51 -135 -149.5 -211t-225.5 -76q-30 0 -63 6v119q37 -4 80 -4q106 0 163.5 67t104.5 213zM391 1204l217 293h158l-270 -293h-105z" />
<glyph unicode="&#xfe;" horiz-adv-x="1185" d="M162 -391v1853h129v-391q132 27 260 27q145 0 252.5 -40.5t169.5 -114.5t91.5 -168t29.5 -212q0 -133 -30.5 -236t-82 -168.5t-125 -107.5t-152.5 -59t-172 -17q-123 0 -241 52v-418h-129zM291 137q118 -45 244 -45q216 0 323 115t107 350q0 69 -12.5 129.5t-42 115 t-74.5 94t-113 62.5t-154 23q-170 0 -278 -33v-811z" />
<glyph unicode="&#xff;" horiz-adv-x="1017" d="M37 1073h143l359 -909l307 909h135q-125 -345 -225.5 -624t-138.5 -384.5t-62 -168.5q-51 -135 -149.5 -211t-225.5 -76q-30 0 -63 6v119q37 -4 80 -4q106 0 163.5 67t104.5 213zM256 1333q0 37 26.5 63.5t63.5 26.5q34 0 60 -27t26 -63q0 -40 -25.5 -67t-60.5 -27 q-37 0 -63.5 26.5t-26.5 67.5zM580 1333q0 37 26.5 63.5t63.5 26.5q34 0 60 -27t26 -63q0 -40 -25.5 -67t-60.5 -27q-37 0 -63.5 26.5t-26.5 67.5z" />
<glyph unicode="&#x152;" horiz-adv-x="2185" d="M111 733q0 362 170 563t467 201q331 0 499 -264v229h836v-127h-697v-518h609v-127h-609v-563h717v-127h-856v231q-170 -266 -499 -266q-297 0 -467 202.5t-170 565.5zM250 733q0 -140 27.5 -251t73.5 -183t110.5 -119.5t135.5 -67.5t151 -20t151 20t135.5 67.5 t110.5 119.5t73 183t27 251t-27 250.5t-73 182t-111 118.5t-135 66.5t-151 19.5t-151.5 -19.5t-135 -66.5t-110.5 -118.5t-73.5 -182t-27.5 -250.5z" />
<glyph unicode="&#x153;" horiz-adv-x="1884" d="M92 535q0 265 134 414t376 149q149 0 257 -64.5t167 -185.5q57 116 157.5 183t243.5 67q104 0 181 -26.5t120 -73t63.5 -102t20.5 -120.5q0 -165 -124 -243t-336 -78q-119 0 -256 30q12 -191 100.5 -292t253.5 -101q155 0 315 86l45 -104q-158 -99 -364 -99 q-306 0 -420 246q-59 -120 -166.5 -183t-257.5 -63q-242 0 -376 149t-134 411zM221 535q0 -208 100 -325.5t281 -117.5q171 0 266 117.5t95 325.5q0 211 -95 328.5t-266 117.5q-181 0 -281 -117.5t-100 -328.5zM1096 602q119 -35 256 -35q171 0 250 53t79 162 q0 92 -63.5 145.5t-192.5 53.5q-160 0 -239.5 -101.5t-89.5 -277.5z" />
<glyph unicode="&#x178;" horiz-adv-x="1347" d="M25 1462h163l498 -698l477 698h158l-567 -829v-633h-140v631zM422 1708q0 37 26.5 63.5t63.5 26.5q34 0 60 -27t26 -63q0 -40 -25.5 -67t-60.5 -27q-37 0 -63.5 26.5t-26.5 67.5zM745 1708q0 37 27 63.5t64 26.5q34 0 60 -27t26 -63q0 -40 -25.5 -67t-60.5 -27 q-38 0 -64.5 27t-26.5 67z" />
<glyph unicode="&#x2c6;" d="M39 1204l240 293h124l240 -293h-131l-172 219l-170 -219h-131z" />
<glyph unicode="&#x2dc;" d="M39 1245q0 82 44.5 143.5t119.5 61.5q55 0 170 -68q75 -43 110 -43q32 0 53 34t21 77h86q0 -79 -44.5 -142t-121.5 -63q-60 0 -149 55q-86 56 -131 56q-33 0 -52.5 -34t-19.5 -77h-86z" />
<glyph unicode="&#x2000;" horiz-adv-x="980" />
<glyph unicode="&#x2001;" horiz-adv-x="1960" />
<glyph unicode="&#x2002;" horiz-adv-x="980" />
<glyph unicode="&#x2003;" horiz-adv-x="1960" />
<glyph unicode="&#x2004;" horiz-adv-x="653" />
<glyph unicode="&#x2005;" horiz-adv-x="490" />
<glyph unicode="&#x2006;" horiz-adv-x="326" />
<glyph unicode="&#x2007;" horiz-adv-x="326" />
<glyph unicode="&#x2008;" horiz-adv-x="245" />
<glyph unicode="&#x2009;" horiz-adv-x="392" />
<glyph unicode="&#x200a;" horiz-adv-x="108" />
<glyph unicode="&#x2010;" d="M82 469v127h518v-127h-518z" />
<glyph unicode="&#x2011;" d="M82 469v127h518v-127h-518z" />
<glyph unicode="&#x2012;" d="M82 469v127h518v-127h-518z" />
<glyph unicode="&#x2013;" horiz-adv-x="1024" d="M61 487v91h902v-91h-902z" />
<glyph unicode="&#x2014;" horiz-adv-x="2048" d="M61 487v91h1926v-91h-1926z" />
<glyph unicode="&#x2018;" horiz-adv-x="454" d="M125 1001q24 125 62.5 260t70.5 209l72 9q-21 -91 -39.5 -222t-24.5 -235z" />
<glyph unicode="&#x2019;" horiz-adv-x="454" d="M125 1004q51 213 65 454l140 21q-21 -122 -59.5 -256.5t-71.5 -212.5z" />
<glyph unicode="&#x201a;" horiz-adv-x="454" d="M125 -260q51 213 65 455l140 20q-21 -122 -59.5 -256.5t-71.5 -212.5z" />
<glyph unicode="&#x201c;" horiz-adv-x="749" d="M125 1001q24 125 62.5 260t70.5 209l72 9q-21 -91 -39.5 -222t-24.5 -235zM420 1001q24 125 62.5 260t70.5 209l72 9q-21 -91 -39.5 -222t-24.5 -235z" />
<glyph unicode="&#x201d;" horiz-adv-x="749" d="M125 1001q48 205 63 457l142 21q-24 -125 -62.5 -260t-70.5 -209zM420 1001q48 205 63 457l142 21q-24 -125 -62.5 -260t-70.5 -209z" />
<glyph unicode="&#x201e;" horiz-adv-x="749" d="M125 -260q48 205 63 457l142 20q-24 -125 -62.5 -260t-70.5 -209zM420 -260q48 205 63 457l142 20q-24 -125 -62.5 -260t-70.5 -209z" />
<glyph unicode="&#x2022;" horiz-adv-x="679" d="M143 575q0 82 57 138.5t140 56.5t140 -56.5t57 -138.5t-57 -139t-140 -57q-82 0 -139.5 56.5t-57.5 139.5z" />
<glyph unicode="&#x2026;" horiz-adv-x="1454" d="M141 90q0 36 28 64t67 28q40 0 67 -28t27 -64q0 -41 -26 -69.5t-68 -28.5t-68.5 28.5t-26.5 69.5zM633 90q0 36 27.5 64t66.5 28q40 0 67 -28t27 -64q0 -41 -26 -69.5t-68 -28.5t-68 28.5t-26 69.5zM1124 90q0 36 28 64t67 28q40 0 67 -28t27 -64q0 -41 -26 -69.5 t-68 -28.5t-68.5 28.5t-26.5 69.5z" />
<glyph unicode="&#x202f;" horiz-adv-x="392" />
<glyph unicode="&#x2039;" horiz-adv-x="452" d="M57 506v94l338 299v-135l-243 -211l243 -207v-133z" />
<glyph unicode="&#x203a;" horiz-adv-x="452" d="M57 213v133l244 207l-244 211v135l338 -299v-94z" />
<glyph unicode="&#x205f;" horiz-adv-x="490" />
<glyph unicode="&#x20ac;" horiz-adv-x="1138" d="M43 510l29 92h118q-2 31 -2 92q0 20 5 107h-150l29 92h133q20 117 64 216t110 175t159.5 119t204.5 43q215 0 353 -150l-41 -116q-49 72 -135.5 112.5t-176.5 40.5q-84 0 -154.5 -34t-120.5 -94.5t-83.5 -138.5t-50.5 -173h641l-29 -92h-624q-5 -87 -5 -107q0 -63 2 -92 h576l-29 -92h-532q34 -195 138 -313.5t265 -118.5q214 0 353 117v-125q-73 -45 -169 -75t-186 -30q-112 0 -205 42t-158 116.5t-107.5 172t-61.5 214.5h-160z" />
<glyph unicode="&#x2122;" horiz-adv-x="1648" d="M41 1368v94h629v-94h-262v-764h-107v764h-260zM809 604v858h104l295 -430l297 430h103v-858h-103v682l-264 -383h-65l-263 383v-682h-104z" />
<glyph unicode="&#x25fc;" horiz-adv-x="1075" d="M0 0v1075h1075v-1075h-1075z" />
<glyph unicode="&#xfb01;" horiz-adv-x="993" d="M41 965v108h113v154q0 270 360 270q127 0 264 -35v-108q-137 35 -256 35q-122 0 -180.5 -41t-58.5 -131v-144h567v-1073h-129v965h-438v-965h-129v965h-113z" />
<glyph unicode="&#xfb02;" horiz-adv-x="1048" d="M41 965v108h113v154q0 270 340 270q90 0 208 -31l134 17v-1264q0 -127 147 -127h14v-112q-45 -5 -55 -5q-109 0 -174.5 56t-65.5 172v1155q-105 31 -200 31q-110 0 -164.5 -41.5t-54.5 -130.5v-144h313v-108h-313v-965h-129v965h-113z" />
</font>
</defs>
</svg>
