<?xml version="1.0" standalone="no"?>
<!DOCTYPE svg PUBLIC "-//W3C//DTD SVG 1.1//EN" "http://www.w3.org/Graphics/SVG/1.1/DTD/svg11.dtd" >
<svg xmlns="http://www.w3.org/2000/svg" xmlns:xlink="http://www.w3.org/1999/xlink" version="1.1">
<metadata></metadata>
<defs>
<font id="sfrblack" horiz-adv-x="660" >
<font-face units-per-em="1000" ascent="750" descent="-250" />
<missing-glyph horiz-adv-x="236" />
<glyph unicode=" "  horiz-adv-x="236" />
<glyph unicode="&#x09;" horiz-adv-x="236" />
<glyph unicode="&#xa0;" horiz-adv-x="236" />
<glyph unicode="!" horiz-adv-x="333" d="M219 254h-95l-60 255v205h205v-205zM167 -8q-49 0 -75.5 29t-26.5 72q0 42 28 71t74 29q49 0 75 -28t26 -72q0 -43 -26 -72t-75 -29z" />
<glyph unicode="&#x22;" horiz-adv-x="472" d="M391 435h-114l-14 285h141zM196 435h-114l-14 285h141z" />
<glyph unicode="#" d="M436 0h-128l33 189h-76l-33 -189h-129l33 189h-87v125h108l12 71h-107v125h129l33 186h130l-33 -186h76l32 186h129l-33 -186h85v-125h-106l-13 -71h107v-125h-128zM361 314l14 71h-75l-13 -71h74z" />
<glyph unicode="$" d="M348 -98h-51v93q-126 8 -198.5 69t-75.5 169h205q9 -63 69 -83v124q-50 15 -79 24.5t-67 27.5t-58.5 37.5t-35 50t-14.5 67.5q0 93 69.5 154t184.5 68v81h51v-81q121 -6 187 -67.5t71 -158.5h-191q-6 61 -67 75v-107l11 -3q160 -46 218.5 -90.5t58.5 -142.5t-78.5 -156 t-209.5 -60v-91zM348 260v-116q35 1 58 17t23 37q0 20 -19 34t-62 28zM297 461v93q-28 -4 -43.5 -16t-15.5 -26q0 -29 59 -51z" />
<glyph unicode="%" horiz-adv-x="949" d="M209 324q-179 0 -179 191q0 189 179 189q175 0 175 -189q0 -191 -175 -191zM209 411q45 0 45 104q0 102 -45 102q-49 0 -49 -102q0 -104 49 -104zM319 -26h-110l409 748h109zM744 -8q-179 0 -179 191q0 189 179 189q175 0 175 -189q0 -191 -175 -191zM744 79q45 0 45 104 q0 102 -45 102q-49 0 -49 -102q0 -104 49 -104z" />
<glyph unicode="&#x26;" horiz-adv-x="720" d="M732 70l-132 -87l-87 75q-84 -74 -212 -74q-114 0 -190 65.5t-76 164.5q0 66 38 114.5t111 89.5q-55 70 -55 137q0 77 61.5 126.5t146.5 49.5q87 0 145 -49t58 -121q0 -54 -30.5 -94t-87.5 -76l19 -23q35 -37 53 -60q9 33 14 71l160 -18q-19 -122 -54 -182 q33 -37 118 -109zM331 490q46 36 46 70q0 45 -40 45q-45 0 -45 -42q0 -23 39 -73zM409 168l-131 150q-33 -23 -54.5 -51.5t-21.5 -51.5q0 -37 28 -63.5t73 -26.5q58 0 106 43z" />
<glyph unicode="'" horiz-adv-x="278" d="M196 435h-114l-14 285h141z" />
<glyph unicode="(" horiz-adv-x="389" d="M350 -125l-124 -85q-89 90 -138.5 219.5t-49.5 269.5q0 141 50 275t138 224l124 -86q-59 -71 -92.5 -186t-33.5 -227q0 -110 33 -221t93 -183z" />
<glyph unicode=")" horiz-adv-x="389" d="M162 -210l-124 85q60 72 93 183t33 221q0 112 -33.5 227t-92.5 186l124 86q88 -90 138 -224t50 -275q0 -140 -49.5 -269.5t-138.5 -219.5z" />
<glyph unicode="*" horiz-adv-x="537" d="M417 348l-103 75q3 -19 10.5 -64.5t10.5 -64.5h-126l11 132q-54 -38 -107 -79l-59 111l119 48l-113 46l64 107l96 -71l-16 126h125l-11 -129l105 77l60 -105l-122 -52q104 -44 118 -49z" />
<glyph unicode="+" d="M406 0h-153v179h-179v153h179v179h153v-179h179v-153h-179v-179z" />
<glyph unicode="," horiz-adv-x="250" d="M136 -96h-109l36 295h160z" />
<glyph unicode="-" horiz-adv-x="333" d="M300 165h-268v182h268v-182z" />
<glyph unicode="." horiz-adv-x="250" d="M125 -8q-49 0 -75.5 29t-26.5 72q0 42 28 71t74 29q49 0 75 -28t26 -72q0 -43 -26 -72t-75 -29z" />
<glyph unicode="/" horiz-adv-x="435" d="M155 -17h-155l280 748h155z" />
<glyph unicode="0" d="M331 -8q-144 0 -221 87t-77 268q0 357 298 357q296 0 296 -357q0 -180 -77 -267.5t-219 -87.5zM331 144q105 0 105 203q0 205 -105 205q-107 0 -107 -205q0 -203 107 -203z" />
<glyph unicode="1" d="M485 0h-206v464l-131 -63l-62 142l268 153h131v-696z" />
<glyph unicode="2" d="M618 0h-576q-6 87 46 155.5t176 148.5q74 48 110 86.5t36 81.5q0 75 -75 75q-71 0 -79 -82h-187q8 124 83.5 181.5t197.5 57.5q119 0 189 -54t70 -158q0 -25 -3.5 -47t-7.5 -40t-15.5 -36.5t-19 -31t-26.5 -29.5t-29 -26.5t-36 -27.5t-38.5 -26t-45 -29t-47.5 -31h277 v-168z" />
<glyph unicode="3" d="M308 299h-69v119h69q101 0 101 71q0 27 -20.5 43.5t-59.5 16.5q-83 0 -89 -58h-188q-2 102 76.5 157.5t196.5 55.5q124 0 198 -46t74 -140q0 -103 -93 -153q53 -23 80.5 -66.5t27.5 -96.5q0 -91 -84 -150.5t-203 -59.5q-45 0 -91.5 13.5t-90.5 40.5t-70.5 76t-24.5 112 h184q5 -38 28.5 -61.5t67.5 -23.5t64 23t20 55q0 72 -104 72z" />
<glyph unicode="4" d="M546 0h-208v140h-312v168l292 388h228v-387h87v-169h-87v-140zM338 309v193l-147 -193h147z" />
<glyph unicode="5" d="M577 526h-326l-19 -101q73 44 162 44q98 0 167.5 -62t69.5 -169q0 -104 -76 -175t-235 -71q-128 0 -205 66.5t-87 158.5h178q8 -26 36 -48.5t78 -22.5q63 0 90.5 25.5t27.5 61.5q0 49 -32.5 75t-87.5 26q-73 0 -112 -52h-158l67 414h462v-170z" />
<glyph unicode="6" d="M618 494h-186q-18 64 -91 64q-52 0 -76 -39.5t-30 -111.5q69 51 152 51q110 0 171.5 -63t61.5 -162q0 -45 -16 -86.5t-48.5 -77t-90 -56.5t-132.5 -21q-56 0 -101.5 12.5t-75.5 32.5t-52.5 50t-34 59.5t-18.5 67t-9 66t-2 63.5q0 58 5.5 103.5t24.5 96t51 84t90 55.5 t136 22q102 0 181.5 -52t89.5 -158zM242 276q0 -128 104 -128q44 0 68.5 26.5t24.5 55.5q0 42 -24.5 69t-65.5 27q-65 0 -107 -50z" />
<glyph unicode="7" d="M302 0h-228l334 526h-359v170h562v-158z" />
<glyph unicode="8" d="M494 369q132 -60 132 -163q0 -97 -85 -155.5t-215 -58.5q-129 0 -210.5 57t-81.5 143q0 113 131 176q-45 25 -71 63t-26 81q0 89 72.5 140.5t192.5 51.5q126 0 192.5 -53t66.5 -129q0 -40 -25 -80.5t-73 -72.5zM316 317q-41 -14 -69.5 -40.5t-28.5 -55.5q0 -41 30 -68 t81 -27q44 0 75.5 24t31.5 63q0 64 -120 104zM344 417q30 12 49 35.5t19 54.5q0 30 -20 51.5t-59 21.5q-40 0 -63.5 -21.5t-23.5 -51.5q0 -63 98 -90z" />
<glyph unicode="9" d="M46 185h179q19 -51 80 -51q36 0 61.5 14t37.5 37t17 44.5t5 43.5q-39 -29 -74.5 -39.5t-96.5 -10.5q-90 0 -151 62t-61 166q0 51 14.5 94t46 80t88 58t132.5 21q64 0 114 -18t80.5 -49t51.5 -66t30.5 -77.5t13 -74t3.5 -63.5q0 -58 -5.5 -104t-24.5 -97t-51 -84.5 t-90 -56t-136 -22.5q-63 0 -118.5 17.5t-98 63t-47.5 112.5zM426 408q-2 30 -5.5 49t-13.5 43t-31.5 36.5t-54.5 12.5q-48 0 -69.5 -28t-21.5 -67q0 -42 22 -68.5t63 -26.5q62 0 111 49z" />
<glyph unicode=":" horiz-adv-x="250" d="M125 -8q-49 0 -75.5 29t-26.5 72q0 42 28 71t74 29q49 0 75 -28t26 -72q0 -43 -26 -72t-75 -29zM125 323q-49 0 -75.5 29t-26.5 72q0 42 28 71t74 29q49 0 75 -28t26 -72q0 -43 -26 -72t-75 -29z" />
<glyph unicode=";" horiz-adv-x="250" d="M126 323q-49 0 -75.5 29t-26.5 72q0 42 28 71t74 29q49 0 75 -28t26 -72q0 -43 -26 -72t-75 -29zM121 -96h-109l36 295h160z" />
<glyph unicode="&#x3c;" d="M586 -8l-512 207v113l512 205v-157l-286 -105l286 -104v-159z" />
<glyph unicode="=" d="M585 297h-511v153h511v-153zM585 56h-511v153h511v-153z" />
<glyph unicode="&#x3e;" d="M586 199l-512 -207v159l286 104l-286 105v157l512 -205v-113z" />
<glyph unicode="?" horiz-adv-x="611" d="M388 254h-190q-1 10 -1 33q0 38 12.5 67.5t31.5 45t41.5 29.5t41.5 24t31.5 25.5t12.5 36.5q0 48 -60 48q-31 0 -53.5 -23t-22.5 -62h-199q0 122 82 187.5t198 65.5q125 0 195 -49.5t70 -147.5q0 -53 -19.5 -89t-47.5 -54.5t-56 -34t-47.5 -40.5t-19.5 -62zM299 -8 q-49 0 -75.5 29t-26.5 72q0 42 28 71t74 29q49 0 75 -28t26 -72q0 -43 -26 -72t-75 -29z" />
<glyph unicode="@" horiz-adv-x="800" d="M347 231q43 0 76 56.5t33 119.5q0 28 -12 47t-34 19q-50 0 -80 -51t-30 -113q0 -33 12 -55.5t35 -22.5zM636 156h115q-60 -79 -144 -125.5t-181 -46.5q-178 0 -281.5 103t-103.5 258q0 164 107 275t273 111q151 0 244.5 -85.5t93.5 -228.5q0 -107 -67.5 -193t-171.5 -86 q-58 0 -76 53q-48 -53 -104 -53q-71 0 -108.5 48t-37.5 121q0 61 25.5 118.5t76 97.5t113.5 40q51 0 87 -39l7 37l94 -11q-17 -64 -63 -281q-9 -42 11 -42q14 0 34 10q40 20 66 69t26 113q0 101 -69 159t-183 58q-117 0 -193 -83t-76 -208q0 -124 77.5 -195.5t197.5 -71.5 q128 0 211 78z" />
<glyph unicode="A" horiz-adv-x="807" d="M796 0h-244l-38 125h-226l-38 -125h-239l267 714h250zM472 263l-71 236l-71 -236h142z" />
<glyph unicode="B" horiz-adv-x="768" d="M416 544h-127v-108h117q74 0 74 56q0 26 -17.5 39t-46.5 13zM289 170h122q94 0 94 70q0 38 -24.5 50.5t-76.5 12.5h-115v-133zM434 0h-365v714h356q263 0 263 -179q0 -116 -114 -160q64 -9 106.5 -55.5t42.5 -115.5q0 -86 -73.5 -145t-215.5 -59z" />
<glyph unicode="C" horiz-adv-x="755" d="M725 453h-215q-4 41 -36 70.5t-78 29.5q-137 0 -137 -184q0 -100 35.5 -154t105.5 -54q44 0 77 31.5t37 87.5h216q-7 -128 -97 -212.5t-233 -84.5q-178 0 -269.5 100.5t-91.5 281.5q0 75 19 138.5t59 116t111.5 82.5t167.5 30q83 0 148.5 -26t103.5 -68.5t57.5 -89.5 t19.5 -95z" />
<glyph unicode="D" horiz-adv-x="791" d="M290 183h62q81 0 131 41t50 134q0 45 -12.5 78t-31 51t-45.5 28.5t-50 13t-51 2.5h-53v-348zM391 0h-322v714h324q359 0 359 -356q0 -162 -88 -260t-273 -98z" />
<glyph unicode="E" horiz-adv-x="669" d="M624 0h-555v714h543v-183h-323v-89h268v-170h-268v-89h335v-183z" />
<glyph unicode="F" horiz-adv-x="640" d="M551 229h-262v-229h-220v714h538v-183h-318v-119h262v-183z" />
<glyph unicode="G" horiz-adv-x="815" d="M547 193v57h-119v153h320v-287q-141 -133 -331 -133q-182 0 -280 103t-98 279q0 75 21 138.5t64 116t118 82t174 29.5q77 0 140.5 -24t101.5 -62.5t58.5 -83t20.5 -88.5h-210q-4 33 -36 56.5t-79 23.5q-45 0 -76.5 -17t-47.5 -45.5t-22.5 -58t-6.5 -63.5q0 -98 45 -153 t113 -55q83 0 130 32z" />
<glyph unicode="H" horiz-adv-x="829" d="M760 0h-220v276h-251v-276h-220v714h220v-255h251v255h220v-714z" />
<glyph unicode="I" horiz-adv-x="358" d="M289 0h-220v714h220v-714z" />
<glyph unicode="J" horiz-adv-x="626" d="M336 232v482h221v-449q0 -144 -66.5 -213t-210.5 -69q-140 0 -200 76.5t-55 220.5h199v-36.5t1.5 -29.5t5.5 -26.5t10 -17.5t16.5 -13.5t25.5 -3.5q53 0 53 79z" />
<glyph unicode="K" horiz-adv-x="829" d="M829 0h-280l-192 273h-51v-273h-237v714h237v-250h50l172 250h270l-257 -334z" />
<glyph unicode="L" horiz-adv-x="614" d="M583 0h-514v714h220v-531h294v-183z" />
<glyph unicode="M" horiz-adv-x="978" d="M909 0h-208v450l-160 -230h-107l-157 227v-447h-208v714h246l173 -252l172 252h249v-714z" />
<glyph unicode="N" horiz-adv-x="829" d="M760 0h-212l-271 399v-399h-208v714h228l255 -387v387h208v-714z" />
<glyph unicode="O" horiz-adv-x="826" d="M787 355q0 -173 -104.5 -272.5t-269.5 -99.5t-269.5 99.5t-104.5 272.5q0 177 100.5 276.5t273.5 99.5t273.5 -99.5t100.5 -276.5zM413 161q64 0 109.5 46.5t45.5 147.5q0 103 -45.5 150.5t-109.5 47.5t-109.5 -47.5t-45.5 -150.5q0 -101 45.5 -147.5t109.5 -46.5z" />
<glyph unicode="P" horiz-adv-x="709" d="M289 375h105q100 0 100 80q0 33 -20 55t-80 22h-105v-157zM289 0h-220v714h359q36 0 69 -5t71 -21t65.5 -42.5t46 -73t18.5 -108.5q0 -122 -72.5 -191.5t-204.5 -69.5h-132v-203z" />
<glyph unicode="Q" horiz-adv-x="826" d="M687 -33l-24 -170q-231 0 -297 189q-147 14 -237 111.5t-90 257.5q0 177 100.5 276.5t273.5 99.5t273.5 -99.5t100.5 -276.5q0 -136 -67 -228.5t-181 -126.5q14 -15 41 -22.5t46.5 -8.5t60.5 -2zM413 161q64 0 109.5 46.5t45.5 147.5q0 103 -45.5 150.5t-109.5 47.5 t-109.5 -47.5t-45.5 -150.5q0 -101 45.5 -147.5t109.5 -46.5z" />
<glyph unicode="R" horiz-adv-x="766" d="M756 0h-248l-156 249h-63v-249h-220v714h394q35 0 67 -5t68 -20.5t62 -39.5t43 -66.5t17 -97.5q0 -72 -40.5 -126.5t-106.5 -78.5zM289 402h117q94 0 94 79q0 13 -5.5 25.5t-27 24.5t-55.5 12h-123v-141z" />
<glyph unicode="S" horiz-adv-x="719" d="M654 491h-203q-4 39 -32 60.5t-73 21.5q-39 0 -61.5 -13.5t-22.5 -31.5q0 -22 29.5 -38.5t99.5 -35.5q69 -20 112 -34.5t82 -34.5t58.5 -43.5t31 -56t11.5 -75.5q0 -104 -86.5 -165.5t-230.5 -61.5q-154 0 -243 65t-93 186h218q7 -45 40 -69t82 -24q40 0 66.5 17t26.5 40 q0 43 -104 71q-39 11 -52.5 14.5t-48.5 14t-49 16.5t-42 18.5t-40 22.5t-30 26t-26 32t-14 37.5t-6 45.5q0 104 80 169.5t210 65.5q151 0 228 -65.5t82 -174.5z" />
<glyph unicode="T" horiz-adv-x="640" d="M430 0h-220v531h-190v183h600v-183h-190v-531z" />
<glyph unicode="U" horiz-adv-x="794" d="M505 267v447h220v-451q0 -133 -87.5 -206.5t-240.5 -73.5t-240.5 73.5t-87.5 206.5v451h220v-447q0 -55 29.5 -81t78.5 -26t78.5 26t29.5 81z" />
<glyph unicode="V" horiz-adv-x="817" d="M533 0h-248l-263 714h234l154 -493l155 493h230z" />
<glyph unicode="W" horiz-adv-x="1157" d="M957 0h-240l-138 510l-139 -510h-239l-196 714h243l87 -476l137 476h213l138 -476l87 476h242z" />
<glyph unicode="X" horiz-adv-x="774" d="M766 0h-261l-128 208l-128 -208h-241l254 369l-243 344h266l107 -178l107 178h246l-243 -344z" />
<glyph unicode="Y" horiz-adv-x="757" d="M502 0h-238v273l-261 441h254l127 -243l124 243h246l-252 -441v-273z" />
<glyph unicode="Z" horiz-adv-x="709" d="M672 0h-636v116l332 415h-307v183h587v-159l-300 -372h324v-183z" />
<glyph unicode="[" horiz-adv-x="389" d="M348 -168h-298v899h298v-153h-120v-593h120v-153z" />
<glyph unicode="\" horiz-adv-x="435" d="M435 -17h-155l-280 748h155z" />
<glyph unicode="]" horiz-adv-x="389" d="M338 -168h-298v153h120v593h-120v153h298v-899z" />
<glyph unicode="^" d="M590 325h-156l-104 201l-103 -201h-157l203 375h115z" />
<glyph unicode="_" horiz-adv-x="500" d="M497 -125h-495v50h495v-50z" />
<glyph unicode="`" horiz-adv-x="400" d="M352 569h-135l-170 147h206z" />
<glyph unicode="a" horiz-adv-x="625" d="M600 138v-143q-70 -11 -127 0.5t-90 43.5q-61 -49 -170 -49q-90 0 -139 45t-49 125q0 56 26 90t97.5 54t196.5 20v41q0 47 -67 47q-40 0 -58.5 -14.5t-19.5 -49.5h-164q-1 93 66.5 140.5t185.5 47.5q115 0 184.5 -46.5t69.5 -125.5v-183q0 -24 10.5 -33.5t47.5 -9.5z M345 143v77q-43 -1 -66.5 -4.5t-39.5 -13.5t-16 -29q0 -46 52 -46q35 0 70 16z" />
<glyph unicode="b" horiz-adv-x="607" d="M48 71v643h198v-226q43 48 124 48q94 0 149.5 -71t55.5 -183q0 -80 -22.5 -139t-62 -92t-88 -48t-106.5 -15q-90 0 -146 21.5t-102 61.5zM246 350v-201q22 -16 49 -16q37 0 59.5 36.5t22.5 99.5q0 49 -20 82t-55 33q-40 0 -56 -34z" />
<glyph unicode="c" horiz-adv-x="616" d="M568 329h-181q-3 24 -22.5 41.5t-46.5 17.5q-28 0 -47 -10.5t-27 -30t-11 -37t-3 -41.5q0 -138 92 -138q24 0 44.5 18.5t23.5 47.5h181q-5 -93 -73 -151t-182 -58q-138 0 -211 73.5t-73 204.5q0 55 15.5 101.5t47 85.5t87.5 61t131 22q120 0 187.5 -64t67.5 -143z" />
<glyph unicode="d" horiz-adv-x="616" d="M568 0h-195v46q-45 -58 -119 -58q-42 0 -79.5 15t-70 47t-52 90t-19.5 135q0 115 62 188t154 73q72 0 121 -47v225h198v-714zM370 185v160q-26 44 -68 44q-32 0 -52 -34t-20 -83q0 -62 19.5 -99t59.5 -37q42 0 61 49z" />
<glyph unicode="e" horiz-adv-x="583" d="M508 162l35 -122q-84 -52 -225 -52t-214.5 72t-73.5 205q0 116 74 193.5t212 77.5q121 0 178.5 -52t57.5 -127q0 -85 -55.5 -124.5t-168.5 -39.5q-62 0 -113 20q4 -88 132 -88q87 0 161 37zM217 326q33 -11 70.5 -13t66 9.5t28.5 36.5q0 50 -71 50q-46 0 -69 -23.5 t-25 -59.5z" />
<glyph unicode="f" horiz-adv-x="438" d="M275 0h-198v394h-69v130h69v39q0 88 56.5 128t168.5 40q64 0 147 -12v-136q-52 8 -89 8q-47 0 -66 -9.5t-19 -31.5v-26h154v-130h-154v-394z" />
<glyph unicode="g" horiz-adv-x="611" d="M601 413h-79q12 -31 12 -70q0 -90 -66 -141t-180 -51q-47 0 -74 15q-20 -23 -7.5 -45.5t51.5 -22.5h153q190 0 190 -145q0 -83 -75 -130t-218 -47q-147 0 -222.5 42.5t-75.5 122.5q0 77 108 103q-50 28 -50 76q0 57 56 78q-80 55 -80 145q0 89 66 141t181 52q55 0 96 -12 h214v-111zM337 -11h-67q-78 0 -78 -49q0 -30 29 -42.5t88 -12.5q108 0 108 60q0 44 -80 44zM291 266q68 0 68 77q0 67 -68 67q-71 0 -71 -67q0 -77 71 -77z" />
<glyph unicode="h" horiz-adv-x="637" d="M588 0h-198v301q0 32 -14.5 47.5t-51.5 15.5q-51 0 -78 -49v-315h-198v714h198v-255q31 39 65.5 58t100.5 19q88 0 132 -50t44 -132v-354z" />
<glyph unicode="i" horiz-adv-x="308" d="M253 0h-198v524h198v-524zM259 669q0 -36 -27 -62.5t-78 -26.5q-50 0 -78 26.5t-28 62.5q0 40 28 67t78 27q51 0 78 -26.5t27 -67.5z" />
<glyph unicode="j" horiz-adv-x="323" d="M-27 -188v151q25 -3 46 -3q28 0 35.5 19.5t7.5 68.5v476h198v-523q0 -102 -40.5 -149t-132.5 -47q-55 0 -114 7zM266 669q0 -36 -27 -62.5t-78 -26.5q-50 0 -78 26.5t-28 62.5q0 40 28 67t78 27q51 0 78 -26.5t27 -67.5z" />
<glyph unicode="k" horiz-adv-x="643" d="M638 0h-244l-88 192h-55v-192h-198v714h198v-345h62l79 155h240l-169 -246z" />
<glyph unicode="l" horiz-adv-x="380" d="M350 135v-140q-44 -6 -80 -6q-202 0 -202 180v545h198v-517q0 -37 13.5 -49.5t70.5 -12.5z" />
<glyph unicode="m" horiz-adv-x="959" d="M910 0h-198v301q0 32 -14.5 47.5t-51.5 15.5q-44 0 -68 -49v-315h-198v301q0 32 -14.5 47.5t-51.5 15.5q-44 0 -68 -49v-315h-198v524h195v-65q29 38 62.5 57.5t96.5 19.5q120 0 160 -95q35 52 72 73.5t100 21.5q88 0 132 -50t44 -132v-354z" />
<glyph unicode="n" horiz-adv-x="637" d="M588 0h-198v301q0 32 -14.5 47.5t-51.5 15.5q-51 0 -78 -49v-315h-198v524h195v-65q31 38 66.5 57.5t102.5 19.5q88 0 132 -50t44 -132v-354z" />
<glyph unicode="o" horiz-adv-x="640" d="M608 263q0 -125 -74.5 -200t-213.5 -75t-213.5 75t-74.5 200q0 41 9 79t30.5 74t53.5 62t82 42t113 16t113 -16t82 -42t53.5 -62t30.5 -74t9 -79zM319 131q91 0 91 136q0 18 -3.5 37.5t-12.5 40.5t-28.5 34.5t-46.5 13.5q-26 0 -45 -13.5t-28 -34.5t-12.5 -40.5 t-3.5 -37.5q0 -136 89 -136z" />
<glyph unicode="p" horiz-adv-x="619" d="M246 -195h-198v672q103 59 261 59q139 0 206.5 -71.5t67.5 -189.5q0 -287 -241 -287q-59 0 -96 25v-208zM246 378v-225q23 -17 54 -17q40 0 62.5 35.5t22.5 100.5q0 116 -80 116q-32 0 -59 -10z" />
<glyph unicode="q" horiz-adv-x="612" d="M564 -195h-198v210q-42 -27 -89 -27q-111 0 -180.5 65t-69.5 214q0 124 72 196.5t196 72.5q162 0 269 -60v-671zM366 161v215q-22 12 -54 12q-39 0 -63 -33.5t-24 -89.5q0 -62 24 -95.5t66 -33.5q29 0 51 25z" />
<glyph unicode="r" horiz-adv-x="429" d="M246 0h-198v524h188v-81q67 106 188 84v-156q-123 4 -178 -44v-327z" />
<glyph unicode="s" horiz-adv-x="588" d="M547 358h-186q-4 61 -67 61q-20 0 -36 -8.5t-16 -21.5q0 -20 21.5 -31t86.5 -29q3 -1 14 -4.5t18 -5.5q97 -30 135 -63.5t38 -98.5q0 -77 -72 -123t-190 -46q-119 0 -188 47t-72 138h194q3 -56 61 -56q55 0 55 27q0 17 -17 26t-59 19q-34 8 -77 21q-143 45 -143 158 q0 83 66.5 125.5t181.5 42.5q114 0 182.5 -48t69.5 -130z" />
<glyph unicode="t" horiz-adv-x="506" d="M476 148v-142q-50 -18 -144 -18q-104 0 -171.5 44t-67.5 131v231h-84v83l212 206h71v-159h166v-130h-166v-158q0 -22 0.5 -30t3 -23t8.5 -20t17 -12t28.5 -9t42.5 -2q49 0 84 8z" />
<glyph unicode="u" horiz-adv-x="626" d="M577 0h-195v54q-40 -66 -129 -66q-108 0 -156.5 49.5t-48.5 133.5v353h198v-298q0 -75 55 -75q27 0 49 15.5t29 33.5v324h198v-524z" />
<glyph unicode="v" horiz-adv-x="619" d="M418 0h-219l-189 524h208l91 -337l93 337h207z" />
<glyph unicode="w" horiz-adv-x="915" d="M723 0h-187l-79 299l-76 -299h-194l-173 524h193l86 -319l78 319h172l82 -319l85 319h191z" />
<glyph unicode="x" horiz-adv-x="658" d="M640 0h-245l-79 146l-76 -146h-223l193 266l-180 258h223l68 -132l72 132h230l-184 -250z" />
<glyph unicode="y" horiz-adv-x="620" d="M72 -188v143q24 -3 42 -3q40 0 60.5 13.5t33.5 42.5l-202 516h213l91 -321l89 321h208q-175 -495 -210 -570q-34 -72 -88.5 -110.5t-146.5 -38.5q-36 0 -90 7z" />
<glyph unicode="z" horiz-adv-x="551" d="M526 0h-500v130l232 243h-217v151h471v-136l-224 -238h238v-150z" />
<glyph unicode="{" horiz-adv-x="389" d="M354 -168h-96q-74 0 -117.5 37t-43.5 112v167q0 10 -3 20t-18 21.5t-41 11.5v160q26 0 41 12t18 21.5t3 19.5v167q0 75 44 112t117 37h96v-154h-62q-25 -3 -25 -34v-169q0 -32 -27 -60.5t-68 -31.5q41 -4 68 -32.5t27 -59.5v-169q0 -33 26 -33h61v-155z" />
<glyph unicode="|" horiz-adv-x="278" d="M215 -250h-153v1000h153v-1000z" />
<glyph unicode="}" horiz-adv-x="389" d="M131 -168h-96v155h61q26 0 26 33v169q0 31 26.5 59.5t67.5 32.5q-40 3 -67 31.5t-27 60.5v169q0 31 -25 34h-62v154h96q73 0 117 -37t44 -112v-167q0 -10 3 -19.5t18 -21.5t41 -12v-160q-26 0 -41 -11.5t-18 -21.5t-3 -20v-167q0 -75 -43.5 -112t-117.5 -37z" />
<glyph unicode="~" d="M527 361l45 -122q-71 -82 -146 -82q-12 0 -24 2t-25.5 6.5t-19.5 7t-22.5 10.5t-19.5 9q-50 27 -77 27q-35 0 -102 -73l-49 126q76 84 149 84q38 0 116 -37q52 -27 74 -27q15 0 43 18t58 51z" />
<glyph unicode="&#xa1;" horiz-adv-x="333" d="M269 -198h-205v205l60 255h95l50 -255v-205zM167 524q49 0 75 -29t26 -72q0 -44 -26 -72t-75 -28q-46 0 -74 29t-28 71q0 43 26.5 72t75.5 29z" />
<glyph unicode="&#xa2;" d="M374 -109h-52v98q-128 6 -195 78.5t-67 198.5q0 112 63.5 188t198.5 82v76h52v-78q104 -9 163 -71t59 -134h-181q-5 37 -41 53v-246q40 16 44 61h181q-5 -86 -64.5 -143t-160.5 -65v-98zM322 134v252q-31 -5 -48.5 -25.5t-21.5 -41t-4 -50.5q0 -118 74 -135z" />
<glyph unicode="&#xa3;" d="M554 189l74 -126q-82 -80 -164 -80q-50 0 -130 20t-117 20q-42 0 -97 -40l-79 110q59 30 88.5 61t29.5 71q0 33 -11 61h-116v126h70q-36 57 -36 100q0 90 73.5 141t186.5 51q127 0 199 -65t72 -170h-182q0 37 -19.5 56.5t-54.5 19.5q-38 0 -54 -14.5t-16 -45.5 q0 -23 25 -73h136v-126h-85q1 -6 1 -18q0 -37 -12 -64.5t-49 -55.5l2 -2q36 15 67 15q22 0 55.5 -9.5t60.5 -9.5q26 0 43.5 10t38.5 37z" />
<glyph unicode="&#xa4;" d="M516 79l-63 61q-59 -33 -125 -33q-72 0 -121 32l-61 -60l-87 87l63 61q-33 58 -33 123q0 75 34 124l-63 59l84 87l63 -63q66 36 123 36q66 0 124 -35q25 22 54 53l84 -86l-53 -53q33 -57 33 -119q0 -72 -33 -128l61 -61zM330 242q41 0 70 31.5t29 74.5q0 45 -28.5 76.5 t-70.5 31.5t-70.5 -31.5t-28.5 -74.5q0 -45 29 -76.5t70 -31.5z" />
<glyph unicode="&#xa5;" d="M585 106h-151v-106h-198l-1 106h-160v120h159v43l-24 42h-135v120h66l-157 273h234l117 -279l114 279h227l-152 -273h61v-120h-127l-23 -42v-43h150v-120z" />
<glyph unicode="&#xa6;" horiz-adv-x="278" d="M215 -119h-153v310h153v-310zM215 381h-153v310h153v-310z" />
<glyph unicode="&#xa7;" horiz-adv-x="667" d="M585 522h-172q-3 22 -26 43.5t-63 21.5q-28 0 -48 -10t-20 -27q0 -33 126 -94q8 -3 11 -5q41 -19 64.5 -31t62 -35.5t59.5 -44t37.5 -50.5t16.5 -61q0 -83 -97 -134q36 -39 36 -88q0 -76 -67 -130.5t-174 -54.5q-39 0 -79 10.5t-79.5 33t-67.5 65.5t-35 101h172 q3 -23 27.5 -45.5t61.5 -22.5q26 0 48 12t22 28q0 15 -33 36.5t-142 81.5q-35 19 -51 28t-43.5 27t-41 31.5t-29 32t-22 39t-6.5 44.5q0 78 92 130q-41 44 -41 92q0 78 66.5 132t173.5 54q40 0 80.5 -10.5t79.5 -33t66.5 -65.5t34.5 -101zM315 247l119 -66q29 14 29 31 q0 24 -125 95l-116 67q-30 -18 -30 -32q0 -29 123 -95z" />
<glyph unicode="&#xa8;" horiz-adv-x="400" d="M413 654q0 -32 -24 -55.5t-70 -23.5q-44 0 -69 23.5t-25 55.5q0 36 24.5 60t69.5 24q46 0 70 -23.5t24 -60.5zM176 654q0 -32 -24 -55.5t-70 -23.5q-44 0 -69 23.5t-25 55.5q0 36 24.5 60t69.5 24q46 0 70 -23.5t24 -60.5z" />
<glyph unicode="&#xa9;" horiz-adv-x="800" d="M585 391h-103q-7 31 -29.5 53t-55.5 22q-84 0 -84 -104q0 -53 23 -84t71 -31q27 0 48.5 22.5t28.5 58.5h105q-10 -76 -60.5 -129.5t-121.5 -53.5q-99 0 -151 57t-52 159q0 88 47.5 147.5t145.5 59.5q81 0 132 -54.5t56 -122.5zM399 -17q-159 0 -264.5 110t-105.5 265 q0 153 105.5 263t264.5 110q160 0 265.5 -110t105.5 -263q0 -155 -105 -265t-266 -110zM399 93q111 0 184.5 76.5t73.5 188.5q0 111 -73.5 187t-184.5 76q-110 0 -183 -76t-73 -187q0 -112 73 -188.5t183 -76.5z" />
<glyph unicode="&#xaa;" horiz-adv-x="414" d="M393 470v-96h-4q-4 -1 -6 -1q-17 -3 -29 -3q-69 0 -104 42q-39 -42 -108 -42q-61 0 -95 27.5t-34 76.5q0 54 46.5 78.5t171.5 25.5v18q1 12 -1 19t-11.5 13.5t-27.5 6.5q-42 0 -42 -36h-122q0 53 43.5 79t120.5 26q74 0 120 -30.5t46 -79.5v-95q0 -17 5.5 -23t30.5 -6z M231 470v44q-51 -1 -71.5 -7t-20.5 -25q0 -29 44 -29q25 0 48 17z" />
<glyph unicode="&#xab;" horiz-adv-x="517" d="M479 27l-209 187v105l209 189v-163l-104 -80l104 -76v-162zM247 27l-209 187v105l209 189v-163l-104 -80l104 -76v-162z" />
<glyph unicode="&#xac;" d="M585 106h-153v191h-358v153h511v-344z" />
<glyph unicode="&#xad;" horiz-adv-x="333" d="M300 165h-268v182h268v-182z" />
<glyph unicode="&#xae;" horiz-adv-x="800" d="M571 168h-103l-92 151h-37v-151h-87v381h138q97 0 133 -23t36 -85q0 -85 -86 -113zM339 391h42q45 0 65 11t20 38q0 17 -12 25t-27 9.5t-46 1.5h-42v-85zM399 -17q-159 0 -264.5 110t-105.5 265q0 153 105.5 263t264.5 110q160 0 265.5 -110t105.5 -263q0 -155 -105 -265 t-266 -110zM399 93q111 0 184.5 76.5t73.5 188.5q0 111 -73.5 187t-184.5 76q-110 0 -183 -76t-73 -187q0 -112 73 -188.5t183 -76.5z" />
<glyph unicode="&#xaf;" horiz-adv-x="400" d="M369 598h-339v91h339v-91z" />
<glyph unicode="&#xb0;" horiz-adv-x="400" d="M199 484q30 0 49 20.5t19 50.5t-19 51t-49 21q-28 0 -47 -21t-19 -51t19 -50.5t47 -20.5zM346 555q0 -62 -42 -104t-105 -42q-62 0 -104 42t-42 104q0 63 42 105t104 42q63 0 105 -42t42 -105z" />
<glyph unicode="&#xb1;" d="M585 0h-511v153h511v-153zM585 271h-179v-82h-153v82h-179v153h179v82h153v-82h179v-153z" />
<glyph unicode="&#xb2;" horiz-adv-x="430" d="M405 282h-379q-2 52 33.5 95t107.5 88q52 32 76 53.5t24 44.5q0 45 -50 45q-18 0 -31.5 -14.5t-15.5 -35.5h-120q11 146 173 146q81 0 128.5 -32.5t47.5 -96.5q0 -26 -9.5 -47.5t-31.5 -41t-41 -32t-55.5 -34.5t-56.5 -35h200v-103z" />
<glyph unicode="&#xb3;" horiz-adv-x="430" d="M200 459h-28v75h28q63 0 63 40q0 34 -50 34t-57 -34h-126q1 62 52.5 96t127.5 34q83 0 132.5 -27.5t49.5 -84.5t-74 -90q84 -35 84 -98q0 -55 -56 -91.5t-136 -36.5q-40 0 -80 14t-71.5 49.5t-31.5 84.5h125q8 -51 60 -51q28 0 40.5 13.5t12.5 31.5q0 41 -65 41z" />
<glyph unicode="&#xb4;" horiz-adv-x="400" d="M353 716l-170 -147h-136l99 147h207z" />
<glyph unicode="&#xb5;" horiz-adv-x="626" d="M577 0h-189v55q-16 -26 -53 -44t-89 -13v-166h-198v692h198v-300q0 -41 11.5 -61t49.5 -20q48 0 72 45v336h198v-524z" />
<glyph unicode="&#xb6;" horiz-adv-x="667" d="M617 -176h-135v787h-67v-787h-135v504q-109 1 -169.5 55.5t-60.5 137.5q0 89 53.5 141t151.5 52h362v-890z" />
<glyph unicode="&#xb7;" horiz-adv-x="250" d="M125 139q-49 0 -75.5 29t-26.5 72q0 42 28 71t74 29q49 0 75 -28t26 -72q0 -43 -26 -72t-75 -29z" />
<glyph unicode="&#xb8;" horiz-adv-x="400" d="M83 -212l20 48q44 -23 79 -23q34 0 34 37q0 36 -34 36q-24 0 -74 -16l-16 45q55 29 111 29q114 0 114 -94q0 -93 -121 -93q-53 0 -113 31z" />
<glyph unicode="&#xb9;" horiz-adv-x="430" d="M316 282h-133v260l-87 -42l-42 94l179 102h83v-414z" />
<glyph unicode="&#xba;" horiz-adv-x="395" d="M377 538q0 -76 -47 -122t-135 -46q-87 0 -134 46t-47 122q0 69 44 117.5t137 48.5q94 0 138 -48.5t44 -117.5zM194 458q25 0 39 23.5t14 58.5q0 27 -12 52t-41 25q-27 0 -38.5 -25t-11.5 -52q0 -35 13.5 -58.5t36.5 -23.5z" />
<glyph unicode="&#xbb;" horiz-adv-x="517" d="M247 214l-209 -187v162l104 76l-104 80v163l209 -189v-105zM479 214l-209 -187v162l104 76l-104 80v163l209 -189v-105z" />
<glyph unicode="&#xbc;" horiz-adv-x="1000" d="M862 0h-136v82h-202v98l213 241h125v-237h60v-102h-60v-82zM726 184v116l-105 -116h105zM345 -26h-112l388 748h112zM339 282h-133v260l-87 -42l-42 94l179 102h83v-414z" />
<glyph unicode="&#xbd;" horiz-adv-x="1000" d="M326 -26h-112l388 748h112zM320 282h-133v260l-87 -42l-42 94l179 102h83v-414zM941 0h-410q-3 52 36.5 95t119.5 88q57 32 84 53.5t27 44.5q0 45 -55 45q-25 0 -42.5 -14.5t-20.5 -35.5h-123q13 146 193 146q84 0 134 -32.5t50 -96.5q0 -26 -10 -47.5t-33.5 -41t-43 -32 t-58.5 -34.5t-60 -35h212v-103z" />
<glyph unicode="&#xbe;" horiz-adv-x="1000" d="M210 459h-28v75h28q63 0 63 40q0 34 -50 34t-57 -34h-126q1 62 52.5 96t127.5 34q83 0 132.5 -27.5t49.5 -84.5t-74 -90q84 -35 84 -98q0 -55 -56 -91.5t-136 -36.5q-40 0 -80 14t-71.5 49.5t-31.5 84.5h125q8 -51 60 -51q28 0 40.5 13.5t12.5 31.5q0 41 -65 41zM386 -26 h-112l388 748h112zM903 0h-136v82h-202v98l213 241h125v-237h60v-102h-60v-82zM767 184v116l-105 -116h105z" />
<glyph unicode="&#xbf;" horiz-adv-x="611" d="M379 38h199q0 -122 -82 -187.5t-198 -65.5q-125 0 -195 49.5t-70 147.5q0 53 19.5 89t47.5 54.5t56 34t47.5 40.5t19.5 62h190q1 -10 1 -33q0 -38 -12.5 -67.5t-31.5 -45t-41.5 -29.5t-41.5 -24t-31.5 -25.5t-12.5 -36.5q0 -48 60 -48q31 0 53.5 23t22.5 62zM414 423 q0 -42 -28 -71t-74 -29q-49 0 -75 28t-26 72q0 43 26 72t75 29t75.5 -29t26.5 -72z" />
<glyph unicode="&#xc0;" horiz-adv-x="807" d="M796 0h-244l-38 125h-226l-38 -125h-239l267 714h250zM472 263l-71 236l-71 -236h142zM504 764h-135l-170 147h206z" />
<glyph unicode="&#xc1;" horiz-adv-x="807" d="M796 0h-244l-38 125h-226l-38 -125h-239l267 714h250zM472 263l-71 236l-71 -236h142zM602 911l-170 -147h-136l99 147h207z" />
<glyph unicode="&#xc2;" horiz-adv-x="807" d="M796 0h-244l-38 125h-226l-38 -125h-239l267 714h250zM472 263l-71 236l-71 -236h142zM605 764h-146l-56 75l-55 -75h-146l120 147h162z" />
<glyph unicode="&#xc3;" horiz-adv-x="807" d="M796 0h-244l-38 125h-226l-38 -125h-239l267 714h250zM472 263l-71 236l-71 -236h142zM526 909h79q0 -60 -32.5 -104.5t-89.5 -44.5q-42 0 -98 31q-48 25 -66 25t-27.5 -15t-9.5 -37h-80q0 61 33 104t88 43q30 0 94 -32q52 -24 70 -24t28.5 15.5t10.5 38.5z" />
<glyph unicode="&#xc4;" horiz-adv-x="807" d="M796 0h-244l-38 125h-226l-38 -125h-239l267 714h250zM472 263l-71 236l-71 -236h142zM616 848q0 -32 -24 -55.5t-70 -23.5q-44 0 -69 23.5t-25 55.5q0 36 24.5 60t69.5 24q46 0 70 -23.5t24 -60.5zM379 848q0 -32 -24 -55.5t-70 -23.5q-44 0 -69 23.5t-25 55.5 q0 36 24.5 60t69.5 24q46 0 70 -23.5t24 -60.5z" />
<glyph unicode="&#xc5;" horiz-adv-x="807" d="M796 0h-244l-38 125h-226l-38 -125h-239l267 714h250zM472 263l-71 236l-71 -236h142zM515 848q0 -46 -31 -77.5t-80 -31.5q-50 0 -81.5 31.5t-31.5 77.5q0 50 31 82t82 32q50 0 80.5 -32t30.5 -82zM457 849q0 22 -15 39t-38 17t-38.5 -17t-15.5 -39q0 -21 15.5 -36.5 t38.5 -15.5t38 15.5t15 36.5z" />
<glyph unicode="&#xc6;" horiz-adv-x="1059" d="M1014 0h-535v105h-197l-42 -105h-229l334 714h657v-183h-303v-89h248v-170h-248v-89h315v-183zM479 244v287h-23l-117 -287h140z" />
<glyph unicode="&#xc7;" horiz-adv-x="755" d="M725 453h-215q-4 41 -36 70.5t-78 29.5q-137 0 -137 -184q0 -100 35.5 -154t105.5 -54q44 0 77 31.5t37 87.5h216q-7 -128 -97 -212.5t-233 -84.5q-178 0 -269.5 100.5t-91.5 281.5q0 75 19 138.5t59 116t111.5 82.5t167.5 30q83 0 148.5 -26t103.5 -68.5t57.5 -89.5 t19.5 -95zM279 -212l20 48q44 -23 79 -23q34 0 34 37q0 36 -34 36q-24 0 -74 -16l-16 45q55 29 111 29q114 0 114 -94q0 -93 -121 -93q-53 0 -113 31z" />
<glyph unicode="&#xc8;" horiz-adv-x="669" d="M624 0h-555v714h543v-183h-323v-89h268v-170h-268v-89h335v-183zM448 764h-135l-170 147h206z" />
<glyph unicode="&#xc9;" horiz-adv-x="669" d="M624 0h-555v714h543v-183h-323v-89h268v-170h-268v-89h335v-183zM547 911l-170 -147h-136l99 147h207z" />
<glyph unicode="&#xca;" horiz-adv-x="669" d="M624 0h-555v714h543v-183h-323v-89h268v-170h-268v-89h335v-183zM547 764h-146l-56 75l-55 -75h-146l120 147h162z" />
<glyph unicode="&#xcb;" horiz-adv-x="669" d="M624 0h-555v714h543v-183h-323v-89h268v-170h-268v-89h335v-183zM560 848q0 -32 -24 -55.5t-70 -23.5q-44 0 -69 23.5t-25 55.5q0 36 24.5 60t69.5 24q46 0 70 -23.5t24 -60.5zM323 848q0 -32 -24 -55.5t-70 -23.5q-44 0 -69 23.5t-25 55.5q0 36 24.5 60t69.5 24 q46 0 70 -23.5t24 -60.5z" />
<glyph unicode="&#xcc;" horiz-adv-x="358" d="M289 0h-220v714h220v-714zM282 764h-135l-170 147h206z" />
<glyph unicode="&#xcd;" horiz-adv-x="358" d="M289 0h-220v714h220v-714zM382 911l-170 -147h-136l99 147h207z" />
<glyph unicode="&#xce;" horiz-adv-x="358" d="M289 0h-220v714h220v-714zM381 764h-146l-56 75l-55 -75h-146l120 147h162z" />
<glyph unicode="&#xcf;" horiz-adv-x="358" d="M289 0h-220v714h220v-714zM392 848q0 -32 -24 -55.5t-70 -23.5q-44 0 -69 23.5t-25 55.5q0 36 24.5 60t69.5 24q46 0 70 -23.5t24 -60.5zM155 848q0 -32 -24 -55.5t-70 -23.5q-44 0 -69 23.5t-25 55.5q0 36 24.5 60t69.5 24q46 0 70 -23.5t24 -60.5z" />
<glyph unicode="&#xd0;" horiz-adv-x="791" d="M391 0h-322v310h-56v122h56v282h324q359 0 359 -356q0 -162 -88 -260t-273 -98zM425 310h-135v-127h62q81 0 131 41t50 134q0 45 -12.5 78t-31 51t-45.5 28.5t-50 13t-51 2.5h-53v-99h135v-122z" />
<glyph unicode="&#xd1;" horiz-adv-x="829" d="M760 0h-212l-271 399v-399h-208v714h228l255 -387v387h208v-714zM537 909h79q0 -60 -32.5 -104.5t-89.5 -44.5q-42 0 -98 31q-48 25 -66 25t-27.5 -15t-9.5 -37h-80q0 61 33 104t88 43q30 0 94 -32q52 -24 70 -24t28.5 15.5t10.5 38.5z" />
<glyph unicode="&#xd2;" horiz-adv-x="826" d="M787 355q0 -173 -104.5 -272.5t-269.5 -99.5t-269.5 99.5t-104.5 272.5q0 177 100.5 276.5t273.5 99.5t273.5 -99.5t100.5 -276.5zM413 161q64 0 109.5 46.5t45.5 147.5q0 103 -45.5 150.5t-109.5 47.5t-109.5 -47.5t-45.5 -150.5q0 -101 45.5 -147.5t109.5 -46.5z M516 764h-135l-170 147h206z" />
<glyph unicode="&#xd3;" horiz-adv-x="826" d="M787 355q0 -173 -104.5 -272.5t-269.5 -99.5t-269.5 99.5t-104.5 272.5q0 177 100.5 276.5t273.5 99.5t273.5 -99.5t100.5 -276.5zM413 161q64 0 109.5 46.5t45.5 147.5q0 103 -45.5 150.5t-109.5 47.5t-109.5 -47.5t-45.5 -150.5q0 -101 45.5 -147.5t109.5 -46.5z M616 911l-170 -147h-136l99 147h207z" />
<glyph unicode="&#xd4;" horiz-adv-x="826" d="M787 355q0 -173 -104.5 -272.5t-269.5 -99.5t-269.5 99.5t-104.5 272.5q0 177 100.5 276.5t273.5 99.5t273.5 -99.5t100.5 -276.5zM413 161q64 0 109.5 46.5t45.5 147.5q0 103 -45.5 150.5t-109.5 47.5t-109.5 -47.5t-45.5 -150.5q0 -101 45.5 -147.5t109.5 -46.5z M614 766h-146l-56 75l-55 -75h-146l120 147h162z" />
<glyph unicode="&#xd5;" horiz-adv-x="826" d="M787 355q0 -173 -104.5 -272.5t-269.5 -99.5t-269.5 99.5t-104.5 272.5q0 177 100.5 276.5t273.5 99.5t273.5 -99.5t100.5 -276.5zM413 161q64 0 109.5 46.5t45.5 147.5q0 103 -45.5 150.5t-109.5 47.5t-109.5 -47.5t-45.5 -150.5q0 -101 45.5 -147.5t109.5 -46.5z M535 910h79q0 -60 -32.5 -104.5t-89.5 -44.5q-42 0 -98 31q-48 25 -66 25t-27.5 -15t-9.5 -37h-80q0 61 33 104t88 43q30 0 94 -32q52 -24 70 -24t28.5 15.5t10.5 38.5z" />
<glyph unicode="&#xd6;" horiz-adv-x="826" d="M787 355q0 -173 -104.5 -272.5t-269.5 -99.5t-269.5 99.5t-104.5 272.5q0 177 100.5 276.5t273.5 99.5t273.5 -99.5t100.5 -276.5zM413 161q64 0 109.5 46.5t45.5 147.5q0 103 -45.5 150.5t-109.5 47.5t-109.5 -47.5t-45.5 -150.5q0 -101 45.5 -147.5t109.5 -46.5z M626 848q0 -32 -24 -55.5t-70 -23.5q-44 0 -69 23.5t-25 55.5q0 36 24.5 60t69.5 24q46 0 70 -23.5t24 -60.5zM389 848q0 -32 -24 -55.5t-70 -23.5q-44 0 -69 23.5t-25 55.5q0 36 24.5 60t69.5 24q46 0 70 -23.5t24 -60.5z" />
<glyph unicode="&#xd7;" d="M586 107l-109 -108l-147 148l-148 -148l-108 108l148 148l-148 148l108 108l148 -148l147 148l109 -108l-148 -148z" />
<glyph unicode="&#xd8;" horiz-adv-x="826" d="M108 -33l-69 61l79 82q-79 98 -79 245q0 177 100.5 276.5t273.5 99.5q141 0 237 -68l75 78l61 -64l-73 -76q74 -96 74 -246q0 -173 -104.5 -272.5t-269.5 -99.5q-134 0 -228 65zM270 268l240 249q-42 36 -97 36q-64 0 -109.5 -47.5t-45.5 -150.5q0 -51 12 -87zM557 437 l-236 -247q37 -29 92 -29q64 0 109.5 46.5t45.5 147.5q0 46 -11 82z" />
<glyph unicode="&#xd9;" horiz-adv-x="794" d="M505 267v447h220v-451q0 -133 -87.5 -206.5t-240.5 -73.5t-240.5 73.5t-87.5 206.5v451h220v-447q0 -55 29.5 -81t78.5 -26t78.5 26t29.5 81zM501 764h-135l-170 147h206z" />
<glyph unicode="&#xda;" horiz-adv-x="794" d="M505 267v447h220v-451q0 -133 -87.5 -206.5t-240.5 -73.5t-240.5 73.5t-87.5 206.5v451h220v-447q0 -55 29.5 -81t78.5 -26t78.5 26t29.5 81zM603 911l-170 -147h-136l99 147h207z" />
<glyph unicode="&#xdb;" horiz-adv-x="794" d="M505 267v447h220v-451q0 -133 -87.5 -206.5t-240.5 -73.5t-240.5 73.5t-87.5 206.5v451h220v-447q0 -55 29.5 -81t78.5 -26t78.5 26t29.5 81zM598 764h-146l-56 75l-55 -75h-146l120 147h162z" />
<glyph unicode="&#xdc;" horiz-adv-x="794" d="M609 848q0 -32 -24 -55.5t-70 -23.5q-44 0 -69 23.5t-25 55.5q0 36 24.5 60t69.5 24q46 0 70 -23.5t24 -60.5zM372 848q0 -32 -24 -55.5t-70 -23.5q-44 0 -69 23.5t-25 55.5q0 36 24.5 60t69.5 24q46 0 70 -23.5t24 -60.5zM505 267v447h220v-451q0 -133 -87.5 -206.5 t-240.5 -73.5t-240.5 73.5t-87.5 206.5v451h220v-447q0 -55 29.5 -81t78.5 -26t78.5 26t29.5 81z" />
<glyph unicode="&#xdd;" horiz-adv-x="757" d="M502 0h-238v273l-261 441h254l127 -243l124 243h246l-252 -441v-273zM542 911l-170 -147h-136l99 147h207z" />
<glyph unicode="&#xde;" horiz-adv-x="709" d="M421 113h-132v-113h-220v714h220v-90h139q36 0 69 -5t71 -21t65.5 -42.5t46 -73t18.5 -108.5q0 -122 -72.5 -191.5t-204.5 -69.5zM289 285h105q100 0 100 80q0 33 -20 55t-80 22h-105v-157z" />
<glyph unicode="&#xdf;" horiz-adv-x="648" d="M286 2v152q18 -5 39 -5q88 0 88 87q0 39 -19.5 61t-49.5 25q-18 2 -58 2v123q46 0 75.5 16.5t29.5 52.5q0 25 -19.5 41.5t-48.5 16.5q-44 0 -60.5 -26t-16.5 -78v-470h-198v476q0 121 69.5 188t205.5 67q121 0 186.5 -55t65.5 -134q0 -51 -28 -91t-76 -59 q137 -34 137 -176q0 -59 -23 -104t-60.5 -69.5t-79.5 -36.5t-86 -12q-33 0 -73 8z" />
<glyph unicode="&#xe0;" horiz-adv-x="625" d="M600 138v-143q-70 -11 -127 0.5t-90 43.5q-61 -49 -170 -49q-90 0 -139 45t-49 125q0 56 26 90t97.5 54t196.5 20v41q0 47 -67 47q-40 0 -58.5 -14.5t-19.5 -49.5h-164q-1 93 66.5 140.5t185.5 47.5q115 0 184.5 -46.5t69.5 -125.5v-183q0 -24 10.5 -33.5t47.5 -9.5z M345 143v77q-43 -1 -66.5 -4.5t-39.5 -13.5t-16 -29q0 -46 52 -46q35 0 70 16zM397 569h-135l-170 147h206z" />
<glyph unicode="&#xe1;" horiz-adv-x="625" d="M600 138v-143q-70 -11 -127 0.5t-90 43.5q-61 -49 -170 -49q-90 0 -139 45t-49 125q0 56 26 90t97.5 54t196.5 20v41q0 47 -67 47q-40 0 -58.5 -14.5t-19.5 -49.5h-164q-1 93 66.5 140.5t185.5 47.5q115 0 184.5 -46.5t69.5 -125.5v-183q0 -24 10.5 -33.5t47.5 -9.5z M345 143v77q-43 -1 -66.5 -4.5t-39.5 -13.5t-16 -29q0 -46 52 -46q35 0 70 16zM498 716l-170 -147h-136l99 147h207z" />
<glyph unicode="&#xe2;" horiz-adv-x="626" d="M600 138v-143q-70 -11 -127 0.5t-90 43.5q-61 -49 -170 -49q-90 0 -139 45t-49 125q0 56 26 90t97.5 54t196.5 20v41q0 47 -67 47q-40 0 -58.5 -14.5t-19.5 -49.5h-164q-1 93 66.5 140.5t185.5 47.5q115 0 184.5 -46.5t69.5 -125.5v-183q0 -24 10.5 -33.5t47.5 -9.5z M345 143v77q-43 -1 -66.5 -4.5t-39.5 -13.5t-16 -29q0 -46 52 -46q35 0 70 16zM494 571h-146l-56 75l-55 -75h-146l120 147h162z" />
<glyph unicode="&#xe3;" horiz-adv-x="625" d="M600 138v-143q-70 -11 -127 0.5t-90 43.5q-61 -49 -170 -49q-90 0 -139 45t-49 125q0 56 26 90t97.5 54t196.5 20v41q0 47 -67 47q-40 0 -58.5 -14.5t-19.5 -49.5h-164q-1 93 66.5 140.5t185.5 47.5q115 0 184.5 -46.5t69.5 -125.5v-183q0 -24 10.5 -33.5t47.5 -9.5z M345 143v77q-43 -1 -66.5 -4.5t-39.5 -13.5t-16 -29q0 -46 52 -46q35 0 70 16zM412 715h79q0 -60 -32.5 -104.5t-89.5 -44.5q-42 0 -98 31q-48 25 -66 25t-27.5 -15t-9.5 -37h-80q0 61 33 104t88 43q30 0 94 -32q52 -24 70 -24t28.5 15.5t10.5 38.5z" />
<glyph unicode="&#xe4;" horiz-adv-x="625" d="M600 138v-143q-70 -11 -127 0.5t-90 43.5q-61 -49 -170 -49q-90 0 -139 45t-49 125q0 56 26 90t97.5 54t196.5 20v41q0 47 -67 47q-40 0 -58.5 -14.5t-19.5 -49.5h-164q-1 93 66.5 140.5t185.5 47.5q115 0 184.5 -46.5t69.5 -125.5v-183q0 -24 10.5 -33.5t47.5 -9.5z M345 143v77q-43 -1 -66.5 -4.5t-39.5 -13.5t-16 -29q0 -46 52 -46q35 0 70 16zM502 654q0 -32 -24 -55.5t-70 -23.5q-44 0 -69 23.5t-25 55.5q0 36 24.5 60t69.5 24q46 0 70 -23.5t24 -60.5zM265 654q0 -32 -24 -55.5t-70 -23.5q-44 0 -69 23.5t-25 55.5q0 36 24.5 60 t69.5 24q46 0 70 -23.5t24 -60.5z" />
<glyph unicode="&#xe5;" horiz-adv-x="625" d="M600 138v-143q-70 -11 -127 0.5t-90 43.5q-61 -49 -170 -49q-90 0 -139 45t-49 125q0 56 26 90t97.5 54t196.5 20v41q0 47 -67 47q-40 0 -58.5 -14.5t-19.5 -49.5h-164q-1 93 66.5 140.5t185.5 47.5q115 0 184.5 -46.5t69.5 -125.5v-183q0 -24 10.5 -33.5t47.5 -9.5z M345 143v77q-43 -1 -66.5 -4.5t-39.5 -13.5t-16 -29q0 -46 52 -46q35 0 70 16zM411 663q0 -46 -31 -77.5t-80 -31.5q-50 0 -81.5 31.5t-31.5 77.5q0 50 31 82t82 32q50 0 80.5 -32t30.5 -82zM353 664q0 22 -15 39t-38 17t-38.5 -17t-15.5 -39q0 -21 15.5 -36.5t38.5 -15.5 t38 15.5t15 36.5z" />
<glyph unicode="&#xe6;" horiz-adv-x="898" d="M821 162l37 -122q-102 -52 -234 -52q-124 0 -197 67q-74 -65 -214 -65q-90 0 -139 45t-49 125q0 56 25 90t94.5 54t190.5 20v41q0 47 -57 47q-40 0 -58.5 -14.5t-19.5 -49.5h-164q-1 93 62 140.5t180 47.5q107 0 174 -64q32 29 80.5 46t99.5 17q124 0 179.5 -51.5 t55.5 -127.5q0 -84 -55 -123.5t-171 -39.5q-73 0 -114 14q8 -83 127 -83q89 0 167 38zM527 325q164 -20 164 34q0 20 -17.5 34.5t-53.5 14.5q-43 0 -66.5 -23.5t-26.5 -59.5zM335 181v39q-59 -2 -85.5 -11t-26.5 -36q0 -46 52 -46q25 0 42.5 15.5t17.5 38.5z" />
<glyph unicode="&#xe7;" horiz-adv-x="616" d="M568 329h-181q-3 24 -22.5 41.5t-46.5 17.5q-28 0 -47 -10.5t-27 -30t-11 -37t-3 -41.5q0 -138 92 -138q24 0 44.5 18.5t23.5 47.5h181q-5 -93 -73 -151t-182 -58q-138 0 -211 73.5t-73 204.5q0 55 15.5 101.5t47 85.5t87.5 61t131 22q120 0 187.5 -64t67.5 -143z M200 -212l20 48q44 -23 79 -23q34 0 34 37q0 36 -34 36q-24 0 -74 -16l-16 45q55 29 111 29q114 0 114 -94q0 -93 -121 -93q-53 0 -113 31z" />
<glyph unicode="&#xe8;" horiz-adv-x="583" d="M508 162l35 -122q-84 -52 -225 -52t-214.5 72t-73.5 205q0 116 74 193.5t212 77.5q121 0 178.5 -52t57.5 -127q0 -85 -55.5 -124.5t-168.5 -39.5q-62 0 -113 20q4 -88 132 -88q87 0 161 37zM217 326q33 -11 70.5 -13t66 9.5t28.5 36.5q0 50 -71 50q-46 0 -69 -23.5 t-25 -59.5zM408 569h-135l-170 147h206z" />
<glyph unicode="&#xe9;" horiz-adv-x="583" d="M508 162l35 -122q-84 -52 -225 -52t-214.5 72t-73.5 205q0 116 74 193.5t212 77.5q121 0 178.5 -52t57.5 -127q0 -85 -55.5 -124.5t-168.5 -39.5q-62 0 -113 20q4 -88 132 -88q87 0 161 37zM217 326q33 -11 70.5 -13t66 9.5t28.5 36.5q0 50 -71 50q-46 0 -69 -23.5 t-25 -59.5zM508 716l-170 -147h-136l99 147h207z" />
<glyph unicode="&#xea;" horiz-adv-x="583" d="M508 162l35 -122q-84 -52 -225 -52t-214.5 72t-73.5 205q0 116 74 193.5t212 77.5q121 0 178.5 -52t57.5 -127q0 -85 -55.5 -124.5t-168.5 -39.5q-62 0 -113 20q4 -88 132 -88q87 0 161 37zM217 326q33 -11 70.5 -13t66 9.5t28.5 36.5q0 50 -71 50q-46 0 -69 -23.5 t-25 -59.5zM507 571h-146l-56 75l-55 -75h-146l120 147h162z" />
<glyph unicode="&#xeb;" horiz-adv-x="583" d="M508 162l35 -122q-84 -52 -225 -52t-214.5 72t-73.5 205q0 116 74 193.5t212 77.5q121 0 178.5 -52t57.5 -127q0 -85 -55.5 -124.5t-168.5 -39.5q-62 0 -113 20q4 -88 132 -88q87 0 161 37zM217 326q33 -11 70.5 -13t66 9.5t28.5 36.5q0 50 -71 50q-46 0 -69 -23.5 t-25 -59.5zM518 654q0 -32 -24 -55.5t-70 -23.5q-44 0 -69 23.5t-25 55.5q0 36 24.5 60t69.5 24q46 0 70 -23.5t24 -60.5zM281 654q0 -32 -24 -55.5t-70 -23.5q-44 0 -69 23.5t-25 55.5q0 36 24.5 60t69.5 24q46 0 70 -23.5t24 -60.5z" />
<glyph unicode="&#xec;" horiz-adv-x="308" d="M253 0h-198v524h198v-524zM258 569h-135l-170 147h206z" />
<glyph unicode="&#xed;" horiz-adv-x="308" d="M253 0h-198v524h198v-524zM358 716l-170 -147h-136l99 147h207z" />
<glyph unicode="&#xee;" horiz-adv-x="308" d="M253 0h-198v524h198v-524zM355 571h-146l-56 75l-55 -75h-146l120 147h162z" />
<glyph unicode="&#xef;" horiz-adv-x="308" d="M253 0h-198v524h198v-524zM367 654q0 -32 -24 -55.5t-70 -23.5q-44 0 -69 23.5t-25 55.5q0 36 24.5 60t69.5 24q46 0 70 -23.5t24 -60.5zM130 654q0 -32 -24 -55.5t-70 -23.5q-44 0 -69 23.5t-25 55.5q0 36 24.5 60t69.5 24q46 0 70 -23.5t24 -60.5z" />
<glyph unicode="&#xf0;" horiz-adv-x="637" d="M529 702l-99 -53q171 -158 171 -351q0 -65 -15.5 -119t-47.5 -98t-88 -68.5t-132 -24.5q-137 0 -210 69.5t-73 185.5q0 60 25.5 115.5t84.5 96t140 40.5q46 0 102 -25q-15 35 -39.5 65.5t-46.5 45.5l-120 -63l-72 78l101 54q-28 23 -57 44l122 72q60 -42 70 -46l108 59z M317 131q40 0 63 33t23 83q0 24 -5.5 48t-26.5 46.5t-54 22.5t-53 -22.5t-25.5 -46.5t-5.5 -48q0 -49 22.5 -82.5t61.5 -33.5z" />
<glyph unicode="&#xf1;" horiz-adv-x="637" d="M588 0h-198v301q0 32 -14.5 47.5t-51.5 15.5q-51 0 -78 -49v-315h-198v524h195v-65q31 38 66.5 57.5t102.5 19.5q88 0 132 -50t44 -132v-354zM441 715h79q0 -60 -32.5 -104.5t-89.5 -44.5q-42 0 -98 31q-48 25 -66 25t-27.5 -15t-9.5 -37h-80q0 61 33 104t88 43 q30 0 94 -32q52 -24 70 -24t28.5 15.5t10.5 38.5z" />
<glyph unicode="&#xf2;" horiz-adv-x="640" d="M608 263q0 -125 -74.5 -200t-213.5 -75t-213.5 75t-74.5 200q0 41 9 79t30.5 74t53.5 62t82 42t113 16t113 -16t82 -42t53.5 -62t30.5 -74t9 -79zM319 131q91 0 91 136q0 18 -3.5 37.5t-12.5 40.5t-28.5 34.5t-46.5 13.5q-26 0 -45 -13.5t-28 -34.5t-12.5 -40.5 t-3.5 -37.5q0 -136 89 -136zM423 569h-135l-170 147h206z" />
<glyph unicode="&#xf3;" horiz-adv-x="640" d="M608 263q0 -125 -74.5 -200t-213.5 -75t-213.5 75t-74.5 200q0 41 9 79t30.5 74t53.5 62t82 42t113 16t113 -16t82 -42t53.5 -62t30.5 -74t9 -79zM319 131q91 0 91 136q0 18 -3.5 37.5t-12.5 40.5t-28.5 34.5t-46.5 13.5q-26 0 -45 -13.5t-28 -34.5t-12.5 -40.5 t-3.5 -37.5q0 -136 89 -136zM522 716l-170 -147h-136l99 147h207z" />
<glyph unicode="&#xf4;" horiz-adv-x="640" d="M608 263q0 -125 -74.5 -200t-213.5 -75t-213.5 75t-74.5 200q0 41 9 79t30.5 74t53.5 62t82 42t113 16t113 -16t82 -42t53.5 -62t30.5 -74t9 -79zM319 131q91 0 91 136q0 18 -3.5 37.5t-12.5 40.5t-28.5 34.5t-46.5 13.5q-26 0 -45 -13.5t-28 -34.5t-12.5 -40.5 t-3.5 -37.5q0 -136 89 -136zM522 571h-146l-56 75l-55 -75h-146l120 147h162z" />
<glyph unicode="&#xf5;" horiz-adv-x="640" d="M608 263q0 -125 -74.5 -200t-213.5 -75t-213.5 75t-74.5 200q0 41 9 79t30.5 74t53.5 62t82 42t113 16t113 -16t82 -42t53.5 -62t30.5 -74t9 -79zM319 131q91 0 91 136q0 18 -3.5 37.5t-12.5 40.5t-28.5 34.5t-46.5 13.5q-26 0 -45 -13.5t-28 -34.5t-12.5 -40.5 t-3.5 -37.5q0 -136 89 -136zM443 715h79q0 -60 -32.5 -104.5t-89.5 -44.5q-42 0 -98 31q-48 25 -66 25t-27.5 -15t-9.5 -37h-80q0 61 33 104t88 43q30 0 94 -32q52 -24 70 -24t28.5 15.5t10.5 38.5z" />
<glyph unicode="&#xf6;" horiz-adv-x="640" d="M608 263q0 -125 -74.5 -200t-213.5 -75t-213.5 75t-74.5 200q0 41 9 79t30.5 74t53.5 62t82 42t113 16t113 -16t82 -42t53.5 -62t30.5 -74t9 -79zM319 131q91 0 91 136q0 18 -3.5 37.5t-12.5 40.5t-28.5 34.5t-46.5 13.5q-26 0 -45 -13.5t-28 -34.5t-12.5 -40.5 t-3.5 -37.5q0 -136 89 -136zM533 654q0 -32 -24 -55.5t-70 -23.5q-44 0 -69 23.5t-25 55.5q0 36 24.5 60t69.5 24q46 0 70 -23.5t24 -60.5zM296 654q0 -32 -24 -55.5t-70 -23.5q-44 0 -69 23.5t-25 55.5q0 36 24.5 60t69.5 24q46 0 70 -23.5t24 -60.5z" />
<glyph unicode="&#xf7;" d="M422 450q0 -37 -28 -64.5t-65 -27.5t-64.5 27.5t-27.5 64.5t27.5 65t64.5 28t65 -27.5t28 -65.5zM422 53q0 -37 -28 -64.5t-65 -27.5t-64.5 27.5t-27.5 64.5t27.5 65t64.5 28t65 -28t28 -65zM585 176h-511v153h511v-153z" />
<glyph unicode="&#xf8;" horiz-adv-x="641" d="M106 -31l-53 53l47 47q-68 73 -68 194q0 41 9 79t30.5 74t53.5 62t82 42t113 16q114 0 187 -52l56 57l51 -55l-55 -56q49 -69 49 -167q0 -125 -74.5 -200t-213.5 -75q-93 0 -160 36zM236 208l149 152q-24 33 -66 33q-26 0 -45 -13.5t-28 -34.5t-12.5 -40.5t-3.5 -37.5 q0 -32 6 -59zM409 278l-133 -136q19 -11 43 -11q91 0 91 136q0 1 -0.5 5t-0.5 6z" />
<glyph unicode="&#xf9;" horiz-adv-x="626" d="M577 0h-195v54q-40 -66 -129 -66q-108 0 -156.5 49.5t-48.5 133.5v353h198v-298q0 -75 55 -75q27 0 49 15.5t29 33.5v324h198v-524zM414 569h-135l-170 147h206z" />
<glyph unicode="&#xfa;" horiz-adv-x="626" d="M577 0h-195v54q-40 -66 -129 -66q-108 0 -156.5 49.5t-48.5 133.5v353h198v-298q0 -75 55 -75q27 0 49 15.5t29 33.5v324h198v-524zM515 716l-170 -147h-136l99 147h207z" />
<glyph unicode="&#xfb;" horiz-adv-x="626" d="M577 0h-195v54q-40 -66 -129 -66q-108 0 -156.5 49.5t-48.5 133.5v353h198v-298q0 -75 55 -75q27 0 49 15.5t29 33.5v324h198v-524zM514 571h-146l-56 75l-55 -75h-146l120 147h162z" />
<glyph unicode="&#xfc;" horiz-adv-x="626" d="M577 0h-195v54q-40 -66 -129 -66q-108 0 -156.5 49.5t-48.5 133.5v353h198v-298q0 -75 55 -75q27 0 49 15.5t29 33.5v324h198v-524zM526 654q0 -32 -24 -55.5t-70 -23.5q-44 0 -69 23.5t-25 55.5q0 36 24.5 60t69.5 24q46 0 70 -23.5t24 -60.5zM289 654q0 -32 -24 -55.5 t-70 -23.5q-44 0 -69 23.5t-25 55.5q0 36 24.5 60t69.5 24q46 0 70 -23.5t24 -60.5z" />
<glyph unicode="&#xfd;" horiz-adv-x="620" d="M72 -188v143q24 -3 42 -3q40 0 60.5 13.5t33.5 42.5l-202 516h213l91 -321l89 321h208q-175 -495 -210 -570q-34 -72 -88.5 -110.5t-146.5 -38.5q-36 0 -90 7zM509 716l-170 -147h-136l99 147h207z" />
<glyph unicode="&#xfe;" horiz-adv-x="615" d="M242 -195h-198v909h198v-192q40 14 82 14q133 0 194 -70.5t61 -190.5q0 -287 -241 -287q-59 0 -96 25v-208zM242 373v-215q25 -22 54 -22q40 0 62.5 35.5t22.5 100.5q0 48 -20 82t-58 34q-36 0 -61 -15z" />
<glyph unicode="&#xff;" horiz-adv-x="620" d="M72 -188v143q24 -3 42 -3q40 0 60.5 13.5t33.5 42.5l-202 516h213l91 -321l89 321h208q-175 -495 -210 -570q-34 -72 -88.5 -110.5t-146.5 -38.5q-36 0 -90 7zM523 654q0 -32 -24 -55.5t-70 -23.5q-44 0 -69 23.5t-25 55.5q0 36 24.5 60t69.5 24q46 0 70 -23.5t24 -60.5z M286 654q0 -32 -24 -55.5t-70 -23.5q-44 0 -69 23.5t-25 55.5q0 36 24.5 60t69.5 24q46 0 70 -23.5t24 -60.5z" />
<glyph unicode="&#x131;" horiz-adv-x="308" d="M253 0h-198v524h198v-524z" />
<glyph unicode="&#x141;" horiz-adv-x="614" d="M583 0h-514v200l-82 -56v130l82 56v384h220v-232l183 126v-130l-183 -126v-169h294v-183z" />
<glyph unicode="&#x142;" horiz-adv-x="380" d="M350 135v-140q-44 -6 -80 -6q-202 0 -202 180v96l-60 -46v103l60 46v346h198v-194l60 47v-103l-60 -47v-220q0 -37 13.5 -49.5t70.5 -12.5z" />
<glyph unicode="&#x152;" horiz-adv-x="1140" d="M1095 0h-535v49q-84 -66 -187 -66q-144 0 -239 105.5t-95 266.5q0 162 97 269t237 107q106 0 187 -64v47h523v-183h-303v-89h248v-170h-248v-89h315v-183zM413 161q60 0 102.5 46.5t42.5 147.5q0 103 -42.5 150.5t-102.5 47.5q-64 0 -109.5 -47.5t-45.5 -150.5 q0 -101 45.5 -147.5t109.5 -46.5z" />
<glyph unicode="&#x153;" horiz-adv-x="975" d="M897 162l37 -114q-94 -60 -224 -60q-125 0 -201 64q-75 -64 -189 -64q-139 0 -213.5 75t-74.5 200q0 41 9 79t30.5 74t53.5 62t82 42t113 16q119 0 193 -67q76 66 194 66q121 0 179 -52t58 -127q0 -84 -53 -123.5t-164 -39.5q-78 0 -124 13q0 -4 -1 -6q12 -76 138 -76 q83 0 157 38zM319 131q43 0 67 39t24 97q0 18 -3.5 37.5t-12.5 40.5t-28.5 34.5t-46.5 13.5q-26 0 -45 -13.5t-28 -34.5t-12.5 -40.5t-3.5 -37.5q0 -57 24 -96.5t65 -39.5zM602 326v-1q165 -20 165 34q0 20 -15 34.5t-46 14.5q-47 0 -74 -23t-30 -59z" />
<glyph unicode="&#x160;" horiz-adv-x="719" d="M654 491h-203q-4 39 -32 60.5t-73 21.5q-39 0 -61.5 -13.5t-22.5 -31.5q0 -22 29.5 -38.5t99.5 -35.5q69 -20 112 -34.5t82 -34.5t58.5 -43.5t31 -56t11.5 -75.5q0 -104 -86.5 -165.5t-230.5 -61.5q-154 0 -243 65t-93 186h218q7 -45 40 -69t82 -24q40 0 66.5 17t26.5 40 q0 43 -104 71q-39 11 -52.5 14.5t-48.5 14t-49 16.5t-42 18.5t-40 22.5t-30 26t-26 32t-14 37.5t-6 45.5q0 104 80 169.5t210 65.5q151 0 228 -65.5t82 -174.5zM437 759h-162l-121 147h146l56 -75l55 75h146z" />
<glyph unicode="&#x161;" horiz-adv-x="588" d="M547 358h-186q-4 61 -67 61q-20 0 -36 -8.5t-16 -21.5q0 -20 21.5 -31t86.5 -29q3 -1 14 -4.5t18 -5.5q97 -30 135 -63.5t38 -98.5q0 -77 -72 -123t-190 -46q-119 0 -188 47t-72 138h194q3 -56 61 -56q55 0 55 27q0 17 -17 26t-59 19q-34 8 -77 21q-143 45 -143 158 q0 83 66.5 125.5t181.5 42.5q114 0 182.5 -48t69.5 -130zM375 569h-162l-121 147h146l56 -75l55 75h146z" />
<glyph unicode="&#x178;" horiz-adv-x="757" d="M502 0h-238v273l-261 441h254l127 -243l124 243h246l-252 -441v-273zM591 849q0 -32 -24 -55.5t-70 -23.5q-44 0 -69 23.5t-25 55.5q0 36 24.5 60t69.5 24q46 0 70 -23.5t24 -60.5zM354 849q0 -32 -24 -55.5t-70 -23.5q-44 0 -69 23.5t-25 55.5q0 36 24.5 60t69.5 24 q46 0 70 -23.5t24 -60.5z" />
<glyph unicode="&#x17d;" horiz-adv-x="709" d="M672 0h-636v116l332 415h-307v183h587v-159l-300 -372h324v-183zM435 764h-162l-121 147h146l56 -75l55 75h146z" />
<glyph unicode="&#x17e;" horiz-adv-x="551" d="M526 0h-500v130l232 243h-217v151h471v-136l-224 -238h238v-150zM357 569h-162l-121 147h146l56 -75l55 75h146z" />
<glyph unicode="&#x192;" d="M558 283h-111q-45 -261 -58 -318q-6 -25 -19 -49.5t-36 -50.5t-62 -42t-88 -16q-76 0 -149 27l39 139q36 -13 64 -13q29 0 46 21t23 51q21 94 50 251h-90l24 120h92l26 140q13 70 64.5 115.5t150.5 45.5q51 0 100 -14l-29 -138q-29 8 -46 8q-54 0 -66 -72l-13 -85h112z " />
<glyph unicode="&#x2c6;" horiz-adv-x="400" d="M402 571h-146l-56 75l-55 -75h-146l120 147h162z" />
<glyph unicode="&#x2c7;" horiz-adv-x="400" d="M282 569h-162l-121 147h146l56 -75l55 75h146z" />
<glyph unicode="&#x2d8;" horiz-adv-x="400" d="M304 721h76q-3 -64 -55.5 -108t-123.5 -44q-72 0 -125.5 44.5t-55.5 107.5h77q16 -64 104 -64q84 0 103 64z" />
<glyph unicode="&#x2d9;" horiz-adv-x="400" d="M282 651q0 -31 -21 -53.5t-61 -22.5q-39 0 -61 22.5t-22 53.5q0 34 22 57t61 23q41 0 61.5 -22.5t20.5 -57.5z" />
<glyph unicode="&#x2da;" horiz-adv-x="400" d="M312 663q0 -46 -31 -77.5t-80 -31.5q-50 0 -81.5 31.5t-31.5 77.5q0 50 31 82t82 32q50 0 80.5 -32t30.5 -82zM254 664q0 22 -15 39t-38 17t-38.5 -17t-15.5 -39q0 -21 15.5 -36.5t38.5 -15.5t38 15.5t15 36.5z" />
<glyph unicode="&#x2db;" horiz-adv-x="400" d="M303 -126l11 -68q-46 -23 -102 -23q-127 0 -127 79q0 80 121 142h90q-47 -19 -76.5 -49t-29.5 -56q0 -43 48 -43q27 0 65 18z" />
<glyph unicode="&#x2dc;" horiz-adv-x="400" d="M323 715h79q0 -60 -32.5 -104.5t-89.5 -44.5q-42 0 -98 31q-48 25 -66 25t-27.5 -15t-9.5 -37h-80q0 61 33 104t88 43q30 0 94 -32q52 -24 70 -24t28.5 15.5t10.5 38.5z" />
<glyph unicode="&#x2dd;" horiz-adv-x="400" d="M451 716l-170 -147h-106l99 147h177zM226 716l-170 -147h-106l99 147h177z" />
<glyph unicode="&#x3c0;" horiz-adv-x="673" d="M599 0h-190q-20 32 -20 139v252h-107q-2 -85 -17.5 -200.5t-41.5 -190.5h-189q25 87 41 201t16 190q-35 0 -67 -7l-17 103q42 37 196 37h457l-12 -133h-62v-246q0 -84 13 -145z" />
<glyph unicode="&#x2013;" horiz-adv-x="500" d="M470 187h-440v138h440v-138z" />
<glyph unicode="&#x2014;" horiz-adv-x="1000" d="M970 187h-940v138h940v-138z" />
<glyph unicode="&#x2018;" horiz-adv-x="278" d="M200 444l-156 -19q25 171 64 285l125 10q-28 -136 -33 -276z" />
<glyph unicode="&#x2019;" horiz-adv-x="278" d="M169 435l-125 -10q28 136 33 276l156 19q-25 -171 -64 -285z" />
<glyph unicode="&#x201a;" horiz-adv-x="278" d="M169 -86l-125 -10q28 136 33 276l156 19q-25 -171 -64 -285z" />
<glyph unicode="&#x201c;" horiz-adv-x="488" d="M410 444l-156 -19q25 171 64 285l125 10q-28 -136 -33 -276zM200 444l-156 -19q25 171 64 285l125 10q-28 -136 -33 -276z" />
<glyph unicode="&#x201d;" horiz-adv-x="488" d="M169 435l-125 -10q28 136 33 276l156 19q-25 -171 -64 -285zM379 435l-125 -10q28 136 33 276l156 19q-25 -171 -64 -285z" />
<glyph unicode="&#x201e;" horiz-adv-x="488" d="M169 -86l-125 -10q28 136 33 276l156 19q-25 -171 -64 -285zM379 -86l-125 -10q28 136 33 276l156 19q-25 -171 -64 -285z" />
<glyph unicode="&#x2020;" horiz-adv-x="667" d="M432 -173h-198v547h-172v158h172v182h198v-182h172v-158h-172v-547z" />
<glyph unicode="&#x2021;" horiz-adv-x="667" d="M433 -170h-199v195h-182v148h182v201h-182v148h182v192h199v-192h182v-148h-182v-201h182v-148h-182v-195z" />
<glyph unicode="&#x2022;" horiz-adv-x="362" d="M181 98q-71 0 -121 49.5t-50 121.5q0 71 49.5 120.5t121.5 49.5t121.5 -49.5t49.5 -120.5t-49.5 -121t-121.5 -50z" />
<glyph unicode="&#x2026;" horiz-adv-x="911" d="M786 -8q-49 0 -75.5 29t-26.5 72q0 42 28 71t74 29q49 0 75 -28t26 -72q0 -43 -26 -72t-75 -29zM456 -8q-49 0 -75.5 29t-26.5 72q0 42 28 71t74 29q49 0 75 -28t26 -72q0 -43 -26 -72t-75 -29zM125 -8q-49 0 -75.5 29t-26.5 72q0 42 28 71t74 29q49 0 75 -28t26 -72 q0 -43 -26 -72t-75 -29z" />
<glyph unicode="&#x2030;" horiz-adv-x="1098" d="M923 -8q-147 0 -147 174q0 173 147 173q145 0 145 -173q0 -174 -145 -174zM923 78q24 0 32.5 21t8.5 67q0 47 -8.5 67t-32.5 20q-26 0 -34.5 -20t-8.5 -67q0 -46 9 -67t34 -21zM177 357q-147 0 -147 174q0 173 147 173q145 0 145 -173q0 -174 -145 -174zM177 443 q24 0 32.5 21t8.5 67q0 47 -8.5 67t-32.5 20q-26 0 -34.5 -20t-8.5 -67q0 -46 9 -67t34 -21zM225 -26h-110l409 748h109zM578 -8q-147 0 -147 174q0 173 147 173q145 0 145 -173q0 -174 -145 -174zM578 78q24 0 32.5 21t8.5 67q0 47 -8.5 67t-32.5 20q-26 0 -34.5 -20 t-8.5 -67q0 -46 9 -67t34 -21z" />
<glyph unicode="&#x2039;" horiz-adv-x="285" d="M247 27l-209 187v105l209 189v-163l-104 -80l104 -76v-162z" />
<glyph unicode="&#x203a;" horiz-adv-x="285" d="M247 214l-209 -187v162l104 76l-104 80v163l209 -189v-105z" />
<glyph unicode="&#x2044;" horiz-adv-x="170" d="M-53 -26h-112l388 748h112z" />
<glyph unicode="&#x20ac;" d="M626 196v-153q-100 -60 -195 -60q-255 0 -319 246h-103l36 103h52v29h-87l36 102h62q27 124 113.5 187.5t208.5 63.5q129 0 225 -86q-3 -10 -13.5 -35t-23.5 -53.5t-15 -33.5q-64 59 -155 59q-52 0 -87 -32t-37 -70h279l-36 -102h-260v-29h249l-36 -103h-193 q31 -85 123 -85q87 0 176 52z" />
<glyph unicode="&#x2122;" horiz-adv-x="931" d="M252 287h-141v328h-101v99h341v-99h-99v-328zM921 287h-138v227l-71 -98h-80l-72 98v-227h-140v427h121l130 -162l130 162h120v-427z" />
<glyph unicode="&#x2126;" horiz-adv-x="863" d="M824 0h-349v131q113 77 113 249q0 74 -41 123.5t-111 49.5t-113.5 -49t-43.5 -130q0 -85 32.5 -150t77.5 -93v-131h-350v154h141q-48 29 -86 98t-38 147q0 138 104.5 236t277.5 98q91 0 164 -30t116 -78t66 -104.5t23 -114.5q0 -79 -37.5 -150t-89.5 -102h144v-154z" />
<glyph unicode="&#x2202;" horiz-adv-x="587" d="M398 417h1q1 4 1 17q0 86 -49 142.5t-127 56.5q-74 0 -134 -34l-50 110q92 56 213 56q137 0 230.5 -100t93.5 -268q0 -190 -91 -298.5t-233 -108.5q-114 0 -178.5 70.5t-64.5 160.5q0 118 68 189t175 71q94 0 145 -64zM385 296q-8 22 -32.5 41t-58.5 19q-45 0 -74.5 -42 t-29.5 -100q0 -42 22.5 -68t57.5 -26q44 0 76.5 54.5t38.5 121.5z" />
<glyph unicode="&#x2206;" horiz-adv-x="741" d="M730 0h-719v97l238 617h255l226 -615v-99zM488 161l-119 357l-123 -357h242z" />
<glyph unicode="&#x220f;" horiz-adv-x="806" d="M690 -111h-195v628h-183v-628h-196v628h-103v154h780v-154h-103v-628z" />
<glyph unicode="&#x2211;" horiz-adv-x="628" d="M614 -111h-587v107l225 285l-217 274v116h560v-156h-285l167 -219l-188 -248h325v-159z" />
<glyph unicode="&#x2212;" d="M585 176h-511v153h511v-153z" />
<glyph unicode="&#x221a;" horiz-adv-x="659" d="M433 -141h-141l-163 421q-4 -1 -33.5 -11.5t-43.5 -14.5l-31 107l211 83l126 -374l190 770h142z" />
<glyph unicode="&#x221e;" horiz-adv-x="757" d="M383 365l3 3q28 29 47.5 45.5t56.5 34t75 17.5q73 0 121 -50.5t48 -128.5q0 -79 -51 -131t-125 -52q-92 0 -179 101q-47 -51 -86.5 -76t-97.5 -25q-72 0 -122 51t-50 129t51.5 130t129.5 52q91 0 179 -100zM446 285q34 -40 58.5 -58t52.5 -18q27 0 47.5 23t20.5 50 q0 34 -19 55.5t-50 21.5q-20 0 -41.5 -12.5t-35 -25.5t-33.5 -36zM313 280q-21 26 -34 40t-33.5 26.5t-41.5 12.5q-30 0 -50 -21.5t-20 -54.5q0 -31 20 -52.5t50 -21.5q46 0 109 71z" />
<glyph unicode="&#x222b;" horiz-adv-x="397" d="M15 -153l22 117q20 -11 43 -11q24 0 37 18q18 30 18 131q0 113 -7 239q-7 163 -7 219q0 86 14.5 137.5t48.5 86.5q46 49 128 49q37 0 70 -11l-16 -112q-28 8 -43 8q-25 0 -41 -26q-17 -29 -17 -146q0 -9 6 -207q7 -121 7 -235q0 -133 -31 -191q-46 -82 -145 -82 q-53 0 -87 16z" />
<glyph unicode="&#x2248;" d="M548 478l50 -127q-75 -87 -157 -87q-51 0 -114.5 32t-106.5 32q-54 0 -109 -64l-50 116q69 88 156 88q43 0 114 -32.5t111 -32.5q47 0 106 75zM548 256l50 -126q-74 -88 -157 -88q-50 0 -113.5 32t-107.5 32q-55 0 -109 -64l-50 116q69 88 156 88q51 0 120 -32t105 -32 q48 0 106 74z" />
<glyph unicode="&#x2260;" d="M585 56h-289l-35 -73h-125l35 73h-97v153h172l42 88h-214v153h289l36 74h125l-36 -74h97v-153h-172l-42 -88h214v-153z" />
<glyph unicode="&#x2264;" d="M586 175l-512 167v113l512 165v-157l-286 -65l286 -64v-159zM586 0h-511v153h511v-153z" />
<glyph unicode="&#x2265;" d="M586 342l-512 -167v159l286 64l-286 65v157l512 -165v-113zM585 0h-511v153h511v-153z" />
<glyph unicode="&#x25ca;" horiz-adv-x="553" d="M343 -40h-135l-195 370l196 371h135l196 -371zM278 151l84 175l-88 184q-83 -172 -85 -176z" />
<glyph unicode="&#x25fc;" horiz-adv-x="525" d="M0 525h525v-525h-525v525z" />
<glyph unicode="&#xfb01;" horiz-adv-x="725" d="M668 0h-198v394h-195v-394h-198v394h-69v130h69v39q0 90 57.5 129t187.5 39q99 0 227 -22v-136q-96 18 -169 18q-67 0 -86 -8.5t-19 -32.5v-26h393v-524z" />
<glyph unicode="&#xfb02;" horiz-adv-x="808" d="M778 135v-140q-44 -6 -80 -6q-202 0 -202 180v401q-7 2 -23 6.5t-23.5 6t-21 4t-27.5 3.5t-31 1q-52 0 -73.5 -9.5t-21.5 -31.5v-26h154v-130h-154v-394h-198v394h-69v130h69v39q0 88 59 128t176 40q88 0 186 -36l196 29v-527q0 -37 13.5 -49.5t70.5 -12.5z" />
<glyph horiz-adv-x="236" />
</font>
</defs>
</svg>
