<?xml version="1.0" standalone="no"?>
<!DOCTYPE svg PUBLIC "-//W3C//DTD SVG 1.1//EN" "http://www.w3.org/Graphics/SVG/1.1/DTD/svg11.dtd" >
<svg xmlns="http://www.w3.org/2000/svg" xmlns:xlink="http://www.w3.org/1999/xlink" version="1.1">
<metadata></metadata>
<defs>
<font id="sfrthin" horiz-adv-x="343" >
<font-face units-per-em="1000" ascent="750" descent="-250" />
<missing-glyph horiz-adv-x="275" />
<glyph unicode=" "  horiz-adv-x="275" />
<glyph unicode="&#x09;" horiz-adv-x="275" />
<glyph unicode="&#xa0;" horiz-adv-x="275" />
<glyph unicode="!" horiz-adv-x="278" d="M139 -4q-17 0 -27.5 11.5t-10.5 28.5q0 15 11 26t27 11t27 -11t11 -26q0 -17 -10.5 -28.5t-27.5 -11.5zM155 175h-31l-8 304v235h47v-235z" />
<glyph unicode="&#x22;" horiz-adv-x="334" d="M239 497h-27l-11 217h49zM123 497h-27l-12 217h49z" />
<glyph unicode="#" horiz-adv-x="570" d="M361 0h-36l38 217h-200l-37 -217h-36l38 217h-111v36h117l33 188h-136v37h143l37 212h36l-37 -212h199l37 212h36l-37 -212h107v-37h-114l-33 -188h133v-36h-140zM369 253l33 188h-199l-33 -188h199z" />
<glyph unicode="$" horiz-adv-x="570" d="M297 -91h-32v75q-108 7 -169 63.5t-64 156.5h38q13 -172 195 -184v322q-49 12 -82.5 24.5t-66 34t-49 53.5t-16.5 76q0 72 58 119.5t156 51.5v75h32v-74q100 -4 157 -59t61 -140h-38q-5 77 -54.5 117.5t-125.5 44.5v-291q130 -31 185.5 -74.5t55.5 -123.5 q0 -81 -68 -136.5t-173 -56.5v-74zM297 334v-315q93 1 148 46t55 111q0 59 -48.5 95.5t-154.5 62.5zM265 382v283q-87 -4 -131.5 -42t-44.5 -93q0 -54 40.5 -88t135.5 -60z" />
<glyph unicode="%" horiz-adv-x="743" d="M558 -12q-145 0 -145 179q0 177 145 177t145 -177q0 -179 -145 -179zM558 24q107 0 107 143q0 74 -27 107.5t-80 33.5t-80 -33.5t-27 -107.5q0 -143 107 -143zM185 346q-145 0 -145 179q0 177 145 177t145 -177q0 -179 -145 -179zM185 382q107 0 107 143q0 74 -27 107.5 t-80 33.5t-80 -33.5t-27 -107.5q0 -143 107 -143zM162 -17h-41l461 731h40z" />
<glyph unicode="&#x26;" horiz-adv-x="609" d="M581 24l-27 -25q-41 47 -84 99q0 1 -2 3q-90 -113 -207 -113q-93 0 -154 55t-61 146q0 37 14.5 70t44.5 61.5t53.5 46t62.5 42.5q-86 104 -86 174q0 57 40.5 94t105.5 37q60 0 99.5 -40.5t39.5 -95.5q0 -48 -38 -88.5t-107 -88.5q9 -11 27.5 -35.5t28.5 -36.5 q132 -166 133 -167q35 65 44 135l37 -5q-13 -84 -56 -159q29 -35 92 -109zM318 285l-75 97q-32 -21 -46 -31t-41 -32t-39.5 -38.5t-23 -41t-10.5 -50.5q0 -71 50 -117t129 -46q53 0 102 29t79 76q-57 65 -125 154zM253 428q64 42 95.5 75t31.5 75q0 39 -27 68.5t-72 29.5 t-75.5 -25.5t-30.5 -67.5q0 -56 78 -155z" />
<glyph unicode="'" horiz-adv-x="215" d="M122 497h-27l-12 217h49z" />
<glyph unicode="(" d="M284 -161l-12 -24q-173 170 -173 459q0 287 173 457l12 -25q-68 -76 -107.5 -190t-39.5 -242q0 -129 39.5 -243t107.5 -192z" />
<glyph unicode=")" d="M71 -185l-12 24q68 78 107.5 192t39.5 243q0 128 -39.5 242t-107.5 190l12 25q173 -170 173 -457q0 -289 -173 -459z" />
<glyph unicode="*" horiz-adv-x="374" d="M299 480l-103 76l18 -127h-51l15 127l-101 -80l-26 44l118 51l-120 48l26 44l103 -76l-19 127h51l-14 -127l101 80l25 -45l-117 -50l119 -48z" />
<glyph unicode="+" horiz-adv-x="670" d="M354 0h-38v233h-223v38h223v233h38v-233h223v-38h-223v-233z" />
<glyph unicode="," horiz-adv-x="220" d="M92 -132h-26l20 216h57z" />
<glyph unicode="-" d="M278 253h-214v38h214v-38z" />
<glyph unicode="." horiz-adv-x="220" d="M110 -4q-17 0 -27.5 11.5t-10.5 28.5q0 15 11 26t27 11t27 -11t11 -26q0 -17 -10.5 -28.5t-27.5 -11.5z" />
<glyph unicode="/" horiz-adv-x="360" d="M41 -17h-41l320 748h40z" />
<glyph unicode="0" horiz-adv-x="570" d="M285 -12q-249 0 -249 358q0 356 249 356t249 -356q0 -358 -249 -358zM285 24q104 0 157.5 77t53.5 245t-53 244t-158 76q-104 0 -157.5 -76t-53.5 -244t53.5 -245t157.5 -77z" />
<glyph unicode="1" horiz-adv-x="570" d="M352 0h-38v630l-135 -112l-21 22l174 150h20v-690z" />
<glyph unicode="2" horiz-adv-x="570" d="M512 0h-453q-4 90 52 161.5t170 152.5q40 29 56.5 41t47.5 38t44 44t24.5 43.5t11.5 51.5q0 59 -41.5 96.5t-128.5 37.5q-81 0 -128 -37t-47 -105h-38q0 48 19.5 84t52 55.5t68 29t73.5 9.5q98 0 153 -42.5t55 -124.5q0 -37 -13 -68.5t-39 -59t-49.5 -47t-60.5 -45.5 q-11 -8 -17 -12q-42 -31 -62 -46t-56 -46.5t-54 -54.5t-33.5 -54.5t-17.5 -61.5h411v-40z" />
<glyph unicode="3" horiz-adv-x="570" d="M249 339h-64v36h60q209 0 209 156q0 65 -51 100t-126 35t-123.5 -35.5t-48.5 -106.5h-38q0 50 20.5 87t53.5 55.5t67 27t69 8.5q96 0 155.5 -43t59.5 -128q0 -63 -39.5 -109t-104.5 -64q159 -41 159 -182q0 -86 -62.5 -137t-169.5 -51q-35 0 -69.5 8.5t-68 27t-54.5 53 t-21 79.5h38q0 -57 47.5 -94.5t130.5 -37.5q99 0 145 45.5t46 106.5q0 81 -64.5 122t-155.5 41z" />
<glyph unicode="4" horiz-adv-x="570" d="M411 0h-38v177h-329v49l319 464h48v-477h114v-36h-114v-177zM373 213v422h-2l-288 -422h290z" />
<glyph unicode="5" horiz-adv-x="570" d="M54 156h38q8 -59 59.5 -95.5t130.5 -36.5q54 0 94 17.5t61 47t30.5 61t9.5 66.5q0 92 -52 141.5t-136 49.5q-114 0 -166 -70h-51l48 353h342v-36h-310l-39 -281q24 31 71.5 50.5t102.5 19.5q107 0 167.5 -60t60.5 -163q0 -97 -57 -164.5t-176 -67.5q-102 0 -161 46.5 t-67 121.5z" />
<glyph unicode="6" horiz-adv-x="570" d="M499 524h-38q-18 142 -159 142q-115 0 -162 -83t-47 -254q29 40 83 71t121 31q108 0 162.5 -61t54.5 -157q0 -43 -12.5 -81.5t-37.5 -71.5t-70.5 -52.5t-105.5 -19.5q-61 0 -106 24t-68.5 58.5t-37.5 85.5t-17.5 91t-3.5 89q0 58 4.5 104.5t20 97.5t41.5 85t72 56.5 t109 22.5q75 0 130 -42t67 -136zM97 290q1 -48 9.5 -89.5t28.5 -84t60 -67.5t97 -25q50 0 87 17.5t57.5 46.5t30 60.5t9.5 64.5q0 84 -47.5 133t-133.5 49q-41 0 -78 -13.5t-63 -35.5t-37.5 -33.5t-19.5 -22.5z" />
<glyph unicode="7" horiz-adv-x="570" d="M142 0h-39l355 654h-387v36h428v-28z" />
<glyph unicode="8" horiz-adv-x="570" d="M334 367q93 -32 137.5 -77.5t44.5 -110.5q0 -89 -66.5 -140t-169.5 -51q-106 0 -166 51t-60 131q0 73 50 123.5t132 73.5q-71 25 -112 67.5t-41 96.5q0 79 56 125t148 46q96 0 147 -47.5t51 -115.5q0 -50 -37 -96t-114 -76zM276 349q-88 -18 -136 -64t-48 -107 q0 -70 49 -112t138 -42q87 0 143 39.5t56 105.5q0 136 -202 180zM290 381q69 20 113 60.5t44 94.5t-40.5 92t-122.5 38q-76 0 -119.5 -38.5t-43.5 -90.5q0 -114 169 -156z" />
<glyph unicode="9" horiz-adv-x="570" d="M66 156h38q4 -64 50 -99.5t117 -35.5q33 0 61 8.5t47.5 19.5t35.5 33.5t25.5 38.5t17 46.5t11 46t5.5 48.5t2 42.5t1 39.5q-6 -12 -28.5 -32.5t-71.5 -41t-103 -20.5q-109 0 -165 64t-56 161q0 45 11.5 83.5t37 71.5t71.5 52.5t108 19.5q52 0 93 -15.5t65.5 -45t41 -61.5 t24 -75.5t10 -76.5t2.5 -74q0 -57 -4.5 -103.5t-20.5 -97.5t-42 -85.5t-72 -57t-109 -22.5q-81 0 -139.5 41t-63.5 127zM476 386q0 38 -4 73t-17 74t-34 67.5t-57.5 47t-84.5 18.5q-92 0 -140 -50.5t-48 -137.5q0 -85 48.5 -138.5t133.5 -53.5q140 0 203 100z" />
<glyph unicode=":" horiz-adv-x="220" d="M110 -4q-17 0 -27.5 11.5t-10.5 28.5q0 15 11 26t27 11t27 -11t11 -26q0 -17 -10.5 -28.5t-27.5 -11.5zM110 410q-17 0 -27.5 11.5t-10.5 28.5q0 15 11 26t27 11t27 -11t11 -26q0 -17 -10.5 -28.5t-27.5 -11.5z" />
<glyph unicode=";" horiz-adv-x="220" d="M97 -132h-26l20 216h57zM113 410q-17 0 -27.5 11.5t-10.5 28.5q0 15 11 26t27 11t27 -11t11 -26q0 -17 -10.5 -28.5t-27.5 -11.5z" />
<glyph unicode="&#x3c;" horiz-adv-x="670" d="M589 -9l-508 235v50l508 235v-42l-474 -218l474 -218v-42z" />
<glyph unicode="=" horiz-adv-x="670" d="M577 331h-484v38h484v-38zM577 137h-484v38h484v-38z" />
<glyph unicode="&#x3e;" horiz-adv-x="670" d="M579 226l-508 -235v42l474 218l-474 218v42l508 -235v-50z" />
<glyph unicode="?" horiz-adv-x="500" d="M246 175h-38q0 139 91 217q11 9 34 27.5t34 28.5t25.5 27t20.5 36.5t6 43.5q0 65 -49 102.5t-112 37.5q-86 0 -131.5 -47t-45.5 -125h-38q0 95 57 151.5t160 56.5q82 0 139 -46t57 -128q0 -52 -21.5 -84.5t-64.5 -66.5l-40 -32q-44 -38 -64.5 -80t-19.5 -119zM229 -4 q-17 0 -27.5 11.5t-10.5 28.5q0 15 11 26t27 11t27 -11t11 -26q0 -17 -10.5 -28.5t-27.5 -11.5z" />
<glyph unicode="@" horiz-adv-x="810" d="M339 170q67 0 118.5 80.5t51.5 169.5q0 51 -26.5 86.5t-71.5 35.5q-76 0 -124 -75t-48 -162q0 -58 25 -96.5t75 -38.5zM706 155h38q-39 -77 -120.5 -124.5t-190.5 -47.5q-178 0 -282 103t-104 258q0 164 107.5 275.5t272.5 111.5q149 0 242 -83.5t93 -224.5 q0 -109 -60.5 -195t-158.5 -86q-66 0 -66 74q0 18 2 29q-26 -45 -65 -74t-84 -29q-65 0 -99 45.5t-34 114.5q0 98 59.5 181.5t152.5 83.5q44 0 76 -26.5t44 -79.5l26 100h35q-73 -297 -76 -311q-3 -17 -3 -29q0 -47 47 -47q67 0 116.5 71t49.5 180q0 125 -82.5 199 t-216.5 74q-146 0 -243 -102t-97 -252q0 -152 97.5 -240t249.5 -88q91 0 166 37.5t108 101.5z" />
<glyph unicode="A" horiz-adv-x="702" d="M682 0h-48l-109 247h-352l-107 -247h-46l309 714h43zM508 289l-160 364l-158 -364h318z" />
<glyph unicode="B" horiz-adv-x="611" d="M129 389h188q83 0 131.5 37.5t48.5 106.5q0 35 -11.5 61t-29 40.5t-44 23.5t-51 11.5t-54.5 2.5h-178v-283zM129 42h194q105 0 159.5 42t54.5 116q0 147 -231 147h-177v-305zM328 0h-243v714h234q221 0 221 -179q0 -122 -132 -165q77 -9 125 -53t48 -113 q0 -87 -63.5 -145.5t-189.5 -58.5z" />
<glyph unicode="C" horiz-adv-x="721" d="M620 208h44q-15 -104 -92 -164.5t-186 -60.5q-154 0 -240.5 98.5t-86.5 276.5t86.5 275.5t240.5 97.5q106 0 178 -53.5t87 -153.5h-44q-14 87 -76 126t-145 39q-58 0 -106.5 -16.5t-89.5 -53.5t-64 -103.5t-23 -157.5t23 -158t64 -104t89.5 -54t106.5 -17 q86 0 152.5 44.5t81.5 138.5z" />
<glyph unicode="D" horiz-adv-x="702" d="M129 42h192q57 0 104 15t88 49.5t63.5 98.5t22.5 153q0 61 -10 109.5t-26 80.5t-40.5 56t-48.5 36.5t-55 20t-54.5 9.5t-52.5 2h-183v-630zM317 0h-232v714h234q324 0 324 -356q0 -78 -17.5 -141.5t-55 -113t-102 -76.5t-151.5 -27z" />
<glyph unicode="E" horiz-adv-x="548" d="M503 0h-418v714h408v-42h-364v-283h321v-42h-321v-305h374v-42z" />
<glyph unicode="F" horiz-adv-x="528" d="M129 0h-44v714h418v-42h-374v-293h330v-42h-330v-337z" />
<glyph unicode="G" horiz-adv-x="763" d="M636 102v210h-249v42h293v-272q-117 -98 -281 -98t-252 103.5t-88 279.5q0 74 18.5 137.5t57 115.5t105.5 81.5t157 29.5q126 0 194 -62.5t73 -143.5h-44q-8 70 -65.5 117t-157.5 47q-83 0 -143 -28t-91.5 -76t-45.5 -101t-14 -113q0 -168 82 -256.5t214 -88.5 q140 0 237 76z" />
<glyph unicode="H" horiz-adv-x="724" d="M639 0h-44v347h-466v-347h-44v714h44v-325h466v325h44v-714z" />
<glyph unicode="I" horiz-adv-x="264" d="M154 0h-44v714h44v-714z" />
<glyph unicode="J" horiz-adv-x="471" d="M342 190v524h44v-524q0 -207 -184 -207q-175 0 -175 207h44q2 -85 35 -125t101 -40t100.5 40t34.5 125z" />
<glyph unicode="K" horiz-adv-x="600" d="M585 0h-59l-307 353h-90v-353h-44v714h44v-319h89l290 319h54l-304 -337z" />
<glyph unicode="L" horiz-adv-x="521" d="M496 0h-411v714h44v-672h367v-42z" />
<glyph unicode="M" horiz-adv-x="833" d="M748 0h-44v660l-271 -394h-34l-270 394v-660h-44v714h55l276 -402l277 402h55v-714z" />
<glyph unicode="N" horiz-adv-x="718" d="M633 0h-52l-452 660v-660h-44v714h56l448 -655v655h44v-714z" />
<glyph unicode="O" horiz-adv-x="772" d="M386 -17q-154 0 -240.5 98.5t-86.5 276.5t86.5 275.5t240.5 97.5t240.5 -97.5t86.5 -275.5t-86.5 -276.5t-240.5 -98.5zM386 25q58 0 106.5 17t89.5 54t64 104t23 158t-23 157.5t-64 103.5t-89.5 53.5t-106.5 16.5t-106.5 -16.5t-89.5 -53.5t-64 -103.5t-23 -157.5 t23 -158t64 -104t89.5 -54t106.5 -17z" />
<glyph unicode="P" horiz-adv-x="596" d="M129 328h190q100 0 146.5 49.5t46.5 127.5q0 29 -7 54.5t-25.5 53t-58 43.5t-96.5 16h-196v-344zM129 0h-44v714h243q30 0 58 -4.5t60.5 -18t55.5 -35.5t38.5 -61t15.5 -91q0 -103 -64.5 -160.5t-179.5 -57.5h-183v-286z" />
<glyph unicode="Q" horiz-adv-x="772" d="M605 -122l-2 -40q-96 5 -146 42t-70 103h-1q-154 0 -240.5 98.5t-86.5 276.5t86.5 275.5t240.5 97.5t240.5 -97.5t86.5 -275.5q0 -165 -75.5 -262.5t-210.5 -110.5q19 -51 59 -77.5t119 -29.5zM386 25q58 0 106.5 17t89.5 54t64 104t23 158t-23 157.5t-64 103.5 t-89.5 53.5t-106.5 16.5t-106.5 -16.5t-89.5 -53.5t-64 -103.5t-23 -157.5t23 -158t64 -104t89.5 -54t106.5 -17z" />
<glyph unicode="R" horiz-adv-x="623" d="M583 0h-51l-209 318h-194v-318h-44v714h243q42 0 78.5 -8.5t72 -28.5t56.5 -60.5t21 -97.5q0 -84 -47.5 -134t-134.5 -63zM129 356h190q193 0 193 164q0 26 -7 49.5t-25.5 49.5t-58 41.5t-96.5 15.5h-196v-320z" />
<glyph unicode="S" horiz-adv-x="624" d="M551 524h-44q-5 84 -59.5 124.5t-140.5 40.5q-98 0 -147 -38.5t-49 -97.5q0 -62 50 -98.5t172 -65.5q132 -31 187 -77t55 -128q0 -85 -72 -143t-183 -58q-124 0 -196.5 60t-75.5 170h44q15 -188 228 -188q99 0 155 45t56 114q0 63 -50.5 100.5t-164.5 64.5q-46 11 -76 20 t-66.5 26t-57 36.5t-35 51t-14.5 70.5q0 77 66 127.5t174 50.5q113 0 176.5 -57.5t67.5 -149.5z" />
<glyph unicode="T" horiz-adv-x="538" d="M291 0h-44v672h-232v42h508v-42h-232v-672z" />
<glyph unicode="U" horiz-adv-x="703" d="M574 267v447h44v-451q0 -134 -70.5 -207t-196.5 -73q-125 0 -195.5 73.5t-70.5 206.5v451h44v-447q0 -126 62 -184t160 -58q99 0 161 58t62 184z" />
<glyph unicode="V" horiz-adv-x="648" d="M354 0h-60l-271 714h47l255 -674l255 674h45z" />
<glyph unicode="W" horiz-adv-x="993" d="M750 0h-61l-191 679l-196 -679h-61l-218 714h46l202 -674l195 674h63l191 -674l205 674h45z" />
<glyph unicode="X" horiz-adv-x="615" d="M592 0h-53l-231 332l-232 -332h-53l257 367l-239 347h51l216 -312l220 312h51l-244 -347z" />
<glyph unicode="Y" horiz-adv-x="640" d="M347 0h-45v310q-18 25 -131 185t-154 219h50l260 -364l248 364h48l-276 -404v-310z" />
<glyph unicode="Z" horiz-adv-x="579" d="M542 0h-506v32l444 640h-416v42h473v-32l-444 -640h449v-42z" />
<glyph unicode="[" d="M306 -184h-149v915h149v-33h-111v-849h111v-33z" />
<glyph unicode="\" horiz-adv-x="360" d="M360 -17h-40l-320 748h41z" />
<glyph unicode="]" d="M186 -184h-149v33h111v849h-111v33h149v-915z" />
<glyph unicode="^" horiz-adv-x="670" d="M592 237h-42l-215 423l-215 -423h-42l231 453h52z" />
<glyph unicode="_" horiz-adv-x="500" d="M500 -119h-500v38h500v-38z" />
<glyph unicode="`" d="M257 591h-37l-134 140h56z" />
<glyph unicode="a" horiz-adv-x="508" d="M481 22v-31q-15 -3 -29 -3q-32 0 -50.5 16.5t-22.5 56.5q-27 -33 -72.5 -53t-97.5 -20q-67 0 -112.5 35t-45.5 103q0 86 72.5 123t255.5 36v78q0 137 -138 137q-70 0 -105.5 -34.5t-35.5 -95.5h-36q0 85 52 125.5t123 40.5q90 0 134.5 -45t44.5 -128v-284q0 -34 12 -45.5 t36 -11.5h15zM379 102v151q-76 0 -129.5 -6.5t-84.5 -16.5t-48 -27.5t-22 -34.5t-5 -42q0 -46 34.5 -74t89.5 -28q46 0 92 21.5t73 56.5z" />
<glyph unicode="b" horiz-adv-x="569" d="M84 36v695h38v-269q61 74 171 74q99 0 157 -71t58 -183q0 -155 -75 -224.5t-194 -69.5q-95 0 -155 48zM122 414v-363q50 -27 116 -27q232 0 232 255q0 88 -49.5 154.5t-139.5 66.5q-56 0 -97.5 -26.5t-61.5 -59.5z" />
<glyph unicode="c" horiz-adv-x="547" d="M456 166h38q-3 -68 -57 -123t-145 -55q-115 0 -177.5 74.5t-62.5 204.5q0 116 58.5 192.5t178.5 76.5q94 0 148.5 -53.5t54.5 -120.5h-38q-6 63 -52.5 100.5t-112.5 37.5q-56 0 -96.5 -19.5t-62 -53.5t-31 -73.5t-9.5 -86.5q0 -112 51.5 -177.5t147.5 -65.5 q72 0 115.5 38t51.5 104z" />
<glyph unicode="d" horiz-adv-x="570" d="M486 0h-35v46q-56 -58 -149 -58q-46 0 -86.5 15t-76.5 47t-57 89.5t-21 135.5q0 115 67.5 188t168.5 73q92 0 151 -47v242h38v-731zM448 92v353q-18 20 -56 37.5t-92 17.5q-97 0 -149 -64.5t-52 -163.5q0 -115 51 -181.5t157 -66.5q92 0 141 68z" />
<glyph unicode="e" horiz-adv-x="507" d="M442 67l15 -33q-75 -46 -178 -46q-111 0 -170 72.5t-59 204.5q0 114 55 192.5t163 78.5q82 0 132.5 -37.5t50.5 -109.5q0 -84 -55 -117t-153 -33q-93 0 -155 14q3 -110 52.5 -169.5t139.5 -59.5t162 43zM88 292q69 -17 163 -17q86 0 124 27t38 86q0 52 -37.5 82 t-107.5 30q-84 0 -129.5 -56t-50.5 -152z" />
<glyph unicode="f" horiz-adv-x="296" d="M133 0h-38v491h-70v33h70v75q0 132 141 132q40 0 79 -7v-36q-40 7 -75 7q-58 0 -82.5 -22.5t-24.5 -78.5v-70h163v-33h-163v-491z" />
<glyph unicode="g" horiz-adv-x="512" d="M218 105h118q156 0 156 -148q0 -79 -59 -124t-168 -45q-114 0 -173 42.5t-59 124.5q0 51 29 86.5t77 47.5q-48 25 -48 77q0 38 20 66q-48 48 -48 129q0 82 49.5 128.5t136.5 46.5q44 0 77 -12h154v-34h-97q50 -47 50 -129t-49 -128.5t-135 -46.5q-67 0 -111 27 q-11 -22 -11 -42q0 -29 23 -47.5t68 -18.5zM330 72h-97q-160 0 -160 -114q0 -137 193 -137q186 0 186 134q0 62 -30.5 89.5t-91.5 27.5zM393 361q0 69 -37.5 105.5t-106.5 36.5t-107.5 -36.5t-38.5 -105.5t38.5 -105.5t107.5 -36.5t106.5 36.5t37.5 105.5z" />
<glyph unicode="h" horiz-adv-x="548" d="M470 0h-38v356q0 68 -39.5 106t-114.5 38q-58 0 -102 -30.5t-61 -64.5v-405h-38v731h38v-280q20 34 63 59.5t106 25.5q93 0 139.5 -50t46.5 -132v-354z" />
<glyph unicode="i" horiz-adv-x="221" d="M130 0h-38v524h38v-524zM84 664q0 12 8 20.5t20 8.5q10 0 18 -9t8 -20q0 -14 -7.5 -22.5t-18.5 -8.5q-12 0 -20 8.5t-8 22.5z" />
<glyph unicode="j" horiz-adv-x="221" d="M-23 -190v33q67 -2 91 23.5t24 84.5v573h38v-578q0 -76 -41.5 -109t-111.5 -27zM112 633q-12 0 -20 8.5t-8 22.5q0 12 8 20.5t20 8.5q10 0 18 -9t8 -20q0 -14 -7.5 -22.5t-18.5 -8.5z" />
<glyph unicode="k" horiz-adv-x="468" d="M450 0h-45l-187 273h-107v-273h-38v731h38v-425h107l189 218h43l-200 -233z" />
<glyph unicode="l" horiz-adv-x="224" d="M215 24v-34q-6 -2 -21 -2q-53 0 -85 27t-32 84v632h38v-631q0 -76 79 -76h21z" />
<glyph unicode="m" horiz-adv-x="851" d="M773 0h-38v356q0 69 -34.5 106.5t-104.5 37.5q-53 0 -95.5 -29.5t-58.5 -75.5q2 -20 2 -41v-354h-38v356q0 69 -34.5 106.5t-104.5 37.5q-55 0 -95.5 -30t-56.5 -65v-405h-38v524h38v-73q19 35 58.5 60t99.5 25q123 0 158 -101q56 101 171 101q88 0 129.5 -49.5 t41.5 -132.5v-354z" />
<glyph unicode="n" horiz-adv-x="548" d="M470 0h-38v356q0 68 -39.5 106t-114.5 38q-58 0 -102 -30.5t-61 -64.5v-405h-38v524h38v-73q20 34 63 59.5t106 25.5q93 0 139.5 -50t46.5 -132v-354z" />
<glyph unicode="o" horiz-adv-x="560" d="M280 536q65 0 112.5 -23.5t74 -64t38.5 -86.5t12 -98t-12 -98.5t-38.5 -88t-74 -65.5t-112.5 -24t-112.5 24t-74 65.5t-38.5 88t-12 98.5t12 98t38.5 86.5t74 64t112.5 23.5zM280 24q50 0 87.5 17t58 42t33.5 59.5t16.5 63t3.5 58.5t-3.5 58t-16.5 62t-33.5 58.5t-58 41 t-87.5 16.5t-87.5 -16.5t-58 -41t-33.5 -58.5t-16.5 -62t-3.5 -58t3.5 -58.5t16.5 -63t33.5 -59.5t58 -42t87.5 -17z" />
<glyph unicode="p" horiz-adv-x="564" d="M122 -191h-38v698q83 29 165 29q133 0 193.5 -70.5t60.5 -190.5q0 -81 -21 -138.5t-59 -89t-83 -45.5t-100 -14q-61 0 -118 25v-204zM122 483v-436q62 -23 119 -23q224 0 224 248q0 98 -50.5 163t-156.5 65q-79 0 -136 -17z" />
<glyph unicode="q" horiz-adv-x="565" d="M481 -191h-38v206q-57 -27 -117 -27q-57 0 -102.5 14.5t-83 46.5t-58.5 90t-21 138q0 120 70 189.5t193 69.5q37 0 76 -7.5t60 -14.5l21 -8v-697zM443 50v430q-52 20 -126 20q-102 0 -160 -61.5t-58 -163.5q0 -129 55.5 -190t169.5 -61q65 0 119 26z" />
<glyph unicode="r" horiz-adv-x="318" d="M113 0h-36v524h38v-81q65 93 172 93q21 0 41 -3v-37q-20 3 -38 3q-62 0 -107 -30.5t-70 -77.5v-391z" />
<glyph unicode="s" horiz-adv-x="514" d="M444 381h-38q-4 61 -45 90t-107 29q-75 0 -113 -27.5t-38 -68.5q0 -43 38.5 -68t132.5 -46q103 -23 146 -57.5t43 -96.5q0 -63 -56.5 -105.5t-142.5 -42.5q-97 0 -154 45t-59 128h38q9 -137 175 -137q75 0 118 32t43 80q0 44 -39.5 71.5t-125.5 47.5q-35 8 -58.5 14.5 t-51.5 19t-45 27t-28.5 37.5t-11.5 51q0 58 52 95t137 37q88 0 138 -43t52 -112z" />
<glyph unicode="t" horiz-adv-x="318" d="M311 33v-33q-34 -12 -96 -12q-63 0 -100.5 34.5t-37.5 104.5v364h-45v12l72 86h11v-65h170v-33h-170v-361q0 -56 25 -82t77 -26q48 0 94 11z" />
<glyph unicode="u" horiz-adv-x="537" d="M459 0h-35v74q-20 -35 -65 -60.5t-109 -25.5q-89 0 -131 50t-42 133v353h38v-354q0 -146 144 -146q58 0 102.5 29.5t59.5 63.5v407h38v-524z" />
<glyph unicode="v" horiz-adv-x="480" d="M269 0h-45l-202 524h41l182 -483l174 483h39z" />
<glyph unicode="w" horiz-adv-x="734" d="M553 0h-46l-139 479h-2l-140 -479h-47l-159 524h40l142 -479h2l138 479h49l139 -479h2l142 479h40z" />
<glyph unicode="x" horiz-adv-x="479" d="M456 0h-47l-170 247l-173 -247h-43l192 275l-179 249h48l155 -220l157 220h44l-177 -249z" />
<glyph unicode="y" horiz-adv-x="491" d="M239 -9l-216 533h42l191 -483l174 483h38q-166 -459 -211 -582q-49 -133 -171 -133q-20 0 -29 1v33q10 -1 27 -1q66 0 97.5 33t57.5 116z" />
<glyph unicode="z" horiz-adv-x="457" d="M419 0h-381v26l320 465h-294v33h341v-26l-320 -465h334v-33z" />
<glyph unicode="{" d="M308 -185h-13q-73 0 -99 37.5t-26 119.5v206q0 18 -2 30t-9 25.5t-23.5 21t-41.5 7.5v33q25 0 41.5 7.5t23.5 21t9 25.5t2 30v206q0 82 26 119.5t99 37.5h13v-33h-11q-52 0 -70.5 -26t-18.5 -76v-215q0 -92 -70 -114q70 -22 70 -113v-215q0 -50 18.5 -76t70.5 -26h11v-33 z" />
<glyph unicode="|" horiz-adv-x="232" d="M135 -250h-38v1001h38v-1001z" />
<glyph unicode="}" d="M47 -185h-13v33h11q52 0 70.5 26t18.5 76v215q0 91 70 113q-70 22 -70 114v215q0 50 -18.5 76t-70.5 26h-11v33h13q73 0 99 -37.5t26 -119.5v-206q0 -18 2 -30t9 -25.5t23.5 -21t41.5 -7.5v-33q-25 0 -41.5 -7.5t-23.5 -21t-9 -25.5t-2 -30v-206q0 -82 -26 -119.5 t-99 -37.5z" />
<glyph unicode="~" horiz-adv-x="670" d="M565 300l14 -38q-62 -72 -130 -72q-26 0 -51 9t-75 34l-8 4q-60 29 -91 29q-60 0 -119 -70l-14 38q59 71 131 71q41 0 136 -47q60 -29 92 -29q50 0 115 71z" />
<glyph unicode="&#xa1;" horiz-adv-x="278" d="M177 447q0 -15 -11 -26t-27 -11t-27 11t-11 26q0 17 10.5 28.5t27.5 11.5t27.5 -11.5t10.5 -28.5zM163 -231h-47v235l8 304h31l8 -304v-235z" />
<glyph unicode="&#xa2;" horiz-adv-x="570" d="M321 -118h-32v107q-108 4 -164.5 76t-56.5 196q0 71 20.5 127t72 94.5t128.5 41.5v91h32v-92q84 -6 131.5 -57t47.5 -112h-38q-6 56 -44.5 92t-96.5 42v-464q63 5 99 41.5t44 96.5h38q-3 -64 -51 -115.5t-130 -57.5v-107zM289 23v466q-183 -8 -183 -228 q0 -107 46.5 -170.5t136.5 -67.5z" />
<glyph unicode="&#xa3;" horiz-adv-x="570" d="M520 82l18 -30q-69 -64 -143 -64q-43 0 -113.5 30t-103.5 30q-50 0 -116 -60l-31 20q40 48 82 109q59 89 59 144q0 31 -12 60h-115v33h100l-36 78q-25 53 -25 97q0 81 60 127t150 46q93 0 150.5 -51t68.5 -126h-38q-13 66 -63.5 103.5t-117.5 37.5q-78 0 -125 -37.5 t-47 -102.5q0 -24 12 -56.5t31 -71.5t21 -44h174v-33h-159q8 -40 8 -51q0 -107 -105 -212l2 -2q42 28 81 28q38 0 104 -30t112 -30q57 0 117 58z" />
<glyph unicode="&#xa4;" horiz-adv-x="570" d="M492 109l-57 58q-38 -31 -72 -44t-79 -13q-82 0 -149 57l-58 -59l-27 27l59 58q-56 77 -56 150q0 81 56 150l-59 58l26 27l59 -59q70 56 150 56q82 0 150 -56l57 58l27 -27l-58 -57q56 -69 56 -152t-56 -147l57 -58zM285 150q78 0 134 56t56 136t-55.5 137t-133.5 57 q-80 0 -135.5 -57t-55.5 -135q0 -83 56.5 -138.5t133.5 -55.5z" />
<glyph unicode="&#xa5;" horiz-adv-x="570" d="M303 0h-38v183h-150v33h150v82h-150v33h129l-233 359h47l227 -359l227 359h47l-236 -359h129v-33h-150v-82h150v-33h-149v-183z" />
<glyph unicode="&#xa6;" horiz-adv-x="232" d="M135 -119h-38v330h38v-330zM135 361h-38v330h38v-330z" />
<glyph unicode="&#xa7;" horiz-adv-x="566" d="M239 182l142 -98q29 11 62 44.5t33 70.5q0 42 -38.5 80.5t-110.5 86.5l-142 98q-95 -46 -95 -115q0 -42 38.5 -80.5t110.5 -86.5zM98 -23h35q3 -45 43.5 -86t107.5 -41q53 0 92 30t39 79q0 46 -32 78t-116 86l-10.5 6t-9 6t-10.5 7q-50 33 -71.5 48.5t-52.5 43.5 t-43.5 55.5t-12.5 60.5q0 43 25.5 73.5t77.5 61.5q-46 38 -46 100q0 61 46.5 103.5t121.5 42.5q29 0 58 -8t57 -25t47.5 -50t23.5 -77h-35q-3 45 -43.5 86t-107.5 41q-53 0 -92 -30t-39 -79q0 -12 2 -23t7.5 -21.5t10.5 -18.5t16.5 -18.5t19.5 -17.5t25 -19t27.5 -19 t33.5 -22t36 -24q100 -68 129 -98q51 -51 51 -110q0 -43 -25.5 -73.5t-77.5 -61.5q46 -38 46 -100q0 -61 -46.5 -103.5t-121.5 -42.5q-29 0 -58 8t-57 25t-47.5 50t-23.5 77z" />
<glyph unicode="&#xa8;" d="M92 594q-12 0 -20 8.5t-8 22.5q0 12 8 20.5t20 8.5q10 0 18 -9t8 -20q0 -14 -7.5 -22.5t-18.5 -8.5zM250 594q-12 0 -20 8.5t-8 22.5q0 12 8 20.5t20 8.5q10 0 18 -9t8 -20q0 -14 -7.5 -22.5t-18.5 -8.5z" />
<glyph unicode="&#xa9;" horiz-adv-x="810" d="M405 -17q-159 0 -264.5 110t-105.5 264t105.5 264t264.5 110t264.5 -110t105.5 -264t-105.5 -264t-264.5 -110zM405 16q144 0 238 98t94 243t-94 243t-238 98t-238 -98t-94 -243t94 -243t238 -98zM553 267h36q-8 -62 -55.5 -104t-118.5 -42q-103 0 -158.5 64.5 t-55.5 177.5q0 98 52 163t159 65q77 0 124.5 -42t50.5 -94h-38q-8 42 -43.5 71t-93.5 29q-173 0 -173 -190q0 -97 44 -152.5t132 -55.5q53 0 91 30t47 80z" />
<glyph unicode="&#xaa;" horiz-adv-x="338" d="M310 402v-27q-14 -2 -23 -2q-38 0 -43 39q-41 -46 -108 -46q-39 0 -66 22t-27 65q0 56 45 81t153 25v33q0 77 -75 77q-79 0 -79 -79h-32q0 57 31.5 83t79.5 26q53 0 80.5 -29t27.5 -81v-164q0 -12 6 -17.5t21 -5.5h9zM241 460v70q-99 -1 -132.5 -20t-33.5 -57 q0 -29 19 -43.5t46 -14.5q31 0 60 18t41 47z" />
<glyph unicode="&#xab;" horiz-adv-x="360" d="M332 116l-154 134v41l154 136v-48l-127 -109l127 -107v-47zM182 116l-154 134v41l154 136v-48l-127 -109l127 -107v-47z" />
<glyph unicode="&#xac;" horiz-adv-x="670" d="M577 137h-38v194h-446v38h484v-232z" />
<glyph unicode="&#xad;" d="M278 253h-214v38h214v-38z" />
<glyph unicode="&#xae;" horiz-adv-x="810" d="M405 -17q-153 0 -261.5 110.5t-108.5 263.5t108.5 263.5t261.5 110.5t261.5 -110.5t108.5 -263.5t-108.5 -263.5t-261.5 -110.5zM405 16q138 0 235 99t97 242t-97 242t-235 99t-235 -99t-97 -242t97 -242t235 -99zM586 136h-45l-142 189h-90v-189h-38v442h135 q96 0 130 -26.5t34 -94.5q0 -53 -30 -84.5t-97 -42.5zM309 361h77q86 0 116 21t30 73q0 32 -7 49.5t-28.5 26t-42.5 10t-68 1.5h-77v-181z" />
<glyph unicode="&#xaf;" d="M297 629h-252v33h252v-33z" />
<glyph unicode="&#xb0;" horiz-adv-x="410" d="M205 465q42 0 69.5 29.5t27.5 72.5t-27.5 72.5t-69.5 29.5t-69.5 -29.5t-27.5 -72.5t27.5 -72.5t69.5 -29.5zM205 432q-57 0 -96 39t-39 96t39 96t96 39t96 -39t39 -96t-39 -96t-96 -39z" />
<glyph unicode="&#xb1;" horiz-adv-x="670" d="M577 277h-223v-189h-38v189h-223v38h223v189h38v-189h223v-38zM577 0h-484v38h484v-38z" />
<glyph unicode="&#xb2;" horiz-adv-x="390" d="M334 275h-277q-2 56 32 101t101 92q36 26 53.5 40t35 38t17.5 47q0 33 -23 54t-72 21q-46 0 -72 -22t-26 -63h-32q0 60 39 87.5t91 27.5q60 0 94 -26t34 -77q0 -30 -16.5 -56t-35 -41.5t-56.5 -42.5q-26 -18 -43.5 -32t-39 -34t-33.5 -41t-14 -41h243v-32z" />
<glyph unicode="&#xb3;" horiz-adv-x="390" d="M174 476h-42v30h40q118 0 118 87q0 36 -28.5 55.5t-70.5 19.5t-69.5 -21.5t-27.5 -63.5h-32q-1 61 39 88t90 27q58 0 94.5 -26.5t36.5 -78.5q0 -72 -73 -102q82 -30 82 -107q0 -53 -38 -84.5t-103 -31.5q-49 0 -90 26.5t-41 82.5h32q0 -34 27 -56.5t74 -22.5 q55 0 80.5 26t25.5 60q0 46 -36.5 69t-87.5 23z" />
<glyph unicode="&#xb4;" d="M123 591h-37l116 140h55z" />
<glyph unicode="&#xb5;" horiz-adv-x="537" d="M459 0h-35v74q-20 -35 -65 -60.5t-109 -25.5q-91 0 -135 55v-234h-38v715h38v-354q0 -146 144 -146q58 0 102.5 29.5t59.5 63.5v407h38v-524z" />
<glyph unicode="&#xb6;" horiz-adv-x="566" d="M485 -169h-38v850h-124v-850h-38v497q-95 1 -150 56t-55 137q0 89 53.5 141t151.5 52h200v-883z" />
<glyph unicode="&#xb7;" horiz-adv-x="220" d="M110 276q-17 0 -27.5 11.5t-10.5 28.5q0 15 11 26t27 11t27 -11t11 -26q0 -17 -10.5 -28.5t-27.5 -11.5z" />
<glyph unicode="&#xb8;" d="M81 -175l10 24q42 -18 76 -18q24 0 41.5 11.5t17.5 36.5t-17.5 36.5t-41.5 11.5q-30 0 -66 -18l-10 24q33 21 75 21q96 0 96 -75t-96 -75q-48 0 -85 21z" />
<glyph unicode="&#xb9;" horiz-adv-x="390" d="M228 275h-32v366l-75 -63l-20 20l109 93h18v-416z" />
<glyph unicode="&#xba;" horiz-adv-x="338" d="M169 366q-72 0 -105.5 49t-33.5 118t33.5 117.5t105.5 48.5t105 -48.5t33 -117.5t-33 -118t-105 -49zM169 395q43 0 68.5 26t31.5 53t6 59q0 23 -4 43t-14 43t-32.5 36.5t-55.5 13.5q-106 0 -106 -136q0 -23 3.5 -43t13.5 -43.5t33 -37.5t56 -14z" />
<glyph unicode="&#xbb;" horiz-adv-x="360" d="M182 250l-154 -134v47l127 107l-127 109v48l154 -136v-41zM332 250l-154 -134v47l127 107l-127 109v48l154 -136v-41z" />
<glyph unicode="&#xbc;" horiz-adv-x="844" d="M666 0h-31v105h-195v35l191 276h35v-282h68v-29h-68v-105zM635 134l-2 229l-154 -229h156zM236 275h-32v366l-75 -63l-20 20l109 93h18v-416zM189 -17h-41l461 731h40z" />
<glyph unicode="&#xbd;" horiz-adv-x="844" d="M206 275h-32v366l-75 -63l-20 20l109 93h18v-416zM159 -17h-41l461 731h40zM764 0h-277q-2 56 32 101t101 92q36 26 53.5 40t35 38t17.5 47q0 33 -23 54t-72 21q-46 0 -72 -22t-26 -63h-32q0 60 39 87.5t91 27.5q60 0 94 -26t34 -77q0 -30 -16.5 -56t-35 -41.5 t-56.5 -42.5q-26 -18 -43.5 -32t-39 -34t-33.5 -41t-14 -41h243v-32z" />
<glyph unicode="&#xbe;" horiz-adv-x="844" d="M709 0h-31v105h-195v35l191 276h35v-282h68v-29h-68v-105zM678 134l-2 229l-154 -229h156zM181 476h-42v30h40q118 0 118 87q0 36 -28.5 55.5t-70.5 19.5t-69.5 -21.5t-27.5 -63.5h-32q-1 61 39 88t90 27q58 0 94.5 -26.5t36.5 -78.5q0 -72 -73 -102q82 -30 82 -107 q0 -53 -38 -84.5t-103 -31.5q-49 0 -90 26.5t-41 82.5h32q0 -34 27 -56.5t74 -22.5q55 0 80.5 26t25.5 60q0 46 -36.5 69t-87.5 23zM249 -17h-41l461 731h40z" />
<glyph unicode="&#xbf;" horiz-adv-x="500" d="M419 -40h38q0 -95 -57 -151.5t-160 -56.5q-82 0 -139 46t-57 128q0 52 21.5 84.5t64.5 66.5l40 32q44 38 64.5 80t19.5 119h38q0 -139 -91 -217q-11 -9 -34 -27.5t-34 -28.5t-25.5 -27t-20.5 -36.5t-6 -43.5q0 -65 49 -102.5t112 -37.5q86 0 131.5 47t45.5 125zM271 487 q17 0 27.5 -11.5t10.5 -28.5q0 -15 -11 -26t-27 -11t-27 11t-11 26q0 17 10.5 28.5t27.5 11.5z" />
<glyph unicode="&#xc0;" horiz-adv-x="702" d="M682 0h-48l-109 247h-352l-107 -247h-46l309 714h43zM508 289l-160 364l-158 -364h318zM409 764h-37l-134 140h56z" />
<glyph unicode="&#xc1;" horiz-adv-x="702" d="M682 0h-48l-109 247h-352l-107 -247h-46l309 714h43zM508 289l-160 364l-158 -364h318zM331 764h-37l116 140h55z" />
<glyph unicode="&#xc2;" horiz-adv-x="702" d="M682 0h-48l-109 247h-352l-107 -247h-46l309 714h43zM508 289l-160 364l-158 -364h318zM486 764h-41l-94 115l-95 -115h-41l115 140h40z" />
<glyph unicode="&#xc3;" horiz-adv-x="702" d="M682 0h-48l-109 247h-352l-107 -247h-46l309 714h43zM508 289l-160 364l-158 -364h318zM466 865h29q0 -34 -21 -62t-55 -28q-27 0 -74.5 28.5t-67.5 28.5t-31 -17.5t-11 -39.5h-29q0 36 20 63t54 27q26 0 75 -28.5t67 -28.5q20 0 32 17.5t12 39.5z" />
<glyph unicode="&#xc4;" horiz-adv-x="702" d="M682 0h-48l-109 247h-352l-107 -247h-46l309 714h43zM508 289l-160 364l-158 -364h318zM272 775q-12 0 -20 8.5t-8 22.5q0 12 8 20.5t20 8.5q10 0 18 -9t8 -20q0 -14 -7.5 -22.5t-18.5 -8.5zM430 775q-12 0 -20 8.5t-8 22.5q0 12 8 20.5t20 8.5q10 0 18 -9t8 -20 q0 -14 -7.5 -22.5t-18.5 -8.5z" />
<glyph unicode="&#xc5;" horiz-adv-x="702" d="M682 0h-48l-109 247h-352l-107 -247h-46l309 714h43zM508 289l-160 364l-158 -364h318zM450 848q0 -41 -28.5 -69t-70.5 -28t-70.5 28t-28.5 69q0 43 27.5 72t71.5 29t71.5 -29t27.5 -72zM351 926q-33 0 -53.5 -23t-20.5 -55q0 -29 20.5 -51.5t53.5 -22.5t53.5 22.5 t20.5 51.5q0 32 -20.5 55t-53.5 23z" />
<glyph unicode="&#xc6;" horiz-adv-x="925" d="M880 0h-398v247h-291l-123 -247h-48l367 714h483v-42h-344v-283h301v-42h-301v-305h354v-42zM482 289v383h-73l-198 -383h271z" />
<glyph unicode="&#xc7;" horiz-adv-x="721" d="M620 208h44q-15 -104 -92 -164.5t-186 -60.5q-154 0 -240.5 98.5t-86.5 276.5t86.5 275.5t240.5 97.5q106 0 178 -53.5t87 -153.5h-44q-14 87 -76 126t-145 39q-58 0 -106.5 -16.5t-89.5 -53.5t-64 -103.5t-23 -157.5t23 -158t64 -104t89.5 -54t106.5 -17 q86 0 152.5 44.5t81.5 138.5zM297 -175l10 24q42 -18 76 -18q24 0 41.5 11.5t17.5 36.5t-17.5 36.5t-41.5 11.5q-30 0 -66 -18l-10 24q33 21 75 21q96 0 96 -75t-96 -75q-48 0 -85 21z" />
<glyph unicode="&#xc8;" horiz-adv-x="548" d="M503 0h-418v714h408v-42h-364v-283h321v-42h-321v-305h374v-42zM350 764h-37l-134 140h56z" />
<glyph unicode="&#xc9;" horiz-adv-x="548" d="M503 0h-418v714h408v-42h-364v-283h321v-42h-321v-305h374v-42zM262 764h-37l116 140h55z" />
<glyph unicode="&#xca;" horiz-adv-x="548" d="M503 0h-418v714h408v-42h-364v-283h321v-42h-321v-305h374v-42zM434 764h-41l-94 115l-95 -115h-41l115 140h40z" />
<glyph unicode="&#xcb;" horiz-adv-x="548" d="M503 0h-418v714h408v-42h-364v-283h321v-42h-321v-305h374v-42zM216 775q-12 0 -20 8.5t-8 22.5q0 12 8 20.5t20 8.5q10 0 18 -9t8 -20q0 -14 -7.5 -22.5t-18.5 -8.5zM374 775q-12 0 -20 8.5t-8 22.5q0 12 8 20.5t20 8.5q10 0 18 -9t8 -20q0 -14 -7.5 -22.5t-18.5 -8.5z " />
<glyph unicode="&#xcc;" horiz-adv-x="264" d="M154 0h-44v714h44v-714zM190 764h-37l-134 140h56z" />
<glyph unicode="&#xcd;" horiz-adv-x="264" d="M154 0h-44v714h44v-714zM112 764h-37l116 140h55z" />
<glyph unicode="&#xce;" horiz-adv-x="264" d="M154 0h-44v714h44v-714zM268 764h-41l-94 115l-95 -115h-41l115 140h40z" />
<glyph unicode="&#xcf;" horiz-adv-x="264" d="M154 0h-44v714h44v-714zM53 775q-12 0 -20 8.5t-8 22.5q0 12 8 20.5t20 8.5q10 0 18 -9t8 -20q0 -14 -7.5 -22.5t-18.5 -8.5zM211 775q-12 0 -20 8.5t-8 22.5q0 12 8 20.5t20 8.5q10 0 18 -9t8 -20q0 -14 -7.5 -22.5t-18.5 -8.5z" />
<glyph unicode="&#xd0;" horiz-adv-x="702" d="M317 0h-232v363h-68v33h68v318h234q324 0 324 -356q0 -78 -17.5 -141.5t-55 -113t-102 -76.5t-151.5 -27zM129 42h192q57 0 104 15t88 49.5t63.5 98.5t22.5 153q0 61 -10 109.5t-26 80.5t-40.5 56t-48.5 36.5t-55 20t-54.5 9.5t-52.5 2h-183v-276h234v-33h-234v-321z" />
<glyph unicode="&#xd1;" horiz-adv-x="718" d="M633 0h-52l-452 660v-660h-44v714h56l448 -655v655h44v-714zM484 865h29q0 -34 -21 -62t-55 -28q-27 0 -74.5 28.5t-67.5 28.5t-31 -17.5t-11 -39.5h-29q0 36 20 63t54 27q26 0 75 -28.5t67 -28.5q20 0 32 17.5t12 39.5z" />
<glyph unicode="&#xd2;" horiz-adv-x="772" d="M386 -17q-154 0 -240.5 98.5t-86.5 276.5t86.5 275.5t240.5 97.5t240.5 -97.5t86.5 -275.5t-86.5 -276.5t-240.5 -98.5zM386 25q58 0 106.5 17t89.5 54t64 104t23 158t-23 157.5t-64 103.5t-89.5 53.5t-106.5 16.5t-106.5 -16.5t-89.5 -53.5t-64 -103.5t-23 -157.5 t23 -158t64 -104t89.5 -54t106.5 -17zM441 764h-37l-134 140h56z" />
<glyph unicode="&#xd3;" horiz-adv-x="772" d="M386 -17q-154 0 -240.5 98.5t-86.5 276.5t86.5 275.5t240.5 97.5t240.5 -97.5t86.5 -275.5t-86.5 -276.5t-240.5 -98.5zM386 25q58 0 106.5 17t89.5 54t64 104t23 158t-23 157.5t-64 103.5t-89.5 53.5t-106.5 16.5t-106.5 -16.5t-89.5 -53.5t-64 -103.5t-23 -157.5 t23 -158t64 -104t89.5 -54t106.5 -17zM366 764h-37l116 140h55z" />
<glyph unicode="&#xd4;" horiz-adv-x="772" d="M386 -17q-154 0 -240.5 98.5t-86.5 276.5t86.5 275.5t240.5 97.5t240.5 -97.5t86.5 -275.5t-86.5 -276.5t-240.5 -98.5zM386 25q58 0 106.5 17t89.5 54t64 104t23 158t-23 157.5t-64 103.5t-89.5 53.5t-106.5 16.5t-106.5 -16.5t-89.5 -53.5t-64 -103.5t-23 -157.5 t23 -158t64 -104t89.5 -54t106.5 -17zM521 764h-41l-94 115l-95 -115h-41l115 140h40z" />
<glyph unicode="&#xd5;" horiz-adv-x="772" d="M386 -17q-154 0 -240.5 98.5t-86.5 276.5t86.5 275.5t240.5 97.5t240.5 -97.5t86.5 -275.5t-86.5 -276.5t-240.5 -98.5zM386 25q58 0 106.5 17t89.5 54t64 104t23 158t-23 157.5t-64 103.5t-89.5 53.5t-106.5 16.5t-106.5 -16.5t-89.5 -53.5t-64 -103.5t-23 -157.5 t23 -158t64 -104t89.5 -54t106.5 -17zM501 865h29q0 -34 -21 -62t-55 -28q-27 0 -74.5 28.5t-67.5 28.5t-31 -17.5t-11 -39.5h-29q0 36 20 63t54 27q27 0 76 -28.5t66 -28.5q20 0 32 17.5t12 39.5z" />
<glyph unicode="&#xd6;" horiz-adv-x="772" d="M386 -17q-154 0 -240.5 98.5t-86.5 276.5t86.5 275.5t240.5 97.5t240.5 -97.5t86.5 -275.5t-86.5 -276.5t-240.5 -98.5zM386 25q58 0 106.5 17t89.5 54t64 104t23 158t-23 157.5t-64 103.5t-89.5 53.5t-106.5 16.5t-106.5 -16.5t-89.5 -53.5t-64 -103.5t-23 -157.5 t23 -158t64 -104t89.5 -54t106.5 -17zM307 775q-12 0 -20 8.5t-8 22.5q0 12 8 20.5t20 8.5q10 0 18 -9t8 -20q0 -14 -7.5 -22.5t-18.5 -8.5zM465 775q-12 0 -20 8.5t-8 22.5q0 12 8 20.5t20 8.5q10 0 18 -9t8 -20q0 -14 -7.5 -22.5t-18.5 -8.5z" />
<glyph unicode="&#xd7;" horiz-adv-x="670" d="M536 25l-201 202l-203 -202l-25 26l201 201l-201 203l25 26l203 -202l201 202l26 -26l-200 -203l200 -201z" />
<glyph unicode="&#xd8;" horiz-adv-x="772" d="M80 -8l-26 24l77 84q-72 97 -72 258q0 178 86.5 275.5t240.5 97.5q151 0 236 -93l69 76l26 -24l-73 -80q69 -95 69 -252q0 -178 -86.5 -276.5t-240.5 -98.5q-147 0 -232 90zM160 132l433 475q-75 82 -207 82q-58 0 -106.5 -16.5t-89.5 -53.5t-64 -103.5t-23 -157.5 q0 -144 57 -226zM615 578l-433 -474q73 -79 204 -79q58 0 106.5 17t89.5 54t64 104t23 158q0 137 -54 220z" />
<glyph unicode="&#xd9;" horiz-adv-x="703" d="M574 267v447h44v-451q0 -134 -70.5 -207t-196.5 -73q-125 0 -195.5 73.5t-70.5 206.5v451h44v-447q0 -126 62 -184t160 -58q99 0 161 58t62 184zM416 764h-37l-134 140h56z" />
<glyph unicode="&#xda;" horiz-adv-x="703" d="M574 267v447h44v-451q0 -134 -70.5 -207t-196.5 -73q-125 0 -195.5 73.5t-70.5 206.5v451h44v-447q0 -126 62 -184t160 -58q99 0 161 58t62 184zM324 764h-37l116 140h55z" />
<glyph unicode="&#xdb;" horiz-adv-x="703" d="M574 267v447h44v-451q0 -134 -70.5 -207t-196.5 -73q-125 0 -195.5 73.5t-70.5 206.5v451h44v-447q0 -126 62 -184t160 -58q99 0 161 58t62 184zM487 764h-41l-94 115l-95 -115h-41l115 140h40z" />
<glyph unicode="&#xdc;" horiz-adv-x="703" d="M574 267v447h44v-451q0 -134 -70.5 -207t-196.5 -73q-125 0 -195.5 73.5t-70.5 206.5v451h44v-447q0 -126 62 -184t160 -58q99 0 161 58t62 184zM272 775q-12 0 -20 8.5t-8 22.5q0 12 8 20.5t20 8.5q10 0 18 -9t8 -20q0 -14 -7.5 -22.5t-18.5 -8.5zM430 775 q-12 0 -20 8.5t-8 22.5q0 12 8 20.5t20 8.5q10 0 18 -9t8 -20q0 -14 -7.5 -22.5t-18.5 -8.5z" />
<glyph unicode="&#xdd;" horiz-adv-x="640" d="M347 0h-45v310q-18 25 -131 185t-154 219h50l260 -364l248 364h48l-276 -404v-310zM292 764h-37l116 140h55z" />
<glyph unicode="&#xde;" horiz-adv-x="596" d="M312 164h-183v-164h-44v714h44v-124h199q30 0 58 -4.5t60.5 -18t55.5 -35.5t38.5 -61t15.5 -91q0 -103 -64 -159.5t-180 -56.5zM129 206h190q101 0 147 48.5t46 126.5q0 29 -7 54.5t-25.5 53t-58 43.5t-96.5 16h-196v-342z" />
<glyph unicode="&#xdf;" horiz-adv-x="516" d="M176 -3v38q40 -11 72 -11q77 0 130.5 46.5t53.5 137.5q0 78 -45 120.5t-120 47.5q-30 2 -91 2v36q96 0 155 35t59 114q0 61 -38.5 96.5t-105.5 35.5q-151 0 -151 -159v-536h-38v533q0 95 47.5 146.5t141.5 51.5q89 0 135.5 -47t46.5 -119q0 -123 -118 -160v-2 q72 -9 116 -61.5t44 -133.5q0 -110 -66.5 -165t-151.5 -55q-33 0 -76 9z" />
<glyph unicode="&#xe0;" horiz-adv-x="508" d="M481 22v-31q-15 -3 -29 -3q-32 0 -50.5 16.5t-22.5 56.5q-27 -33 -72.5 -53t-97.5 -20q-67 0 -112.5 35t-45.5 103q0 86 72.5 123t255.5 36v78q0 137 -138 137q-70 0 -105.5 -34.5t-35.5 -95.5h-36q0 85 52 125.5t123 40.5q90 0 134.5 -45t44.5 -128v-284q0 -34 12 -45.5 t36 -11.5h15zM379 102v151q-76 0 -129.5 -6.5t-84.5 -16.5t-48 -27.5t-22 -34.5t-5 -42q0 -46 34.5 -74t89.5 -28q46 0 92 21.5t73 56.5zM305 591h-37l-134 140h56z" />
<glyph unicode="&#xe1;" horiz-adv-x="508" d="M481 22v-31q-15 -3 -29 -3q-32 0 -50.5 16.5t-22.5 56.5q-27 -33 -72.5 -53t-97.5 -20q-67 0 -112.5 35t-45.5 103q0 86 72.5 123t255.5 36v78q0 137 -138 137q-70 0 -105.5 -34.5t-35.5 -95.5h-36q0 85 52 125.5t123 40.5q90 0 134.5 -45t44.5 -128v-284q0 -34 12 -45.5 t36 -11.5h15zM379 102v151q-76 0 -129.5 -6.5t-84.5 -16.5t-48 -27.5t-22 -34.5t-5 -42q0 -46 34.5 -74t89.5 -28q46 0 92 21.5t73 56.5zM228 591h-37l116 140h55z" />
<glyph unicode="&#xe2;" horiz-adv-x="508" d="M481 22v-31q-15 -3 -29 -3q-32 0 -50.5 16.5t-22.5 56.5q-27 -33 -72.5 -53t-97.5 -20q-67 0 -112.5 35t-45.5 103q0 86 72.5 123t255.5 36v78q0 137 -138 137q-70 0 -105.5 -34.5t-35.5 -95.5h-36q0 85 52 125.5t123 40.5q90 0 134.5 -45t44.5 -128v-284q0 -34 12 -45.5 t36 -11.5h15zM379 102v151q-76 0 -129.5 -6.5t-84.5 -16.5t-48 -27.5t-22 -34.5t-5 -42q0 -46 34.5 -74t89.5 -28q46 0 92 21.5t73 56.5zM382 591h-41l-94 115l-95 -115h-41l115 140h40z" />
<glyph unicode="&#xe3;" horiz-adv-x="508" d="M481 22v-31q-15 -3 -29 -3q-32 0 -50.5 16.5t-22.5 56.5q-27 -33 -72.5 -53t-97.5 -20q-67 0 -112.5 35t-45.5 103q0 86 72.5 123t255.5 36v78q0 137 -138 137q-70 0 -105.5 -34.5t-35.5 -95.5h-36q0 85 52 125.5t123 40.5q90 0 134.5 -45t44.5 -128v-284q0 -34 12 -45.5 t36 -11.5h15zM379 102v151q-76 0 -129.5 -6.5t-84.5 -16.5t-48 -27.5t-22 -34.5t-5 -42q0 -46 34.5 -74t89.5 -28q46 0 92 21.5t73 56.5zM362 692h29q0 -34 -21 -62t-55 -28q-27 0 -74.5 28.5t-67.5 28.5t-31 -17.5t-11 -39.5h-29q0 36 20 63t54 27q26 0 75 -28.5t67 -28.5 q20 0 32 17.5t12 39.5z" />
<glyph unicode="&#xe4;" horiz-adv-x="508" d="M481 22v-31q-15 -3 -29 -3q-32 0 -50.5 16.5t-22.5 56.5q-27 -33 -72.5 -53t-97.5 -20q-67 0 -112.5 35t-45.5 103q0 86 72.5 123t255.5 36v78q0 137 -138 137q-70 0 -105.5 -34.5t-35.5 -95.5h-36q0 85 52 125.5t123 40.5q90 0 134.5 -45t44.5 -128v-284q0 -34 12 -45.5 t36 -11.5h15zM379 102v151q-76 0 -129.5 -6.5t-84.5 -16.5t-48 -27.5t-22 -34.5t-5 -42q0 -46 34.5 -74t89.5 -28q46 0 92 21.5t73 56.5zM167 594q-12 0 -20 8.5t-8 22.5q0 12 8 20.5t20 8.5q10 0 18 -9t8 -20q0 -14 -7.5 -22.5t-18.5 -8.5zM325 594q-12 0 -20 8.5t-8 22.5 q0 12 8 20.5t20 8.5q10 0 18 -9t8 -20q0 -14 -7.5 -22.5t-18.5 -8.5z" />
<glyph unicode="&#xe5;" horiz-adv-x="508" d="M481 22v-31q-15 -3 -29 -3q-32 0 -50.5 16.5t-22.5 56.5q-27 -33 -72.5 -53t-97.5 -20q-67 0 -112.5 35t-45.5 103q0 86 72.5 123t255.5 36v78q0 137 -138 137q-70 0 -105.5 -34.5t-35.5 -95.5h-36q0 85 52 125.5t123 40.5q90 0 134.5 -45t44.5 -128v-284q0 -34 12 -45.5 t36 -11.5h15zM379 102v151q-76 0 -129.5 -6.5t-84.5 -16.5t-48 -27.5t-22 -34.5t-5 -42q0 -46 34.5 -74t89.5 -28q46 0 92 21.5t73 56.5zM345 668q0 -41 -28.5 -69t-70.5 -28t-70.5 28t-28.5 69q0 43 27.5 72t71.5 29t71.5 -29t27.5 -72zM246 746q-33 0 -53.5 -23t-20.5 -55 q0 -29 20.5 -51.5t53.5 -22.5t53.5 22.5t20.5 51.5q0 32 -20.5 55t-53.5 23z" />
<glyph unicode="&#xe6;" horiz-adv-x="818" d="M753 67l15 -33q-75 -46 -178 -46q-139 0 -192 124q-19 -53 -70 -88.5t-119 -35.5q-66 0 -112 35.5t-46 103.5q0 86 71 126t247 39v72q0 63 -32.5 99t-96.5 36q-70 0 -105 -33.5t-35 -94.5h-36q0 85 52 125t124 40q135 0 162 -116q53 116 177 116q81 0 129.5 -37 t48.5 -110q0 -84 -53 -117t-150 -33q-86 0 -145 14q3 -110 50 -169t132 -59q91 0 162 42zM409 292q62 -16 153 -16q86 0 121.5 26.5t35.5 85.5q0 52 -35 81.5t-105 29.5q-80 0 -122.5 -55.5t-47.5 -151.5zM369 158v95q-91 0 -148.5 -8.5t-85 -27t-36.5 -39t-9 -51.5 q0 -47 34.5 -74.5t88.5 -27.5q68 0 112 45.5t44 87.5z" />
<glyph unicode="&#xe7;" horiz-adv-x="547" d="M456 166h38q-3 -68 -57 -123t-145 -55q-115 0 -177.5 74.5t-62.5 204.5q0 116 58.5 192.5t178.5 76.5q94 0 148.5 -53.5t54.5 -120.5h-38q-6 63 -52.5 100.5t-112.5 37.5q-56 0 -96.5 -19.5t-62 -53.5t-31 -73.5t-9.5 -86.5q0 -112 51.5 -177.5t147.5 -65.5 q72 0 115.5 38t51.5 104zM202 -175l10 24q42 -18 76 -18q24 0 41.5 11.5t17.5 36.5t-17.5 36.5t-41.5 11.5q-30 0 -66 -18l-10 24q33 21 75 21q96 0 96 -75t-96 -75q-48 0 -85 21z" />
<glyph unicode="&#xe8;" horiz-adv-x="507" d="M442 67l15 -33q-75 -46 -178 -46q-111 0 -170 72.5t-59 204.5q0 114 55 192.5t163 78.5q82 0 132.5 -37.5t50.5 -109.5q0 -84 -55 -117t-153 -33q-93 0 -155 14q3 -110 52.5 -169.5t139.5 -59.5t162 43zM88 292q69 -17 163 -17q86 0 124 27t38 86q0 52 -37.5 82 t-107.5 30q-84 0 -129.5 -56t-50.5 -152zM329 591h-37l-134 140h56z" />
<glyph unicode="&#xe9;" horiz-adv-x="507" d="M442 67l15 -33q-75 -46 -178 -46q-111 0 -170 72.5t-59 204.5q0 114 55 192.5t163 78.5q82 0 132.5 -37.5t50.5 -109.5q0 -84 -55 -117t-153 -33q-93 0 -155 14q3 -110 52.5 -169.5t139.5 -59.5t162 43zM88 292q69 -17 163 -17q86 0 124 27t38 86q0 52 -37.5 82 t-107.5 30q-84 0 -129.5 -56t-50.5 -152zM255 591h-37l116 140h55z" />
<glyph unicode="&#xea;" horiz-adv-x="507" d="M442 67l15 -33q-75 -46 -178 -46q-111 0 -170 72.5t-59 204.5q0 114 55 192.5t163 78.5q82 0 132.5 -37.5t50.5 -109.5q0 -84 -55 -117t-153 -33q-93 0 -155 14q3 -110 52.5 -169.5t139.5 -59.5t162 43zM88 292q69 -17 163 -17q86 0 124 27t38 86q0 52 -37.5 82 t-107.5 30q-84 0 -129.5 -56t-50.5 -152zM399 591h-41l-94 115l-95 -115h-41l115 140h40z" />
<glyph unicode="&#xeb;" horiz-adv-x="507" d="M442 67l15 -33q-75 -46 -178 -46q-111 0 -170 72.5t-59 204.5q0 114 55 192.5t163 78.5q82 0 132.5 -37.5t50.5 -109.5q0 -84 -55 -117t-153 -33q-93 0 -155 14q3 -110 52.5 -169.5t139.5 -59.5t162 43zM88 292q69 -17 163 -17q86 0 124 27t38 86q0 52 -37.5 82 t-107.5 30q-84 0 -129.5 -56t-50.5 -152zM183 594q-12 0 -20 8.5t-8 22.5q0 12 8 20.5t20 8.5q10 0 18 -9t8 -20q0 -14 -7.5 -22.5t-18.5 -8.5zM341 594q-12 0 -20 8.5t-8 22.5q0 12 8 20.5t20 8.5q10 0 18 -9t8 -20q0 -14 -7.5 -22.5t-18.5 -8.5z" />
<glyph unicode="&#xec;" horiz-adv-x="221" d="M130 0h-38v524h38v-524zM169 591h-37l-134 140h56z" />
<glyph unicode="&#xed;" horiz-adv-x="221" d="M130 0h-38v524h38v-524zM91 591h-37l116 140h55z" />
<glyph unicode="&#xee;" horiz-adv-x="221" d="M130 0h-38v524h38v-524zM247 591h-41l-94 115l-95 -115h-41l115 140h40z" />
<glyph unicode="&#xef;" horiz-adv-x="221" d="M130 0h-38v524h38v-524zM32 594q-12 0 -20 8.5t-8 22.5q0 12 8 20.5t20 8.5q10 0 18 -9t8 -20q0 -14 -7.5 -22.5t-18.5 -8.5zM190 594q-12 0 -20 8.5t-8 22.5q0 12 8 20.5t20 8.5q10 0 18 -9t8 -20q0 -14 -7.5 -22.5t-18.5 -8.5z" />
<glyph unicode="&#xf0;" horiz-adv-x="540" d="M270 24q47 0 82.5 16t55.5 39.5t32 55.5t15.5 59t3.5 56t-3.5 55t-15.5 58t-32 55t-55.5 38.5t-82.5 15.5t-82.5 -15.5t-55.5 -38.5t-32 -55t-15.5 -58t-3.5 -55t3.5 -56t15.5 -59t32 -55.5t55.5 -39.5t82.5 -16zM416 702l-109 -61q104 -85 147 -173.5t43 -217.5 q0 -50 -11.5 -94t-37 -83t-71 -62t-107.5 -23t-107.5 23t-71 62t-37 83t-11.5 94t11.5 93.5t36 81.5t70 60.5t107.5 22.5q51 0 87.5 -17t71.5 -53q-46 107 -154 184l-112 -62l-21 22l108 60q-55 42 -103 65l28 24q60 -32 108 -71l115 64z" />
<glyph unicode="&#xf1;" horiz-adv-x="548" d="M470 0h-38v356q0 68 -39.5 106t-114.5 38q-58 0 -102 -30.5t-61 -64.5v-405h-38v524h38v-73q20 34 63 59.5t106 25.5q93 0 139.5 -50t46.5 -132v-354zM386 692h29q0 -34 -21 -62t-55 -28q-27 0 -74.5 28.5t-67.5 28.5t-31 -17.5t-11 -39.5h-29q0 36 20 63t54 27 q26 0 75 -28.5t67 -28.5q20 0 32 17.5t12 39.5z" />
<glyph unicode="&#xf2;" horiz-adv-x="560" d="M280 536q65 0 112.5 -23.5t74 -64t38.5 -86.5t12 -98t-12 -98.5t-38.5 -88t-74 -65.5t-112.5 -24t-112.5 24t-74 65.5t-38.5 88t-12 98.5t12 98t38.5 86.5t74 64t112.5 23.5zM280 24q50 0 87.5 17t58 42t33.5 59.5t16.5 63t3.5 58.5t-3.5 58t-16.5 62t-33.5 58.5t-58 41 t-87.5 16.5t-87.5 -16.5t-58 -41t-33.5 -58.5t-16.5 -62t-3.5 -58t3.5 -58.5t16.5 -63t33.5 -59.5t58 -42t87.5 -17zM338 591h-37l-134 140h56z" />
<glyph unicode="&#xf3;" horiz-adv-x="560" d="M280 536q65 0 112.5 -23.5t74 -64t38.5 -86.5t12 -98t-12 -98.5t-38.5 -88t-74 -65.5t-112.5 -24t-112.5 24t-74 65.5t-38.5 88t-12 98.5t12 98t38.5 86.5t74 64t112.5 23.5zM280 24q50 0 87.5 17t58 42t33.5 59.5t16.5 63t3.5 58.5t-3.5 58t-16.5 62t-33.5 58.5t-58 41 t-87.5 16.5t-87.5 -16.5t-58 -41t-33.5 -58.5t-16.5 -62t-3.5 -58t3.5 -58.5t16.5 -63t33.5 -59.5t58 -42t87.5 -17zM261 591h-37l116 140h55z" />
<glyph unicode="&#xf4;" horiz-adv-x="560" d="M280 536q65 0 112.5 -23.5t74 -64t38.5 -86.5t12 -98t-12 -98.5t-38.5 -88t-74 -65.5t-112.5 -24t-112.5 24t-74 65.5t-38.5 88t-12 98.5t12 98t38.5 86.5t74 64t112.5 23.5zM280 24q50 0 87.5 17t58 42t33.5 59.5t16.5 63t3.5 58.5t-3.5 58t-16.5 62t-33.5 58.5t-58 41 t-87.5 16.5t-87.5 -16.5t-58 -41t-33.5 -58.5t-16.5 -62t-3.5 -58t3.5 -58.5t16.5 -63t33.5 -59.5t58 -42t87.5 -17zM415 591h-41l-94 115l-95 -115h-41l115 140h40z" />
<glyph unicode="&#xf5;" horiz-adv-x="560" d="M280 536q65 0 112.5 -23.5t74 -64t38.5 -86.5t12 -98t-12 -98.5t-38.5 -88t-74 -65.5t-112.5 -24t-112.5 24t-74 65.5t-38.5 88t-12 98.5t12 98t38.5 86.5t74 64t112.5 23.5zM280 24q50 0 87.5 17t58 42t33.5 59.5t16.5 63t3.5 58.5t-3.5 58t-16.5 62t-33.5 58.5t-58 41 t-87.5 16.5t-87.5 -16.5t-58 -41t-33.5 -58.5t-16.5 -62t-3.5 -58t3.5 -58.5t16.5 -63t33.5 -59.5t58 -42t87.5 -17zM395 692h29q0 -34 -21 -62t-55 -28q-27 0 -74.5 28.5t-67.5 28.5t-31 -17.5t-11 -39.5h-29q0 36 20 63t54 27q27 0 76 -28.5t66 -28.5q20 0 32 17.5 t12 39.5z" />
<glyph unicode="&#xf6;" horiz-adv-x="560" d="M280 536q65 0 112.5 -23.5t74 -64t38.5 -86.5t12 -98t-12 -98.5t-38.5 -88t-74 -65.5t-112.5 -24t-112.5 24t-74 65.5t-38.5 88t-12 98.5t12 98t38.5 86.5t74 64t112.5 23.5zM280 24q50 0 87.5 17t58 42t33.5 59.5t16.5 63t3.5 58.5t-3.5 58t-16.5 62t-33.5 58.5t-58 41 t-87.5 16.5t-87.5 -16.5t-58 -41t-33.5 -58.5t-16.5 -62t-3.5 -58t3.5 -58.5t16.5 -63t33.5 -59.5t58 -42t87.5 -17zM201 594q-12 0 -20 8.5t-8 22.5q0 12 8 20.5t20 8.5q10 0 18 -9t8 -20q0 -14 -7.5 -22.5t-18.5 -8.5zM359 594q-12 0 -20 8.5t-8 22.5q0 12 8 20.5t20 8.5 q10 0 18 -9t8 -20q0 -14 -7.5 -22.5t-18.5 -8.5z" />
<glyph unicode="&#xf7;" horiz-adv-x="670" d="M386 49q0 -20 -15 -34.5t-35 -14.5t-34.5 14.5t-14.5 34.5q0 21 14.5 36t34.5 15t35 -15t15 -36zM577 233h-484v38h484v-38zM336 404q-20 0 -34.5 15t-14.5 36q0 20 14.5 34.5t34.5 14.5t35 -14.5t15 -34.5q0 -21 -15 -36t-35 -15z" />
<glyph unicode="&#xf8;" horiz-adv-x="560" d="M66 0l-22 23l50 53q-51 73 -51 188q0 52 12 98t38.5 86.5t74 64t112.5 23.5q116 0 177 -76l50 53l23 -23l-54 -57q41 -67 41 -169q0 -52 -12 -98.5t-38.5 -88t-74 -65.5t-112.5 -24q-104 0 -165 63zM120 103l312 330q-52 67 -152 67q-50 0 -87.5 -16.5t-58 -41 t-33.5 -58.5t-16.5 -62t-3.5 -58q0 -99 39 -161zM450 405l-310 -327q51 -54 140 -54q50 0 87.5 17t58 42t33.5 59.5t16.5 63t3.5 58.5q0 83 -29 141z" />
<glyph unicode="&#xf9;" horiz-adv-x="537" d="M459 0h-35v74q-20 -35 -65 -60.5t-109 -25.5q-89 0 -131 50t-42 133v353h38v-354q0 -146 144 -146q58 0 102.5 29.5t59.5 63.5v407h38v-524zM323 591h-37l-134 140h56z" />
<glyph unicode="&#xfa;" horiz-adv-x="537" d="M459 0h-35v74q-20 -35 -65 -60.5t-109 -25.5q-89 0 -131 50t-42 133v353h38v-354q0 -146 144 -146q58 0 102.5 29.5t59.5 63.5v407h38v-524zM249 591h-37l116 140h55z" />
<glyph unicode="&#xfb;" horiz-adv-x="537" d="M459 0h-35v74q-20 -35 -65 -60.5t-109 -25.5q-89 0 -131 50t-42 133v353h38v-354q0 -146 144 -146q58 0 102.5 29.5t59.5 63.5v407h38v-524zM403 591h-41l-94 115l-95 -115h-41l115 140h40z" />
<glyph unicode="&#xfc;" horiz-adv-x="537" d="M459 0h-35v74q-20 -35 -65 -60.5t-109 -25.5q-89 0 -131 50t-42 133v353h38v-354q0 -146 144 -146q58 0 102.5 29.5t59.5 63.5v407h38v-524zM189 594q-12 0 -20 8.5t-8 22.5q0 12 8 20.5t20 8.5q10 0 18 -9t8 -20q0 -14 -7.5 -22.5t-18.5 -8.5zM347 594q-12 0 -20 8.5 t-8 22.5q0 12 8 20.5t20 8.5q10 0 18 -9t8 -20q0 -14 -7.5 -22.5t-18.5 -8.5z" />
<glyph unicode="&#xfd;" horiz-adv-x="491" d="M239 -9l-216 533h42l191 -483l174 483h38q-166 -459 -211 -582q-49 -133 -171 -133q-20 0 -29 1v33q10 -1 27 -1q66 0 97.5 33t57.5 116zM227 591h-37l116 140h55z" />
<glyph unicode="&#xfe;" horiz-adv-x="564" d="M122 -191h-38v922h38v-212q63 17 127 17q133 0 193.5 -70.5t60.5 -190.5q0 -81 -21 -138.5t-59 -89t-83 -45.5t-100 -14q-61 0 -118 25v-204zM122 483v-436q60 -22 119 -22q224 0 224 247q0 98 -50.5 162.5t-156.5 64.5q-83 0 -136 -16z" />
<glyph unicode="&#xff;" horiz-adv-x="491" d="M239 -9l-216 533h42l191 -483l174 483h38q-166 -459 -211 -582q-49 -133 -171 -133q-20 0 -29 1v33q10 -1 27 -1q66 0 97.5 33t57.5 116zM177 594q-12 0 -20 8.5t-8 22.5q0 12 8 20.5t20 8.5q10 0 18 -9t8 -20q0 -14 -7.5 -22.5t-18.5 -8.5zM335 594q-12 0 -20 8.5 t-8 22.5q0 12 8 20.5t20 8.5q10 0 18 -9t8 -20q0 -14 -7.5 -22.5t-18.5 -8.5z" />
<glyph unicode="&#x131;" horiz-adv-x="221" d="M130 0h-38v524h38v-524z" />
<glyph unicode="&#x141;" horiz-adv-x="521" d="M496 0h-411v268l-85 -52v37l85 52v409h44v-382l235 143v-37l-235 -143v-253h367v-42z" />
<glyph unicode="&#x142;" horiz-adv-x="224" d="M215 24v-34q-6 -2 -21 -2q-53 0 -85 27t-32 84v202l-65 -51v34l65 51v396h38v-366l65 51v-34l-65 -51v-231q0 -76 79 -76h21z" />
<glyph unicode="&#x152;" horiz-adv-x="1070" d="M1025 0h-398v140q-77 -157 -262 -157q-144 0 -225 98.5t-81 276.5t81 275.5t225 97.5q185 0 262 -156v139h388v-42h-344v-283h301v-42h-301v-305h354v-42zM627 339v19q0 90 -21 156t-59 103t-83 54.5t-99 17.5t-99 -17.5t-83 -54.5t-59 -103t-21 -156t21 -156.5t59 -104 t83 -55t99 -17.5q111 0 184.5 75t77.5 239z" />
<glyph unicode="&#x153;" horiz-adv-x="922" d="M857 67l15 -33q-75 -46 -178 -46q-160 0 -207 149q-50 -149 -207 -149q-65 0 -112.5 24t-74 65.5t-38.5 88t-12 98.5t12 98t38.5 86.5t74 64t112.5 23.5q158 0 208 -149q22 68 70.5 108.5t124.5 40.5q77 0 125 -37.5t48 -109.5q0 -84 -52.5 -117t-145.5 -33 q-88 0 -150 14q3 -111 50.5 -169.5t136.5 -58.5q91 0 162 42zM280 25q47 0 82.5 17t55.5 41.5t32 59t15.5 63t3.5 58.5t-3.5 58t-15.5 62t-32 58t-55.5 40.5t-82.5 16.5q-61 0 -103.5 -23.5t-61.5 -62.5t-26.5 -74.5t-7.5 -74.5t7.5 -75t26.5 -76t61.5 -64t103.5 -24z M508 292q65 -16 158 -16q85 0 118.5 25.5t33.5 86.5q0 51 -35 81t-100 30q-83 0 -126 -55.5t-49 -151.5z" />
<glyph unicode="&#x160;" horiz-adv-x="624" d="M551 524h-44q-5 84 -59.5 124.5t-140.5 40.5q-98 0 -147 -38.5t-49 -97.5q0 -62 50 -98.5t172 -65.5q132 -31 187 -77t55 -128q0 -85 -72 -143t-183 -58q-124 0 -196.5 60t-75.5 170h44q15 -188 228 -188q99 0 155 45t56 114q0 63 -50.5 100.5t-164.5 64.5q-46 11 -76 20 t-66.5 26t-57 36.5t-35 51t-14.5 70.5q0 77 66 127.5t174 50.5q113 0 176.5 -57.5t67.5 -149.5zM331 764h-40l-115 140h41l95 -115l94 115h41z" />
<glyph unicode="&#x161;" horiz-adv-x="514" d="M444 381h-38q-4 61 -45 90t-107 29q-75 0 -113 -27.5t-38 -68.5q0 -43 38.5 -68t132.5 -46q103 -23 146 -57.5t43 -96.5q0 -63 -56.5 -105.5t-142.5 -42.5q-97 0 -154 45t-59 128h38q9 -137 175 -137q75 0 118 32t43 80q0 44 -39.5 71.5t-125.5 47.5q-35 8 -58.5 14.5 t-51.5 19t-45 27t-28.5 37.5t-11.5 51q0 58 52 95t137 37q88 0 138 -43t52 -112zM276 591h-40l-115 140h41l95 -115l94 115h41z" />
<glyph unicode="&#x178;" horiz-adv-x="640" d="M347 0h-45v310q-18 25 -131 185t-154 219h50l260 -364l248 364h48l-276 -404v-310zM249 775q-12 0 -20 8.5t-8 22.5q0 12 8 20.5t20 8.5q10 0 18 -9t8 -20q0 -14 -7.5 -22.5t-18.5 -8.5zM407 775q-12 0 -20 8.5t-8 22.5q0 12 8 20.5t20 8.5q10 0 18 -9t8 -20 q0 -14 -7.5 -22.5t-18.5 -8.5z" />
<glyph unicode="&#x17d;" horiz-adv-x="579" d="M542 0h-506v32l444 640h-416v42h473v-32l-444 -640h449v-42zM309 764h-40l-115 140h41l95 -115l94 115h41z" />
<glyph unicode="&#x17e;" horiz-adv-x="457" d="M419 0h-381v26l320 465h-294v33h341v-26l-320 -465h334v-33zM248 591h-40l-115 140h41l95 -115l94 115h41z" />
<glyph unicode="&#x192;" horiz-adv-x="570" d="M49 -196l8 35l2 -1q26 -8 47 -8q45 0 66.5 37t34.5 104q14 74 84 424h-96l6 33h96l27 135q12 60 41.5 99.5t94.5 39.5q31 0 61 -9l-8 -37q-30 10 -53 10q-74 0 -94 -96l-30 -142h120l-6 -33h-120q-53 -275 -82 -419q-5 -25 -5 -26q-5 -23 -9.5 -39t-15 -40t-24 -39 t-36.5 -26.5t-52 -11.5q-30 0 -57 10z" />
<glyph unicode="&#x2c6;" d="M307 591h-41l-94 115l-95 -115h-41l115 140h40z" />
<glyph unicode="&#x2c7;" d="M191 591h-40l-115 140h41l95 -115l94 115h41z" />
<glyph unicode="&#x2d8;" d="M274 731h32q-8 -53 -43.5 -86.5t-91.5 -33.5t-91.5 33.5t-43.5 86.5h32q16 -88 103 -88t103 88z" />
<glyph unicode="&#x2d9;" d="M171 594q-12 0 -20 8.5t-8 22.5q0 12 8 20.5t20 8.5q10 0 18 -9t8 -20q0 -14 -7.5 -22.5t-18.5 -8.5z" />
<glyph unicode="&#x2da;" d="M270 638q0 -41 -28.5 -69t-70.5 -28t-70.5 28t-28.5 69q0 43 27.5 72t71.5 29t71.5 -29t27.5 -72zM171 716q-33 0 -53.5 -23t-20.5 -55q0 -29 20.5 -51.5t53.5 -22.5t53.5 22.5t20.5 51.5q0 32 -20.5 55t-53.5 23z" />
<glyph unicode="&#x2db;" d="M252 -160l10 -29q-39 -22 -88 -22q-93 0 -93 76q0 75 106 135h31q-41 -24 -67 -61t-26 -68q0 -21 13 -35t38 -14q34 0 76 18z" />
<glyph unicode="&#x2dc;" d="M287 692h29q0 -34 -21 -62t-55 -28q-27 0 -74.5 28.5t-67.5 28.5t-31 -17.5t-11 -39.5h-29q0 36 20 63t54 27q26 0 75.5 -28.5t66.5 -28.5q20 0 32 17.5t12 39.5z" />
<glyph unicode="&#x2dd;" d="M44 591h-37l116 140h55zM202 591h-37l116 140h55z" />
<glyph unicode="&#x3c0;" horiz-adv-x="528" d="M419 0h-38q-7 38 -7 106v386h-207q-2 -108 -20.5 -251t-44.5 -241h-39q27 116 45 253.5t18 238.5q-68 0 -99 -16l-13 30q40 18 148 18h347l-3 -32h-92v-378q0 -74 5 -114z" />
<glyph unicode="&#x2013;" horiz-adv-x="500" d="M470 253h-440v38h440v-38z" />
<glyph unicode="&#x2014;" horiz-adv-x="1000" d="M970 253h-940v38h940v-38z" />
<glyph unicode="&#x2018;" horiz-adv-x="215" d="M119 502l-53 -8q23 138 53 221l30 3q-24 -116 -30 -216z" />
<glyph unicode="&#x2019;" horiz-adv-x="215" d="M97 497l-31 -2q25 106 31 214l52 9q-17 -127 -52 -221z" />
<glyph unicode="&#x201a;" horiz-adv-x="215" d="M97 -132l-31 -2q25 106 31 214l52 9q-17 -127 -52 -221z" />
<glyph unicode="&#x201c;" horiz-adv-x="331" d="M119 502l-53 -8q23 138 53 221l30 3q-24 -116 -30 -216zM235 502l-53 -8q23 138 53 221l30 3q-24 -116 -30 -216z" />
<glyph unicode="&#x201d;" horiz-adv-x="331" d="M212 497l-30 -3q24 116 30 216l53 8q-23 -138 -53 -221zM96 497l-30 -3q24 116 30 216l53 8q-23 -138 -53 -221z" />
<glyph unicode="&#x201e;" horiz-adv-x="331" d="M212 -131l-30 -3q24 116 30 216l53 8q-23 -138 -53 -221zM96 -131l-30 -3q24 116 30 216l53 8q-23 -138 -53 -221z" />
<glyph unicode="&#x2020;" horiz-adv-x="566" d="M302 -169h-38v616h-191v33h191v234h38v-234h191v-33h-191v-616z" />
<glyph unicode="&#x2021;" horiz-adv-x="566" d="M302 -169h-38v238h-191v33h191v345h-191v33h191v234h38v-234h191v-33h-191v-345h191v-33h-191v-238z" />
<glyph unicode="&#x2022;" horiz-adv-x="329" d="M164 195q-37 0 -63 26t-26 63t26 63t63 26t63.5 -26t26.5 -63t-26.5 -63t-63.5 -26z" />
<glyph unicode="&#x2026;" horiz-adv-x="689" d="M584 -4q-17 0 -27.5 11.5t-10.5 28.5q0 15 11 26t27 11t27 -11t11 -26q0 -17 -10.5 -28.5t-27.5 -11.5zM344 -4q-17 0 -27.5 11.5t-10.5 28.5q0 15 11 26t27 11t27 -11t11 -26q0 -17 -10.5 -28.5t-27.5 -11.5zM104 -4q-17 0 -27.5 11.5t-10.5 28.5q0 15 11 26t27 11 t27 -11t11 -26q0 -17 -10.5 -28.5t-27.5 -11.5z" />
<glyph unicode="&#x2030;" horiz-adv-x="1056" d="M879 -12q-136 0 -136 167t136 167q137 0 137 -167t-137 -167zM879 23q99 0 99 132q0 69 -24.5 100t-74.5 31q-49 0 -73.5 -31t-24.5 -100q0 -132 98 -132zM176 364q-136 0 -136 167t136 167q137 0 137 -167t-137 -167zM176 399q99 0 99 132q0 69 -24.5 100t-74.5 31 q-49 0 -73.5 -31t-24.5 -100q0 -132 98 -132zM153 -17h-41l461 731h40zM549 -12q-136 0 -136 167t136 167q137 0 137 -167t-137 -167zM549 23q99 0 99 132q0 69 -24.5 100t-74.5 31q-49 0 -73.5 -31t-24.5 -100q0 -132 98 -132z" />
<glyph unicode="&#x2039;" horiz-adv-x="210" d="M182 116l-154 134v41l154 136v-48l-127 -109l127 -107v-47z" />
<glyph unicode="&#x203a;" horiz-adv-x="210" d="M182 250l-154 -134v47l127 107l-127 109v48l154 -136v-41z" />
<glyph unicode="&#x2044;" horiz-adv-x="213" d="M-103 -17h-41l461 731h40z" />
<glyph unicode="&#x20ac;" horiz-adv-x="566" d="M529 71v-39q-73 -49 -156 -49q-109 0 -178 77t-90 195h-70l10 33h55q-3 28 -3 57q0 37 2 55h-64l10 33h59q19 117 86.5 193t174.5 76q106 0 166 -70l-13 -37q-48 71 -153 71q-92 0 -149 -64t-74 -169h326l-10 -33h-320q-3 -27 -3 -55q0 -29 3 -57h298l-10 -33h-283 q21 -103 81 -169.5t149 -66.5q93 0 156 52z" />
<glyph unicode="&#x2122;" horiz-adv-x="791" d="M185 299h-33v387h-132v28h298v-28h-133v-387zM771 299h-32v369l-149 -217h-23l-148 217v-369h-33v415h38l155 -226l155 226h37v-415z" />
<glyph unicode="&#x2126;" horiz-adv-x="754" d="M681 0h-258v31q45 19 83 47.5t73 70t55 101t20 130.5q0 125 -78.5 218.5t-200.5 93.5q-120 0 -197.5 -93.5t-77.5 -218.5q0 -71 20 -130.5t55 -101t73 -70t83 -47.5v-31h-258v34h196q-98 46 -154 142.5t-56 219.5q0 60 19.5 118t57 107.5t100.5 80t141 30.5t141 -30.5 t100.5 -80t57 -107.5t19.5 -118q0 -123 -56 -219.5t-154 -142.5h196v-34z" />
<glyph unicode="&#x2202;" horiz-adv-x="552" d="M467 367l1 42q4 141 -65 222t-165 81q-80 0 -146 -38l-19 32q79 46 168 46q112 0 191 -90t79 -268q0 -190 -76.5 -296.5t-198.5 -106.5q-91 0 -143 57.5t-52 154.5q0 108 71 178t167 70q65 0 114 -25.5t74 -58.5zM241 24h2q86 0 146.5 83.5t71.5 205.5q-22 43 -68.5 73.5 t-105.5 30.5q-82 0 -142 -61t-60 -150q0 -88 43 -135t113 -47z" />
<glyph unicode="&#x2206;" horiz-adv-x="679" d="M659 0h-639v23l297 691h48l294 -688v-26zM605 44l-266 611l-263 -611h529z" />
<glyph unicode="&#x220f;" horiz-adv-x="729" d="M568 -128h-50v767h-309v-767h-51v767h-140v38h692v-38h-142v-767z" />
<glyph unicode="&#x2211;" horiz-adv-x="629" d="M617 -126h-605v36l315 382l-305 357v28h569v-38h-502l296 -346l-316 -381h548v-38z" />
<glyph unicode="&#x2212;" horiz-adv-x="670" d="M577 233h-484v38h484v-38z" />
<glyph unicode="&#x221a;" horiz-adv-x="722" d="M420 -176l-32 1l-221 544l-112 -42l-8 18l149 60l203 -520l278 1002h38z" />
<glyph unicode="&#x221e;" horiz-adv-x="743" d="M372 246q-35 -38 -54.5 -56.5t-57 -38.5t-75.5 -20q-59 0 -99 40.5t-40 101.5t42 103t105 42q27 0 51.5 -9t50 -30t39 -34.5t40.5 -42.5q28 30 41 43t39 34t51.5 30t54.5 9q61 0 99 -39.5t38 -102.5q0 -62 -42 -103.5t-102 -41.5q-33 0 -67.5 19t-55 38t-58.5 58z M398 275q4 -4 18 -18.5t18 -18t16 -15.5t17 -15.5t16 -12t18 -11.5t16.5 -7t19 -5.5t19.5 -1.5q42 0 71 32t29 72q0 48 -28 77t-71 29q-16 0 -33 -6t-29 -12t-29.5 -20.5t-24 -21t-24 -25t-19.5 -20.5zM348 273q-5 5 -22 23.5t-24.5 25.5t-23.5 21.5t-28 20t-28.5 11 t-33.5 5.5q-44 0 -72 -31t-28 -74q0 -45 28 -75t74 -30q30 0 64 20.5t47 34t47 48.5z" />
<glyph unicode="&#x222b;" horiz-adv-x="313" d="M16 -141l9 35q24 -8 35 -8q28 0 46 24q37 45 37 175q0 39 -5 254q-5 147 -5 250q0 148 47 196q31 33 77 33q18 0 38 -9l-11 -32q-16 6 -27 6q-28 0 -49 -22q-35 -40 -35 -176q0 -82 4 -250q5 -220 5 -252q0 -141 -44 -196q-28 -38 -78 -38q-24 0 -44 10z" />
<glyph unicode="&#x2248;" horiz-adv-x="670" d="M560 387l25 -25q-54 -79 -135 -79q-13 0 -25 2t-20.5 4t-21.5 7t-18.5 7.5t-20.5 10l-19 9.5q-5 2 -18.5 8.5t-21 9.5t-19.5 7.5t-24 6.5t-24 2q-59 0 -111 -66l-26 25q24 35 61.5 57t78.5 22q19 0 39 -4.5t30.5 -9t30 -14t23.5 -11.5q6 -3 19 -9t20.5 -9.5t19.5 -7.5 t23.5 -6t24.5 -2q62 0 109 65zM563 210l25 -26q-55 -78 -135 -78q-13 0 -25 2t-20.5 4t-21.5 7t-18.5 7.5t-20.5 10l-19 9.5q-5 2 -18.5 8.5t-21 9.5t-19.5 7.5t-24 6.5t-24 2q-61 0 -111 -66l-26 25q24 35 61.5 57t78.5 22q20 0 39.5 -4.5t30.5 -9t29.5 -14t23.5 -11.5 q4 -2 18.5 -9t21 -10t19 -7t24 -6t24.5 -2q62 0 109 65z" />
<glyph unicode="&#x2260;" horiz-adv-x="670" d="M577 137h-298l-97 -154h-37l97 154h-149v38h173l99 156h-272v38h296l99 155h37l-99 -155h151v-38h-175l-99 -156h274v-38z" />
<glyph unicode="&#x2264;" horiz-adv-x="670" d="M577 81l-484 225v50l484 225v-42l-450 -208l450 -208v-42zM577 0h-484v38h484v-38z" />
<glyph unicode="&#x2265;" horiz-adv-x="670" d="M577 306l-484 -225v42l450 208l-450 208v42l484 -225v-50zM577 0h-484v38h484v-38z" />
<glyph unicode="&#x25ca;" horiz-adv-x="542" d="M301 -50h-54l-190 395l184 395h56l188 -395zM274 -21l168 363l-173 370l-169 -365z" />
<glyph unicode="&#x25fc;" horiz-adv-x="525" d="M0 525h525v-525h-525v525z" />
<glyph unicode="&#xfb01;" horiz-adv-x="490" d="M416 0h-38v491h-245v-491h-38v491h-70v33h70v75q0 132 161 132q70 0 129 -17v-36q-66 17 -125 17q-68 0 -97.5 -22.5t-29.5 -78.5v-70h283v-524z" />
<glyph unicode="&#xfb02;" horiz-adv-x="510" d="M507 26v-36q-18 -2 -27 -2q-53 0 -85 27t-32 84v579q-58 17 -113 17q-64 0 -90.5 -22.5t-26.5 -78.5v-70h163v-33h-163v-491h-38v491h-70v33h70v75q0 132 151 132q56 0 117 -17l38 7v-626q0 -71 79 -71q11 0 27 2z" />
<glyph horiz-adv-x="275" />
</font>
</defs>
</svg>
